<svg width="136" height="105" fill="none" xmlns="http://www.w3.org/2000/svg"><path opacity=".1" d="M70.916 94.025c9.284 0 16.81-.836 16.81-1.867 0-1.031-7.526-1.867-16.81-1.867-9.284 0-16.81.836-16.81 1.867 0 1.031 7.526 1.867 16.81 1.867zm-16.664 8.132c2.459 0 4.452-.222 4.452-.495s-1.993-.495-4.452-.495c-2.458 0-4.451.222-4.451.495s1.993.495 4.451.495zm43.258 2.844c2.459 0 4.452-.222 4.452-.495 0-.274-1.993-.495-4.452-.495-2.458 0-4.451.221-4.451.495 0 .273 1.993.495 4.451.495zm28.578-10.856c2.459 0 4.452-.221 4.452-.495 0-.273-1.993-.495-4.452-.495-2.458 0-4.451.222-4.451.495s1.993.495 4.451.495zm-107.692 8.314c9.284 0 16.81-1.727 16.81-3.858 0-2.131-7.526-3.859-16.81-3.859-9.284 0-16.81 1.728-16.81 3.859 0 2.131 7.526 3.858 16.81 3.858zM7.733 39.593h11.834v16.195H8.598c-.028.167-.057.334-.088.5h11.057v13.058a37.886 37.886 0 0 1-.985-.415l-.199-.091a18.495 18.495 0 0 1-1.254-.647 19.427 19.427 0 0 1-4.656-3.64c-.04-.038-.077-.08-.115-.119a21.081 21.081 0 0 1-.553-.626l-.2-.24a17.777 17.777 0 0 1-.615-.8l-.088-.12A17.272 17.272 0 0 1 8.85 58.89a15.57 15.57 0 0 1-.583-1.784c-.017-.053-.03-.107-.044-.159-.656-2.593-.73-5.29-.73-7.97v-.937c0-1.085.01-2.172.03-3.263.007-.282.012-.564.018-.847a109.679 109.679 0 0 1 .097-2.753c0-.115.01-.23.018-.344.024-.413.049-.826.077-1.24zm11.833-18.03h-6.492a49.337 49.337 0 0 1 3.454-4.772 58.913 58.913 0 0 1 3.038-3.465v8.237zm.006.5v17.03H7.77c0-.05.007-.1.012-.15l.033-.402c.011-.156.027-.314.04-.473.015-.159.032-.34.05-.51.018-.17.034-.341.054-.517.02-.176.037-.34.058-.508l.061-.508a47.917 47.917 0 0 1 .14-1.014c0-.03.01-.06.014-.088a40.36 40.36 0 0 1 .869-4.275 31.63 31.63 0 0 1 1.463-4.332 32.467 32.467 0 0 1 2.202-4.258l6.806.005zm2.825 17.53v16.195h25.279V39.593h-25.28zm0 16.695v13.915c.144.03.287.06.43.084.193.037.386.071.58.1.038 0 .077.013.115.016a12.028 12.028 0 0 0 .819.1l.278.026.225.017c.123.008.244.016.365.02.074 0 .149 0 .225.01h.826c.1 0 .201 0 .3-.01.07 0 .14 0 .209-.009h.06c.057 0 .115 0 .172-.008h.04l.386-.03c.128-.012.257-.026.386-.04l.265-.033a23.145 23.145 0 0 0 3.202-.684c2.358-.66 4.66-1.584 7.022-2.26 3.066-.88 6.433-1.305 9.373-.246V56.287H22.398zm25.279-34.725V.002a32.35 32.35 0 0 0-8.214.967c-6.402 1.614-12.15 5.115-17.068 9.588v11.006h1.269v.5h-1.268v17.03h25.28v-17.03H28.88v-.5h18.796zm32.478-7.283c-1.584-.057-3.158-.56-4.583-1.338-2.723-1.486-4.902-3.782-7.329-5.72C63.194 3.188 56.93.753 50.508.149v21.415h36.085l.09-.096-6.529-7.187zm3.288-.59l3.486 3.84v-4.846c-1.17.145-2.192.493-3.484 1.005h-.002zm3.486 59.958v-17.36h-7.43a5.288 5.288 0 0 0-.064-.223c.022.075.041.15.062.223H50.508v12.556c.275.205.547.42.816.64.29.237.578.48.866.723l.29.24c.139.117.28.23.42.345.28.228.563.453.848.675.142.112.286.222.429.332a59.879 59.879 0 0 0 10.04 6.212c.578.283 1.16.557 1.748.823a64.062 64.062 0 0 0 17.031 4.979c1.306.193 2.616.345 3.932.456v-10.62h.116-.116zm-36.42-51.585v17.03H86.93v-17.03H50.508zm0 17.53v16.195H86.93V39.593H50.508zm39.25-26.933v5.418l4.449-4.902a47.839 47.839 0 0 0-4.45-.515zm0 26.933v16.195h35.426V39.593H89.758zm35.301 35.342l.129-18.647h-35.43v28.17c2.282.097 4.567.07 6.846-.082h.04a58.63 58.63 0 0 0 3.25-.3h.025a59.641 59.641 0 0 0 16.7-4.473l8.44-4.668zm6.958-32.67a37.356 37.356 0 0 0-.413-.938 37.997 37.997 0 0 0-.829-1.722h-2.764v16.183h6.988c-.005-4.58-1.161-9.27-2.98-13.534l-.002.011zM128.011 56.3v16.03c1.968-1.893 3.632-4.06 4.829-6.538 1.441-2.983 2.097-6.213 2.154-9.503l-6.983.012zm0-21.415v4.22h2.505a45.614 45.614 0 0 0-2.504-4.231l-.001.011zm-24.024-19.047a50.201 50.201 0 0 0-6.539-2.02l-6.809 7.495-.128.144.087.095h24.228a51.742 51.742 0 0 0-10.839-5.714zm11.552 6.225H90.254l-.496.457v16.573h35.424v-8.031a50.53 50.53 0 0 0-9.643-9z" fill="#2C7BE5"/><path opacity=".1" d="M19.572 30.653v8.44H7.77c0-.05.007-.102.012-.15l.033-.403c.011-.156.027-.314.04-.473.015-.159.032-.34.05-.51.018-.17.034-.341.054-.517.02-.176.037-.34.058-.508l.061-.508a47.425 47.425 0 0 1 .14-1.014c0-.03.01-.06.014-.088.212-1.44.503-2.866.869-4.274l10.47.005zm-11.839 8.94h11.834v16.195H8.598c-.028.167-.057.334-.088.5h11.057v13.058a37.886 37.886 0 0 1-.985-.415l-.199-.091a18.495 18.495 0 0 1-1.254-.647 19.427 19.427 0 0 1-4.656-3.64c-.04-.038-.077-.08-.115-.119a21.081 21.081 0 0 1-.553-.626l-.2-.24a17.777 17.777 0 0 1-.615-.8l-.088-.12A17.272 17.272 0 0 1 8.85 58.89a15.57 15.57 0 0 1-.583-1.784c-.017-.053-.03-.107-.044-.159-.656-2.593-.73-5.29-.73-7.97v-.937c0-1.085.01-2.172.03-3.263.007-.282.012-.564.018-.847a109.679 109.679 0 0 1 .097-2.753c0-.115.01-.23.018-.344.024-.413.049-.826.077-1.24zm23.561-15.091v14.591h-8.9V24.502h1.269v-4.94h5.21v4.94h2.421zm.004 15.091h-8.9v16.195h8.9V39.593zM22.395 56.29h8.899v13.465a22.916 22.916 0 0 1-3.467.716c-.129.014-.257.029-.386.04l-.386.031h-.041c-.056 0-.114.007-.172.008a.45.45 0 0 1-.059 0c-.07 0-.14.008-.21.009-.099 0-.198.007-.3.01h-.826c-.06 0-.15 0-.226-.01-.12 0-.241-.012-.364-.02l-.224-.017-.28-.025a15.866 15.866 0 0 1-.585-.067c-.076-.01-.156-.02-.233-.034-.038 0-.077-.01-.113-.015-.195-.03-.386-.064-.58-.101a12.662 12.662 0 0 1-.432-.084l-.015-13.907zm64.534-33.512h-7.34v16.315h7.34V22.778zm.001 16.815v16.195H50.503v-6.984h19.402v4.12h9.684V39.592h7.34zm.115 34.06h-.116v10.623a63.343 63.343 0 0 1-3.931-.456 64.027 64.027 0 0 1-17.036-4.985 61.912 61.912 0 0 1-4.6-2.316 58.672 58.672 0 0 1-8.883-6.07c-.386-.32-.773-.646-1.159-.966a34.54 34.54 0 0 0-.816-.646V56.288h28.99l-.06-.223a8.3 8.3 0 0 1 .061.223h7.434v17.357l.116.008zm19.02-52.09h-4.78v-1.498h2.142v-4.437c.186.068.371.14.555.21v4.227h2.083v1.498zm11.524 17.53H94.112h.007-4.365V22.778h1.234v12.06h5.64V27.7h4.658v-5.637h4.78V27.7h4.658v7.137h6.865v4.256zm-27.835.5v16.195h27.835V39.593H89.754zm35.388 35.262l.038-12.819h-7.595v-5.748H89.754v28.17c2.282.097 4.567.069 6.846-.082h.04a58.81 58.81 0 0 0 3.25-.3h.025a59.658 59.658 0 0 0 16.701-4.474m11.885-23.312h6.493c-.056 3.29-.714 6.518-2.155 9.502-1.196 2.477-2.86 4.644-4.827 6.537V62.03h.489v-5.74zm6.5-.501h-6.497V42.254h3.516c1.819 4.264 2.975 8.954 2.981 13.535z" fill="#2C7BE5"/><path opacity=".1" d="M86.932 27.314H83v5.114h3.932v-5.114zm0 10.602H83v1.177h3.932v-1.177zm0 1.677H83v3.436h3.932v-3.436zm0 8.925H83v5.114h3.932v-5.114zm0 10.602H83v5.115h3.932V59.12zm0 14.526l.115.008h-.115v1.187H83v-5.12h3.932v3.925zm0 6.674v3.95A63.355 63.355 0 0 1 83 83.815v-3.488l3.932-.006zM67.353 55.412h-16.85v.376h16.85v-.376zm0 .878h-16.85v1.439h16.85v-1.44zm0 6.158h-16.85v2.316h16.85v-2.316zm0 7.036V71.8H54.174c-.572-.44-1.137-.89-1.695-1.352-.386-.319-.773-.646-1.159-.964h16.033zm0 7.036v2.317h-1.39a61.62 61.62 0 0 1-4.6-2.318h5.99zm32.565-35.357h-3.316v3.329h3.316v-3.329zM28.105 25.65H24.79v3.328h3.316V25.65zm0 7.733H24.79v3.329h3.316v-3.33zm0 7.733H24.79v3.329h3.316v-3.329zm0 7.734H24.79v3.328h3.316V48.85zm0 7.735H24.79v3.329h3.316v-3.329zm0 7.733H24.79v3.33h3.316v-3.33zm84.477-23.155h-3.316v3.329h3.316v-3.329zm-12.664 8.212h-3.316v3.329h3.316v-3.329zm12.664 0h-3.316v3.329h3.316v-3.329zm-12.664 8.212h-3.316v3.329h3.316v-3.33zm12.664 0h-3.316v3.329h3.316v-3.33zm-12.664 8.212h-3.316v3.329h3.316v-3.33zm12.664 0h-3.316v3.329h3.316v-3.33zM99.918 74.01h-3.316v3.33h3.316v-3.33zm12.664 0h-3.316v3.33h3.316v-3.33zm-15.98 10.359v-2.146h3.316v1.841l-3.316.305zM8.219 34.926v1.904h11.35v-1.904H8.22zm1.13 1.786h-.93v-1.657h.93v1.657zm1.13 0h-.93v-1.657h.93v1.657zm1.128 0h-.93v-1.657h.93v1.657zm1.13 0h-.93v-1.657h.93v1.657zm1.13 0h-.931v-1.657h.93v1.657zm1.13 0h-.931v-1.657h.93v1.657zm1.13 0h-.93v-1.657h.93v1.657zm1.129 0h-.93v-1.657h.93v1.657zm1.129 0h-.93v-1.657h.93v1.657zm1.129 0h-.933v-1.657h.93l.003 1.657zM8.219 40.473v1.904h11.35v-1.904H8.22zm1.13 1.784h-.93v-1.664h.93v1.664zm1.13 0h-.93v-1.664h.93v1.664zm1.128 0h-.93v-1.664h.93v1.664zm1.13 0h-.93v-1.664h.93v1.664zm1.13 0h-.931v-1.664h.93v1.664zm1.13 0h-.931v-1.664h.93v1.664zm1.13 0h-.93v-1.664h.93v1.664zm1.129 0h-.93v-1.664h.93v1.664zm1.129 0h-.93v-1.664h.93v1.664zm1.129 0h-.933v-1.664h.93l.003 1.664zM8.219 46.018v1.903h11.35v-1.903H8.22zm1.13 1.783h-.93v-1.665h.93v1.665zm1.13 0h-.93v-1.665h.93v1.665zm1.128 0h-.93v-1.665h.93v1.665zm1.13 0h-.93v-1.665h.93v1.665zm1.13 0h-.931v-1.665h.93v1.665zm1.13 0h-.931v-1.665h.93v1.665zm1.13 0h-.93v-1.665h.93v1.665zm1.129 0h-.93v-1.665h.93v1.665zm1.129 0h-.93v-1.665h.93v1.665zm1.129 0h-.933v-1.665h.93l.003 1.665zM8.219 51.562v1.903h11.35v-1.904H8.22zm1.13 1.784h-.93V51.68h.93v1.666zm1.13 0h-.93V51.68h.93v1.666zm1.128 0h-.93V51.68h.93v1.666zm1.13 0h-.93V51.68h.93v1.666zm1.13 0h-.931V51.68h.93v1.666zm1.13 0h-.931V51.68h.93v1.666zm1.13 0h-.93V51.68h.93v1.666zm1.129 0h-.93V51.68h.93v1.666zm1.129 0h-.93V51.68h.93v1.666zm1.129 0h-.933V51.68h.93l.003 1.666zM8.266 57.105c.045.18.096.357.15.535v-.415h.931v1.664H8.85l.045.119h10.672v-1.904H8.266zm2.211 1.784h-.93v-1.664h.93v1.664zm1.128 0h-.93v-1.664h.93v1.664zm1.13 0h-.93v-1.664h.93v1.664zm1.13 0h-.931v-1.664h.93v1.664zm1.13 0h-.931v-1.664h.93v1.664zm1.13 0h-.93v-1.664h.93v1.664zm1.129 0h-.93v-1.664h.93v1.664zm1.129 0h-.93v-1.664h.93v1.664zm1.129 0h-.933v-1.664h.93l.003 1.664zm-8.61 3.761c.03.038.058.08.088.12h.617v.8l.2.238v-1.034h.93v1.666h-.377c.037.039.073.08.114.119h7.095V62.65h-8.667zm2.961 1.785h-.93v-1.666h.93v1.666zm1.13 0h-.93v-1.666h.93v1.666zm1.13 0h-.93v-1.666h.93v1.666zm1.13 0h-.93v-1.666h.93v1.666zm1.129 0h-.93v-1.666h.93v1.666zm1.129 0h-.93v-1.666h.93v1.666zm-2.382 3.758c.107.061.215.12.324.177v-.058h.931v.528l.198.091v-.619h.931v1.013a.391.391 0 0 0 .055.021v-1.153h-2.44zm69.801 5.452h.115-.115zm-7.497-17.574c.022.075.041.15.062.224-.023-.08-.039-.155-.062-.23v.006zM23.664 21.563v.5h5.215v-.5h-5.215zM86.93 73.638h.115-.115zm-7.497-17.574c.022.075.041.15.062.223-.023-.073-.039-.148-.062-.223zm7.496 17.58h.116-.115zM79.433 56.07c.022.075.041.15.062.224-.023-.08-.039-.155-.062-.23v.006z" fill="#2C7BE5"/><path d="M1.006 51.25l-.881.046.88 5.676 2.148 5.986.633-1.567 82.872-6.373-.016-2.543-12.483-4.59L1.006 51.25z" fill="#EEC5CD"/><path d="M75.395 66.184l-.9-.415-4.476-2.066-.062-.93 4.259 1.905.87.39.309 1.116zm-61.923 3.038l-.247 1.367-.653-.885-.96-1.303-.675-.914.371-.745.555.636.316.362.543.623.065.075.685.784z" fill="#D48A9B"/><path d="M72.89 80.928c-.104.607-.409.528-.687.302a1.682 1.682 0 0 1-.586-1.087l-2.4-17.801-.087-.646-.103-.77-.088-.636-.173-1.292-.11-.813 1.235-.433.153 1.163.377 2.843.084.634.09.676.017.13.087.645.026.2 2.165 16.319c.027.188.026.378 0 .566z" fill="#D48A9B"/><path opacity=".1" d="M75.394 66.184l-.9-.415-.23-.903-.05-.187.871.389.31 1.116z" fill="#000"/><path d="M81.625 86.797c-.062.537-.35.601-.644.517a1.23 1.23 0 0 1-.828-.891L74.915 65.96l-.282-1.095-1.573-6.153-.2-.775 1.051-1.242.5 1.932 7.168 27.625c.048.177.064.362.046.544z" fill="#D48A9B"/><path opacity=".1" d="M70.7 63.831l-.459-.459-.212-.214-.811-.816-.086-.644-.105-.77 1.024 1.007.454.449.09.676.017.126.088.645z" fill="#000"/><path d="M73.415 64.695h-1.298l-.043-.042-1.46-1.467-.213-.214-1.268-1.275-2.546-2.556-.525-.526.864-.308.773.76 1.242 1.224 1.482 1.458 2.295 2.259.697.687zm-60.497-3.164l-.286 1.178-1.057 4.339-.24.98-4.456 18.3a1.787 1.787 0 0 1-.355.728c-.429.517-.698.272-.85-.04a1.352 1.352 0 0 1-.084-.915l5.72-23.307.31-1.263h1.298zm6.61-.061l-.824.833-3.272 3.314-.226.23-.454.46-1.265 1.278-.224.227-.449.454-.094.096-.238.24-.556-.62.25-.242.871-.85.445-.435.223-.216 1.273-1.244.451-.44.225-.22 2.012-1.963.925-.902h.927z" fill="#D48A9B"/><path opacity=".1" d="M15.665 64.337l-.04.22-.191 1.06-.227.23-1.719 1.739.19-1.13.038-.216 1.724-1.683.225-.22zm-2.88 4.102l.685.784-.247 1.367-.653-.885.155-.91.06-.356z" fill="#000"/><path opacity=".1" d="M14.99 64.996l-.152.852-.084.46-1.264 1.278-.224.227-.45.454.079-.454.154-.922.446-.435.223-.216 1.273-1.244z" fill="#000"/><path d="M16.067 61.098l-.257 1.397-.372 2.06-.233 1.293L10.07 94.16c-.47 1.163-.812.905-1.016.487a1.836 1.836 0 0 1-.147-1.112l3.964-23.42.223-1.32.166-.982.23-1.356.644-3.851.129-.763 1.803-.745z" fill="#D48A9B"/><path d="M.125 51.296l3.09 6.14 83.427-4.961-12.483-4.59L.125 51.296z" fill="#EEC5CD"/><path d="M.124 51.297L0 56.32l3.151 6.638.062-5.522-3.09-6.14z" fill="#D48A9B"/><path opacity=".1" d="M11.619 61.532h1.297l-.285 1.174-1.322.087.31-1.26zm2.656.31l1.792-.744-.254 1.398-1.668.108.13-.762zm4.325-.372h.927l-.824.833-1.027.069.924-.902zm48.326-3.163l.773.76-1.112.074-.525-.526.864-.308zm2.964-.558l.155 1.164-1.28.086-.109-.817 1.235-.433zm4.522.875l-1.352.09-.2-.78 1.051-1.242.5 1.932z" fill="#000"/><path d="M86.642 52.475l.124 4.962-83.614 5.521.062-5.521 83.428-4.962z" fill="#D48A9B"/><path opacity=".1" d="M4.45 58.491l19.22-.868.061 3.412-19.158.806-.124-3.35z" fill="#000"/><path d="M4.266 58.305l19.22-.868.061 3.411-19.158.808-.123-3.351z" fill="#fff"/><path opacity=".1" d="M24.967 57.5l43.443-2.544-.062 3.225-43.504 2.792.123-3.474z" fill="#000"/><path d="M24.78 57.314l43.444-2.544-.062 3.226-43.506 2.791.124-3.473z" fill="#fff"/><path opacity=".1" d="M69.152 54.832l16.562-1.055.124 3.164-16.5 1.116-.186-3.225z" fill="#000"/><path d="M68.965 54.646l16.562-1.054.123 3.163-16.5 1.117-.185-3.226z" fill="#fff"/><path opacity=".1" d="M15.259 59.764l-2.349.062.005.186 2.349-.062-.005-.186z" fill="#000"/><path d="M15.259 59.578l-2.349.062.005.186 2.349-.063-.005-.185z" fill="#D48A9B"/><path opacity=".1" d="M60.747 57.097l-2.349.062.005.186 2.349-.062-.005-.186z" fill="#000"/><path d="M60.743 56.91l-2.349.063.005.186 2.349-.063-.005-.185z" fill="#D48A9B"/><path opacity=".1" d="M35.22 58.585l-2.349.063.005.185 2.349-.062-.005-.186z" fill="#000"/><path d="M35.22 58.399l-2.349.062.005.186 2.349-.062-.005-.186z" fill="#D48A9B"/><path opacity=".1" d="M78.974 55.856l-2.349.062.005.186 2.349-.062-.005-.186z" fill="#000"/><path d="M78.974 55.67l-2.349.062.005.186 2.349-.062-.005-.186zm27.195 23.664l-2.226-.123-.149-6.412-.036-1.528 2.348-.433.014 1.968.049 6.528z" fill="#D48A9B"/><path d="M104.438 78.219l-11.433 7.133-.247 2.17 1.236.063v-1.55l7.478-4.219-9.023 11.228v1.737h1.483l-.123-1.923 10.444-11.91 1.298.124 11 12.53.247 2.11 1.483.062-.247-2.171-8.714-10.918 5.81 4.031.123 1.737 1.174.062-.123-2.109-11.062-8.56-.804.373z" fill="#D48A9B"/><path d="M90.076 66.015a20.483 20.483 0 0 0 2.704-4.403c.786-1.747 1.649-3.764 1.714-4.36.13-1.117 3.275-3.35 6.736-3.474 2.256-.082 5.772-1.85 7.948-3.07a16.136 16.136 0 0 1 6.668-2.068c2.545-.193 4.939.309 3.734 3.273l-16.191 19.668s-13.8 2.44-14.648-1.484a3.173 3.173 0 0 0-.197-.576c-.166-.371-.208-1.339 1.532-3.506z" fill="#2C7BE5"/><path opacity=".2" d="M91.292 66.405c1.087-1.363 2-2.856 2.72-4.445.736-1.634 1.513-3.465 1.575-4.02.118-1.065 3.133-3.199 6.446-3.318 2.157-.077 5.521-1.765 7.603-2.932a15.445 15.445 0 0 1 6.381-1.973c2.436-.183 4.726.296 3.576 3.127l-12.836 18.867s-15.834 2.255-16.67-1.476a3.834 3.834 0 0 0-.2-.579c-.146-.366-.166-1.272 1.405-3.251z" fill="#fff"/><path opacity=".1" d="M106.12 72.805c-.744 0-1.528 0-2.327-.008l-.035-1.527 2.347-.434.015 1.97zm9.01 13.54l-5.81-4.031.667.834 5.143 3.57.124 1.736 1.174.062-.022-.373-1.152-.061-.124-1.737zm-21.138-.683v.372l6.931-3.909.547-.68-7.478 4.217zM92.45 94.41v.371h1.482l-.023-.372h-1.46zm1.544-7.197l-1.194-.06-.042.37 1.236.062v-.372zm22.804 8.127l-.247-2.11L105.55 80.7l-1.297-.124-10.444 11.91.023.347 10.421-11.885 1.297.124 11.001 12.531.247 2.109 1.483.062-.042-.375-1.441-.06z" fill="#000"/><path d="M64.442 81.445c2.027 1.623 3.297.12 3.297.12s3.419-2.446 3.495-2.79c.045-.208.11-.41.196-.606 0 0 .562.097.562-.169s.586-.363.927-.581c.341-.219 2.492-2.108 2.492-2.108s.074-.411 1.06-.726c.694-.221 2.17-1.605 2.986-2.408.05-.324.217-1.311.4-1.614a.441.441 0 0 1 .32-.14l.081-.3c.24-.914.416-1.843.527-2.781.219-1.939 1.856-2.543 2.27-2.543.415 0 3.713-1.405 3.713-1.405l5.35-2.18s3.296-1.04 3.174-1.744a.637.637 0 0 1 .007-.225c.067-.331.354-.716.644-1.034a7.27 7.27 0 0 1 .644-.63l1.776-1.105.137-.086c-.6-.961-1.913-2.225-1.913-2.225s.386-.726.83-.726c.294 0 1.931-.517 2.989-.86-.109-1.177-.325-4.76 1.017-5.486l1.608-.873-.14.324.238-.13s-.028.061-.072.164a1.78 1.78 0 0 1 .149-.016c.146-.517.233-.933.191-1.068-.107-.337-.129-2.641.839-3.827l-.772-2.253a.435.435 0 0 1 .023-.338.44.44 0 0 1 .256-.222l2.001-.675a.43.43 0 0 1 .193-.02.447.447 0 0 1 .481.297l.568 1.657c.239-.056.481-.099.725-.129.168-.305.372-.6.341-.938a1.627 1.627 0 0 0-.205-.556 6.394 6.394 0 0 1-.543-1.603.698.698 0 0 1-.006-.34c.083-.273.439-.367.59-.61.129-.199.087-.456.025-.68-.098-.36-.247-.704-.328-1.067-.081-.363-.088-.759.09-1.085.158-.255.38-.464.643-.606.069-.321.299-.623.226-.941-.044-.192-.195-.35-.223-.543-.049-.35.3-.616.606-.797l2.713-1.61c.242-.143.493-.289.752-.409.489-.258 1.008-.442 1.544-.375.689.087 1.258.58 1.683 1.125.425.544.758 1.163 1.235 1.661.87.917 2.138 1.357 3.089 2.197.267.218.478.496.614.813.397 1.056-.58 2.145-.574 3.272 0 .987.76 1.81 1.545 2.418.333.258.708.544.772.959.052.32-.096.633-.188.943a3.121 3.121 0 0 0 .094 1.95c.617.408 1.057.685 1.057.685s2.54 2.132 3.958 2.617a.278.278 0 0 1 .144.086c.386.24 1.463.915 1.663 1.269.245.437 1.905 2.083.83 2.665a5.97 5.97 0 0 1-2.003.678s-2.491.775-3.468 1.26a10.64 10.64 0 0 1-1.845.646 3.76 3.76 0 0 0 .742 1.887h.027c.122.162.259.313.411.448l-.271.043.018.017c-.708.113-1.436.226-2.134.065-.698-.16-1.366-.664-1.493-1.363-.137-.753.332-1.657-.178-2.229a1.11 1.11 0 0 0-.644-.33c-.338.449-2.826 3.627-5.082 2.93.515 1.377 1.43 3.78 1.604 3.848.244.097-2.491.97-2.491.97s-.538-.088-1.309-.162c0 .093.01.19.016.292.053.95.088 2.229-.076 2.584-.04.089-.072.18-.098.274a4.778 4.778 0 0 1-1.472 2.378l-.238.2a3.22 3.22 0 0 0-.773 1.017 3.958 3.958 0 0 1-2.317 2.01 5.11 5.11 0 0 1-2.41.146s-5.492.533-8.52.775c-3.028.242-6.326 1.648-6.326 1.648s-1.524 1.081-2.604 2.48c-.081.105-.158.213-.234.32l.47.832s-2.234 1.635-3.734 2.857v.22c.074 1.623-2.076 3.9-2.076 3.9s-.66.92-1.002 1.381c-.342.461.587.75.587.75s-1.544.436-.928 2.06c.617 1.622.17 2.688.17 2.688l-.901 4.336h-1.89l.367-3.003c-.66-.05-2.418 2.663-2.418 2.663s-4.592-.702-5.422-.945c-.83-.243-.684-1.792.901-1.452a2.72 2.72 0 0 0 2.54-.75s1.124-1.31 1.759-4.653c.212-.982.485-1.95.817-2.898-.872 1.328-1.354 3.277-1.545 3.383-.269.144-3.638 3.972-3.638 3.972l-1.328-1.309 2.28-2.663s-2.076.023-2.93.605c-.855.581-1.983.29-1.983.29s-2.589-2.058-3.218-2.834c-.63-.775-1.154-2.93.874-1.3z" fill="url(#paint0_linear)"/><path d="M102.406 46.891s1.106-.338 1.058.24c-.048.58.577 1.112.577 1.112L103.03 50.9l-2.26-.822.715-2.27.921-.917z" fill="#575989"/><path d="M102.406 46.891s1.106-.338 1.058.24c-.048.58.577 1.112.577 1.112L103.03 50.9l-2.26-.822.715-2.27.921-.917z" fill="#FFD7E3"/><path d="M108.207 32.622c-.343.196-.705.41-.891.758-.175.326-.169.723-.09 1.083.078.36.227.706.324 1.062.06.225.098.481-.024.68-.15.243-.5.336-.584.609a.73.73 0 0 0 .008.338c.107.554.287 1.092.534 1.599.101.17.17.358.202.554.049.54-.495.97-.542 1.508-.025.29.098.572.219.837.129.295.278.603.542.786.327.226.773.21 1.15.1.377-.108.739-.296 1.124-.387.355-.089.737-.1 1.061-.272.549-.293.778-.949.939-1.551.108-.404.208-.832.103-1.238a3.998 3.998 0 0 0-.331-.738c-.145-.305-.248-.634-.445-.904s-.462-.475-.542-.786c-.093-.36.106-.721.27-1.053a7.21 7.21 0 0 0 .374-.905c.1-.247.138-.516.109-.782-.095-.545-.656-.876-1.188-1.022-.386-.106-.803-.154-1.186-.296-.171-.063-.323-.182-.506-.192-.225-.017-.441.103-.63.212z" fill="#3F2B3B"/><path d="M80.082 71.088l4.46.602h.015s4.45-5.337 4.522-5.36l5.029-1.787 3.369-.991.457-2.197-4.475-.17-1.468.218-5.269 2.174s-3.248 1.401-3.657 1.401c-.41 0-2.021.604-2.238 2.535a20.29 20.29 0 0 1-.514 2.772c-.133.5-.231.803-.231.803z" fill="#C77486"/><path opacity=".05" d="M80.082 71.135l4.46.602h.015s4.45-5.337 4.522-5.36l5.029-1.787 3.369-.992.457-2.196-4.475-.17-1.468.218-5.269 2.174s-3.248 1.401-3.657 1.401c-.41 0-2.021.603-2.238 2.535a20.368 20.368 0 0 1-.514 2.772c-.133.499-.231.803-.231.803z" fill="#000"/><path opacity=".1" d="M93.53 61.307l-.218.367s1.545.832 1.417 1.152l2.234-.904-3.433-.615zm-13.448 9.781l4.46.602c.29-1.034.516-1.786.516-1.786l-3.08.533s-1.064-.208-1.673-.151c-.125.498-.223.802-.223.802z" fill="#000"/><path d="M81.98 70.726s-1.853-.361-2.069 0c-.216.362-.41 1.715-.41 1.715s-3.634 8.548-4.257 11.88c-.623 3.334-1.732 4.637-1.732 4.637a2.67 2.67 0 0 1-2.503.75c-1.563-.339-1.707 1.207-.89 1.448.818.242 5.342.942 5.342.942s1.731-2.704 2.381-2.656l-.36 2.995h1.852l.89-4.324s.432-1.062-.169-2.68.914-2.053.914-2.053-.914-.29-.576-.748c.337-.46.986-1.377.986-1.377s2.117-2.265 2.045-3.888c-.072-1.623 1.635-7.172 1.635-7.172l-3.08.531z" fill="#D4DFEC"/><path opacity=".1" d="M81.98 70.726s-1.853-.361-2.069 0c-.216.362-.41 1.715-.41 1.715s-3.634 8.548-4.257 11.88c-.623 3.334-1.732 4.637-1.732 4.637a2.67 2.67 0 0 1-2.503.75c-1.563-.339-1.707 1.207-.89 1.448.818.242 5.342.942 5.342.942s1.731-2.704 2.381-2.656l-.36 2.995h1.852l.89-4.324s.432-1.062-.169-2.68.914-2.053.914-2.053-.914-.29-.576-.748c.337-.46.986-1.377.986-1.377s2.117-2.265 2.045-3.888c-.072-1.623 1.635-7.172 1.635-7.172l-3.08.531z" fill="#000"/><path opacity=".1" d="M78.251 83.912s-.643 4.37-1.492 4.684c-.848.314 1.492-4.684 1.492-4.684zm1.756-3.454c-.072.072-2.069 2.681-2.863 2.705-.794.023 2.863-2.705 2.863-2.705z" fill="#000"/><path d="M83.156 70.001s2.189 5.723 3.176 3.96c.16-.282.34-.553.538-.81 1.064-1.395 2.566-2.474 2.566-2.474s3.248-1.4 6.23-1.641c2.984-.242 8.392-.772 8.392-.772l.701-.604c.072-3.912-7.795-5.747-7.795-5.747s-6.014 2.488-8.276 3.211c-2.262.724-2.645 1.81-2.645 1.81l-2.257 2.396-.63.671z" fill="#C77486"/><path opacity=".1" d="M83.156 70.002s2.189 5.723 3.176 3.96c.16-.282.34-.553.538-.811l-.36-.646a10.765 10.765 0 0 0-1.931-2.532 4.76 4.76 0 0 0-.788-.646l-.635.675z" fill="#000"/><path d="M85.733 71.836s-2.021-2.486-2.575-2.221c-.553.264-3.079 2.148-3.079 2.148s-2.532 2.657-3.503 2.972c-.97.316-1.044.725-1.044.725s-2.111 1.882-2.454 2.1c-.342.219-.915.314-.915.58 0 .264-.552.168-.552.168a3.29 3.29 0 0 0-.193.604c-.072.339-3.44 2.777-3.44 2.777s-1.251 1.498-3.248-.115c-1.997-1.613-1.492.531-.866 1.304.625.773 3.175 2.826 3.175 2.826s1.106.29 1.95-.29c.843-.581 2.887-.61 2.887-.61l-2.246 2.657 1.308 1.304s3.318-3.816 3.584-3.96c.265-.145 1.059-3.748 2.648-4.468 0 0 4.522-1.739 5.99-2.972 1.467-1.233 3.945-3.067 3.945-3.067l-1.372-2.462z" fill="#D4DFEC"/><path opacity=".1" d="M70.719 80.458c.144-.072 3.347.508 2.671.858-.676.35-2.671-.858-2.671-.858zm3.465-1.545c.144.097 1.852.508 1.416.967-.437.458-1.416-.967-1.416-.967z" fill="#000"/><path d="M91.988 61.405s1.159.024 4.883.797 7.189 6.063 7.189 6.063a5.004 5.004 0 0 0 2.374-.145 3.918 3.918 0 0 0 2.285-2.005c.182-.386.44-.73.758-1.015l.234-.199a4.766 4.766 0 0 0 1.45-2.376 1.66 1.66 0 0 1 .096-.274c.161-.351.129-1.626.074-2.574a34.107 34.107 0 0 0-.074-1.095l-12.414-2.344-.705.442-1.75 1.102a6.996 6.996 0 0 0-.637.63c-.283.315-.565.7-.632 1.034a.612.612 0 0 0-.006.226c.122.695-3.125 1.733-3.125 1.733z" fill="#fff"/><path d="M110.634 37.768s1.202 1.692-.288 4.782c-1.491 3.09 6.308-1.787 6.308-1.787s-2.935-4.444-2.503-5.265c.433-.82-3.517 2.27-3.517 2.27z" fill="#C77486"/><path opacity=".1" d="M111.739 39.599a3.81 3.81 0 0 0 3.802-3.816 3.809 3.809 0 0 0-3.802-3.816 3.809 3.809 0 0 0-3.801 3.816 3.809 3.809 0 0 0 3.801 3.816z" fill="#000"/><path d="M111.739 39.309a3.81 3.81 0 0 0 3.802-3.816 3.809 3.809 0 0 0-3.802-3.816 3.809 3.809 0 0 0-3.801 3.816 3.809 3.809 0 0 0 3.801 3.816z" fill="#C77486"/><path opacity=".1" d="M111.064 40.403s-1.25 1.995 2.575.886c3.825-1.11-3.007 7.582-3.007 7.582l-2.694-2.801 1.058-4.926 2.068-.74z" fill="#000"/><path d="M111.064 40.596s-1.25 1.996 2.575.885-3.007 7.583-3.007 7.583l-2.694-2.8 1.058-4.928 2.068-.74z" fill="#DCE6F2"/><path opacity=".1" d="M98.137 56.68c.121.173.228.355.319.547.432.966 1.49.724 1.49.724 1.734 1.063 6.309.776 6.309.776s-1.011 1.69.914 1.11c1.183-.356 2.961-.274 4.163-.16-.032-.615-.073-1.094-.073-1.094L98.845 56.24l-.708.44z" fill="#000"/><path d="M96.39 54.377s1.636 1.593 2.07 2.56c.433.966 1.49.724 1.49.724 1.733 1.063 6.308.775 6.308.775s-1.01 1.69.914 1.11c1.925-.58 5.437 0 5.437 0s2.695-.87 2.455-.965c-.241-.096-1.931-4.782-1.931-4.782a1.98 1.98 0 0 1-.129-.802c.01-.374.146-.733.386-1.018a2.38 2.38 0 0 1 .901-.646c1.876-.821 5.196-2.898 5.196-2.898s8.469-1.256 7.074-1.739c-1.396-.483-3.898-2.608-3.898-2.608s-3.946-2.512-4.716-3.574c-.77-1.062-2.357-1.4-2.357-1.4l-2.203 1.642-4.004 3.574-.194-2.168s-.433-1.45-1.01-1.837c-.577-.386-2.725.379-2.879.432h-.009s-2.213 6.424-2.116 7.583c.024.305-.111.738-.322 1.21-.136.302-.305.62-.483.93a23.525 23.525 0 0 1-1.313 2.02s-3.416 1.162-3.849 1.162c-.433 0-.817.715-.817.715z" fill="#FFD7E3"/><path opacity=".1" d="M109.383 44.742l.434 1.908 4.162-2.27-.398-3.43-4.005 3.575v-.002l-.193.219z" fill="#000"/><path d="M109.191 44.548l.433 1.907 4.163-2.269-.398-3.43-4.006 3.575v-.003l-.192.22z" fill="#FFD7E3"/><path opacity=".1" d="M102.371 50.675c1.577.329 8.625 1.81 10.63 2.514.01-.374.146-.733.386-1.02-1.989-.916-8.13-3.546-10.533-2.427-.137.303-.305.622-.483.933z" fill="#000"/><path opacity=".1" d="M102.371 50.289c1.577.328 8.625 1.81 10.63 2.513a1.66 1.66 0 0 1 .386-1.02c-1.989-.915-8.13-3.546-10.533-2.426-.137.301-.305.622-.483.933z" fill="#000"/><path d="M102.371 50.481c1.577.33 8.625 1.816 10.63 2.514.01-.374.146-.733.386-1.019-1.994-.917-8.13-3.547-10.533-2.426a10.76 10.76 0 0 1-.483.931z" fill="#FFD7E3"/><path d="M104.04 51.879a.494.494 0 1 0-.002-.989.494.494 0 0 0 .002.989zm-1.668 3.463a.494.494 0 1 0-.002-.988.494.494 0 0 0 .002.988zm5.566-2.474a.494.494 0 0 0 .493-.495.494.494 0 1 0-.986 0c0 .273.221.495.493.495zm-1.996 3.622a.493.493 0 0 0 .493-.495.494.494 0 1 0-.986 0c0 .273.221.495.493.495zm-.64-8.428a.494.494 0 1 0-.002-.988.494.494 0 0 0 .002.988z" fill="#FEFFFF"/><path opacity=".1" d="M111.02 52.868s2.021 4.987 1.544 5.663c-.476.675-1.544-5.663-1.544-5.663zm-1.711 0c.285-.071-1.202 1.34-1.371 2.632-.169 1.292-1.204 2.379-1.204 2.379l1.03-2.537s1.209-2.39 1.545-2.474zm-6.445-.498c-.146.217-2.144.604-2.36 2.85l2.36-2.85zm13.425-3.571c-.241.217-2.961 2.052-3.922 2.088-.96.036 3.922-2.088 3.922-2.088zm-4.309 1.014s-.409.58-.818.58c-.41 0 .818-.58.818-.58zM95.125 59.44c1.74.058 7.577.23 8.426-.016.081-.023-5.16-.266-6.387-.508a4.783 4.783 0 0 1-1.407-.505c-.283.315-.565.7-.632 1.029zm9.684 1.144s2.89 2.124 1.627 2.149c-1.263.025-1.627-2.149-1.627-2.149z" fill="#000"/><path d="M111.085 39.992c-.117.3-.02.35-.088.62a2.05 2.05 0 0 0-.056.764c.035.362-.192.792-.011 1.1a.912.912 0 0 1 .072.142.425.425 0 0 1-.027.239.412.412 0 0 1-.154.184c-.121.096-.266.168-.341.313-.176.344.163.832 0 1.189a.687.687 0 0 1-.243.265c-.237.172-.497.31-.772.408-.182-.285.02-.704-.138-1.006a1.355 1.355 0 0 0-.326-.333c-.257-.245-.396-.625-.463-.996-.067-.37-.076-.752-.15-1.121-.119-.608-.404-1.176-.468-1.79a.262.262 0 0 1 .019-.166.207.207 0 0 1 .165-.072c.56-.048 1.173.102 1.711 0 .504-.09.834-.207 1.27.26z" fill="#3F2B3B"/><path opacity=".1" d="M105.207 40.947c.167.776.725 2.931 1.917 3.891 1.466 1.184 2.575 4.25 2.575 4.25l-.336.798c.257-.072.501-.187.721-.339.337-.241-.795-5.023-.795-5.023l-.192-2.173s-.432-1.449-1.01-1.835c-.559-.374-2.727.377-2.88.431z" fill="#000"/><path d="M105.301 40.754c.167.775.725 2.93 1.915 3.89 1.468 1.184 2.575 4.252 2.575 4.252l-.337.796c.258-.071.502-.185.722-.337.337-.242-.794-5.023-.794-5.023l-.192-2.17s-.434-1.45-1.011-1.836c-.576-.387-2.725.374-2.878.428z" fill="#FFD7E3"/><path d="M105.729 38.363l-2.389.815a.22.22 0 0 0-.137.279l1.873 5.53a.218.218 0 0 0 .277.137l2.389-.814a.22.22 0 0 0 .137-.28l-1.872-5.53a.22.22 0 0 0-.278-.137z" fill="#464A5F"/><path d="M105.624 38.364l-2.389.815a.22.22 0 0 0-.137.279l1.872 5.53a.219.219 0 0 0 .278.138l2.389-.816a.221.221 0 0 0 .137-.278l-1.873-5.53a.218.218 0 0 0-.277-.138z" fill="#D4DFEC"/><path d="M104.973 40.995a.465.465 0 1 0-.465-.467c0 .258.208.467.465.467z" fill="#939498"/><path d="M101.879 49.933v.169l1.802-.93.186-.911.323-1.589s3.656-5.384 1.224-5.455c-2.432-.071-2.446 4.055-2.307 4.513.103.33-.57 2.342-.96 3.46-.157.442-.268.743-.268.743z" fill="#C77486"/><path opacity=".1" d="M100.289 53.362s-.625-4.975.963-5.844l1.588-.869s-1.299 2.922-.773 3.03c.527.11 2.069-1.242 2.069-1.242v3.138l-3.847 1.787z" fill="#000"/><path opacity=".1" d="M101.879 49.934v.17l1.802-.93.186-.912c-.491.387-1.337 1.01-1.701.937a.099.099 0 0 1-.022-.008c-.154.442-.265.743-.265.743z" fill="#000"/><path d="M100.2 53.17s-.626-4.975.963-5.844l1.587-.87s-1.299 2.923-.773 3.032c.527.108 2.069-1.245 2.069-1.245v3.14L100.2 53.17z" fill="#FFD7E3"/><path d="M109.188 49.173a.493.493 0 0 0 .493-.495.494.494 0 1 0-.986 0c0 .274.221.495.493.495z" fill="#FEFFFF"/><path d="M92.668 72.2s4.789-.371 6.58-3.845c0 0 3.648-7.258 6.614-8.065 2.966-.806 8.466-2.605 10.752-5.396 2.286-2.791 3.245-4.931 3.245-4.931s.587 2.264-1.266 4.931c-1.854 2.667-2.535 6.76-3.833 11.104-1.298 4.343-1.792 6.073-4.14 6.332-1.77.187-11.13.093-15.604 0-1.462-.035-2.348-.13-2.348-.13z" fill="#2C7BE5"/><path opacity=".2" d="M92.668 72.2s4.789-.371 6.58-3.845c0 0 3.648-7.258 6.614-8.065 2.966-.806 8.466-2.605 10.752-5.396 2.286-2.791 3.245-4.931 3.245-4.931s.587 2.264-1.266 4.931c-1.854 2.667-2.535 6.76-3.833 11.104-1.298 4.343-1.792 6.073-4.14 6.332-1.77.187-11.13.093-15.604 0-1.462-.035-2.348-.13-2.348-.13z" fill="#fff"/><path d="M93.867 72.209s4.578-.36 6.291-3.724c0 0 3.485-7.027 6.32-7.808 2.835-.78 8.092-2.523 10.278-5.225 2.186-2.703 3.101-4.775 3.101-4.775s.562 2.197-1.211 4.775c-1.773 2.578-2.421 6.546-3.662 10.746s-1.713 5.886-3.958 6.126c-1.691.18-10.637.09-14.915 0-1.398-.025-2.244-.115-2.244-.115z" fill="#2C7BE5"/><path d="M120.452 49.691s-2.215.145-2.888.411c-.358.141-1.269.259-2.044.345a4.135 4.135 0 0 0-2.832 1.535c-.631.803-.949 1.794.301 2.542 2.502 1.498 5.535-2.752 5.535-2.752l2.646-.388-.718-1.693z" fill="#C77486"/><path d="M119.391 49.488c.865-.061 1.828 3.972 1.828 3.972s1.587-.339 2.55-.822c.963-.483 3.417-1.255 3.417-1.255a5.836 5.836 0 0 0 1.972-.677c1.058-.579-.578-2.221-.818-2.655-.239-.434-1.78-1.353-1.78-1.353l-1.204-.242-5.436.967 3.512.82-.438.136-1.178.362-2.425.747z" fill="#FFD7E3"/><path d="M121.816 48.741l1.039 2.787c2.094 1.641 1.931-.646 1.931-.646l-1.785-2.508-1.185.367z" fill="#FFD7E3"/><path opacity=".1" d="M122 48.834l1.039 2.787c2.093 1.641 1.931-.646 1.931-.646l-1.786-2.508-1.184.367z" fill="#000"/><path d="M124.118 51.879a.494.494 0 1 0-.002-.989.494.494 0 0 0 .002.989z" fill="#FEFFFF"/><path opacity=".1" d="M108.483 33.59a.682.682 0 0 1-.557-.66c0-.377.323-.724.238-1.092-.043-.19-.191-.348-.219-.541-.049-.35.296-.614.597-.795l2.672-1.604c.637-.387 1.336-.775 2.071-.684.678.086 1.238.577 1.658 1.12.42.543.745 1.163 1.215 1.656.858.913 2.106 1.353 3.039 2.19.263.217.47.495.605.81.386 1.052-.572 2.138-.566 3.262 0 .985.748 1.802 1.519 2.41.329.259.697.543.763.957.051.319-.094.63-.184.94-.461 1.58.543 3.252 1.831 4.265.387.303.82.606.961 1.075.208.687-.308 1.36-.747 1.93-.772.994-1.416 2.127-1.601 3.373-.186 1.246.149 2.618 1.085 3.46-.698.112-1.416.224-2.104.064-.687-.16-1.345-.661-1.47-1.358-.135-.75.327-1.651-.176-2.224-.386-.434-1.061-.353-1.634-.429a2.666 2.666 0 0 1-1.548-.835 2.687 2.687 0 0 1-.696-1.62c-.037-.852.34-1.657.632-2.455.293-.799.505-1.71.152-2.485-.569-1.249-2.421-1.77-2.501-3.14-.048-.804.588-1.625.257-2.36-.22-.495-.784-.715-1.204-1.052-.663-.53-.984-1.367-1.417-2.096a9.953 9.953 0 0 0-1.251-1.611c-.15-.163-.436-.59-.663-.646-.265-.053-.47.218-.757.174z" fill="#000"/><path d="M108.68 33.492a.679.679 0 0 1-.559-.657c0-.38.323-.725.24-1.094-.044-.19-.192-.347-.219-.541-.049-.349.294-.614.596-.795l2.672-1.604c.636-.38 1.335-.775 2.07-.684.68.086 1.239.577 1.658 1.12.42.543.747 1.163 1.216 1.658.857.912 2.107 1.351 3.038 2.188.264.217.471.495.605.81.386 1.053-.572 2.14-.565 3.263.006.984.749 1.801 1.519 2.41.328.258.698.542.763.956.05.32-.095.63-.185.94-.461 1.581.544 3.252 1.832 4.265.386.304.82.606.961 1.075.208.689-.307 1.36-.746 1.93-.773.994-1.416 2.128-1.603 3.373-.187 1.246.151 2.62 1.085 3.46-.696.112-1.416.226-2.102.066-.686-.16-1.345-.663-1.471-1.36-.129-.75.328-1.651-.176-2.223-.386-.435-1.06-.354-1.633-.43a2.67 2.67 0 0 1-2.244-2.455c-.037-.852.339-1.657.632-2.455.294-.799.503-1.703.151-2.479-.568-1.248-2.421-1.767-2.502-3.139-.046-.803.59-1.625.258-2.36-.22-.495-.784-.715-1.206-1.052-.663-.53-.984-1.367-1.417-2.096a9.866 9.866 0 0 0-1.251-1.61c-.15-.165-.436-.59-.664-.647-.263-.059-.466.212-.753.167z" fill="#3F2B3B"/><path opacity=".1" d="M108.414 31.779c-.044-.191-.192-.348-.219-.541-.049-.35.295-.614.597-.795l.062-.038a.476.476 0 0 0-.033.259c.027.194.175.351.219.541.083.368-.236.715-.24 1.092a.681.681 0 0 0 .559.659c.287.044.49-.227.753-.168.228.052.515.478.664.646a9.967 9.967 0 0 1 1.252 1.612c.437.728.756 1.566 1.416 2.096.422.337.986.557 1.206 1.051.328.736-.308 1.551-.258 2.361.08 1.37 1.931 1.89 2.5 3.14.353.774.142 1.679-.15 2.484-.292.805-.67 1.605-.632 2.455a2.682 2.682 0 0 0 2.244 2.456c.572.076 1.251 0 1.633.43.504.571.041 1.472.175 2.222.129.697.784 1.198 1.472 1.359.352.076.713.1 1.072.068.121.157.257.302.406.433-.697.114-1.416.226-2.103.066-.686-.16-1.345-.662-1.47-1.36-.129-.75.327-1.651-.176-2.222-.386-.436-1.061-.353-1.634-.43a2.666 2.666 0 0 1-1.548-.834 2.687 2.687 0 0 1-.696-1.62c-.037-.852.339-1.658.632-2.456.294-.797.505-1.71.151-2.485-.568-1.248-2.42-1.767-2.5-3.137-.048-.805.588-1.626.257-2.362-.22-.494-.784-.714-1.206-1.05-.663-.532-.982-1.37-1.416-2.098a9.947 9.947 0 0 0-1.251-1.61c-.151-.163-.437-.59-.663-.646-.258-.06-.467.212-.755.168a.684.684 0 0 1-.558-.66c.002-.372.322-.718.238-1.086zm-18.25 38.624s2.503.96 3.924.434c1.421-.528 4.943-2.078 4.943-2.078s-5.932.372-8.867 1.644z" fill="#000"/><path d="M68.885 43.864s-.591 2.762 2.04 3.09l.161-.308s-2.041-1.922-2.201-2.782z" fill="#2C7BE5"/><path d="M71.925 46.625l-.612.13-.062.012s-1.63-1.33-1.61-4.296c.216.437.475.85.772 1.236.654.861 1.39 2.007 1.512 2.918z" fill="#2C7BE5"/><path d="M72.134 46.91a.385.385 0 0 1-.328.043c-1.57-.368-1.04-5.505-1.04-5.505.087.042.183.694.543 1.538.628 1.482 1.325 3.552.825 3.923zm3.476-3.046s.102 2.762-2.528 3.09l-.164-.308s2.53-1.922 2.692-2.782z" fill="#2C7BE5"/><path d="M74.855 42.472c.02 2.972-2.1 4.296-2.1 4.296l-.061-.013-.612-.129c.121-.91.857-2.057 1.504-2.916a6.656 6.656 0 0 1 1.269-1.238z" fill="#2C7BE5"/><path d="M72.687 46.64a.961.961 0 0 1-.35.27.666.666 0 0 1-.13.043c-.385.09-.52-.19-.497-.664.036-.846.565-2.313 1.041-3.412.342-.79.901-1.389.986-1.429-.001 0-.024 4-1.05 5.192z" fill="#2C7BE5"/><path d="M72.252 39.648s-1.754 6.24-.245 7.183c1.509.942.632-6.63.245-7.184z" fill="#2C7BE5"/><path opacity=".1" d="M68.885 43.864s-.591 2.762 2.04 3.09l.161-.308s-2.041-1.922-2.201-2.782z" fill="#000"/><path opacity=".1" d="M71.925 46.625l-.612.13-.062.012s-1.63-1.33-1.61-4.296c.216.437.475.85.772 1.236.654.861 1.39 2.007 1.512 2.918z" fill="#000"/><path opacity=".1" d="M72.134 46.91a.385.385 0 0 1-.328.043c-1.57-.368-1.04-5.505-1.04-5.505.087.042.183.694.543 1.538.628 1.482 1.325 3.552.825 3.923zm3.476-3.046s.102 2.762-2.528 3.09l-.164-.308s2.53-1.922 2.692-2.782z" fill="#000"/><path opacity=".1" d="M74.855 42.472c.02 2.972-2.1 4.296-2.1 4.296l-.061-.013-.612-.129c.121-.91.857-2.057 1.504-2.916a6.656 6.656 0 0 1 1.269-1.238z" fill="#000"/><path opacity=".1" d="M72.687 46.64a.961.961 0 0 1-.35.27.666.666 0 0 1-.13.043c-.385.09-.52-.19-.497-.664.036-.846.565-2.313 1.041-3.412.342-.79.901-1.389.986-1.429-.001 0-.024 4-1.05 5.192z" fill="#000"/><path opacity=".1" d="M72.252 39.648s-1.754 6.24-.245 7.183c1.509.942.632-6.63.245-7.184z" fill="#000"/><path d="M68.886 43.864s-.346 2.762 2.284 3.09l.162-.308s-2.286-1.922-2.446-2.782z" fill="#2C7BE5"/><path d="M72.17 46.625l-.612.13-.062.012s-1.876-1.33-1.855-4.296c0 0 .48.517 1.03 1.236.64.861 1.376 2.007 1.498 2.918z" fill="#2C7BE5"/><path opacity=".1" d="M72.165 46.625l-.611.13c-.581-.518-.81-1.845-.894-3.048.648.86 1.383 2.007 1.505 2.918z" fill="#000"/><path d="M72.37 46.91a.385.385 0 0 1-.328.043c-1.57-.368-1.288-5.505-1.288-5.505.088.042.428.694.788 1.538.636 1.482 1.332 3.552.828 3.923zm3.24-3.046s.346 2.762-2.284 3.09l-.162-.308s2.285-1.922 2.446-2.782z" fill="#2C7BE5"/><path d="M74.86 42.472c.02 2.972-1.855 4.296-1.855 4.296l-.061-.013-.612-.129c.121-.91.857-2.057 1.504-2.916a17.55 17.55 0 0 1 1.024-1.238z" fill="#2C7BE5"/><path opacity=".1" d="M73.836 43.713c-.079 1.121-.284 2.356-.78 2.932a.954.954 0 0 1-.112.115l-.612-.13c.121-.916.857-2.062 1.504-2.917z" fill="#000"/><path d="M72.933 46.64a.961.961 0 0 1-.35.27.666.666 0 0 1-.13.043c-.385.09-.52-.19-.497-.664.036-.846.565-2.313 1.041-3.412.343-.79.658-1.389.742-1.429-.002 0 .22 4-.806 5.192z" fill="#2C7BE5"/><path opacity=".1" d="M72.375 46.91a.434.434 0 0 1-.247-.08c-.739-.462-.754-2.196-.578-3.844.633 1.483 1.33 3.553.825 3.924z" fill="#000"/><path opacity=".1" d="M72.934 46.64c-.085.186-.2.284-.35.27a.477.477 0 0 1-.21-.08 1.119 1.119 0 0 1-.417-.54c.036-.847.565-2.314 1.042-3.412.167 1.523.225 3.139-.065 3.763z" fill="#000"/><path d="M72.249 39.648s-1.51 6.24 0 7.183c1.508.942.387-6.63 0-7.184z" fill="#2C7BE5"/><path d="M75.143 46.523h-6.28v1.045h.96l.023.122.383 2.027h3.65l.385-2.027.023-.122h.856v-1.045z" fill="#4B4770"/><path opacity=".1" d="M75.143 46.523h-6.28v1.045h.96l.023.122.383 2.027h3.65l.385-2.027.023-.122h.856v-1.045z" fill="#000"/><path d="M74.616 47.137l-.104.553-.385 2.026h-3.65l-.383-2.026-.106-.553h4.628z" fill="#4B4770"/><path opacity=".1" d="M74.616 47.137l-.104.553h-4.418l-.106-.553h4.628z" fill="#000"/><path d="M75.384 46.523h-6.278v1.045h6.278v-1.045z" fill="#4B4770"/><path d="M21.308 85.6a2.18 2.18 0 0 0-.293.554c-.019.048-.036.103-.054.156a.6.6 0 0 0-.101-.036 1.451 1.451 0 0 0-.46-.039c0-.06.007-.129.01-.19.017-.68-.063-1.63-.709-1.227-.622.387-.179 1.034.221 1.447l.104.102c-.365.258-.434.87-.496 1.504-.062.635-.598 1.327-.95 1.724l-.1.109a1.305 1.305 0 0 0-1.03-.268l-.048-.174c-.289-1.046-.887-2.856-1.65-3.253.032-.04.065-.081.1-.13.324-.424.689-1.057.15-1.219-.54-.161-.588.55-.558 1.08 0 .068.005.13.015.19a.789.789 0 0 0-.565.277l-.082-.1c-.438-.516-1.241-1.34-1.483-.718-.227.579.48 1.33.977 1.766l.03.028c-.334 1.358 1.123 2.465 1.907 2.95l.1.062c-1.08 1.279-1.748 3.677-1.748 3.677l3.028.543s2.007-1.74 1.751-3.373h.02c2.006-.403 2.463-2.55 2.15-3.825l.037-.015a2.28 2.28 0 0 0 .928-.706c.553-.787-.625-1.665-1.201-.896z" fill="#2C7BE5"/><path opacity=".1" d="M21.308 85.6a2.18 2.18 0 0 0-.293.554c-.019.048-.036.103-.054.156a.6.6 0 0 0-.101-.036 1.451 1.451 0 0 0-.46-.039c0-.06.007-.129.01-.19.017-.68-.063-1.63-.709-1.227-.622.387-.179 1.034.221 1.447l.104.102c-.365.258-.434.87-.496 1.504-.062.635-.598 1.327-.95 1.724l-.1.109a1.305 1.305 0 0 0-1.03-.268l-.048-.174c-.289-1.046-.887-2.856-1.65-3.253.032-.04.065-.081.1-.13.324-.424.689-1.057.15-1.219-.54-.161-.588.55-.558 1.08 0 .068.005.13.015.19a.789.789 0 0 0-.565.277l-.082-.1c-.438-.516-1.241-1.34-1.483-.718-.227.579.48 1.33.977 1.766l.03.028c-.334 1.358 1.123 2.465 1.907 2.95l.1.062c-1.08 1.279-1.748 3.677-1.748 3.677l3.028.543s2.007-1.74 1.751-3.373h.02c2.006-.403 2.463-2.55 2.15-3.825l.037-.015a2.28 2.28 0 0 0 .928-.706c.553-.787-.625-1.665-1.201-.896z" fill="#000"/><path d="M15.28 86.476l-.354 1.043s-.196-.14-.444-.36c-.497-.435-1.204-1.187-.977-1.766.241-.622 1.045.199 1.482.719.177.204.293.364.293.364zm.748-.594a4.942 4.942 0 0 1-.345.409 5.068 5.068 0 0 1-.063-.548c-.03-.531.025-1.24.557-1.08.532.158.175.789-.15 1.22zm4.567.164a7.55 7.55 0 0 1-.045.616 4.475 4.475 0 0 1-.441-.397c-.4-.416-.843-1.06-.222-1.447.647-.4.726.547.708 1.228zm2.092.448a2.278 2.278 0 0 1-.928.705 2.501 2.501 0 0 1-.312.114l-.42-.588c.044-.194.102-.385.173-.571.07-.198.169-.385.292-.554.58-.77 1.757.11 1.195.894z" fill="#2C7BE5"/><path opacity=".1" d="M14.99 86.108c.177.207.293.367.293.367l-.354 1.043s-.196-.14-.445-.359c.055-.333.192-.647.398-.914.036-.051.074-.095.108-.137zm1.04-.226a4.925 4.925 0 0 1-.346.408 5.043 5.043 0 0 1-.063-.548c.147.003.29.052.408.14z" fill="#000"/><path d="M17.769 90.012l-.88.388a5.309 5.309 0 0 1-.47-.267c-.925-.57-2.786-2.01-1.544-3.704 1.242-1.696 2.288 1.345 2.703 2.832.124.446.19.75.19.75z" fill="#2C7BE5"/><path opacity=".1" d="M20.11 86.265a.73.73 0 0 1 .486-.22 8.13 8.13 0 0 1-.045.616 4.474 4.474 0 0 1-.442-.396zm1.649.935a2.485 2.485 0 0 1-.312.113l-.42-.588c.044-.194.102-.385.173-.57.271.157.471.55.559 1.045z" fill="#000"/><path d="M19.571 91.04a2.41 2.41 0 0 1-.148.027c-2.952.45-.973-1.149-.973-1.149s.129-.13.313-.323c.355-.395.892-1.085.952-1.724.093-.96.201-1.86 1.33-1.597 1.109.261 1.32 4.205-1.474 4.766z" fill="#2C7BE5"/><path d="M19.515 98.417h-5.64v1.489h5.64v-1.489z" fill="#D4DFEC"/><path d="M20.35 93.58h-7.37v5.194h7.37v-5.195z" fill="#D4DFEC"/><path opacity=".1" d="M19.515 98.417h-5.64v1.489h5.64v-1.489z" fill="#000"/><path opacity=".1" d="M20.35 93.58h-7.37v5.194h7.37v-5.195z" fill="#000"/><path d="M19.886 98.417h-5.64v1.489h5.64v-1.489z" fill="#D4DFEC"/><path opacity=".1" d="M17.58 89.263c.13.444.191.75.191.75l-.88.387a5.445 5.445 0 0 1-.47-.266c.346-.438.735-.77 1.16-.871zm1.991 1.777c-.049.01-.098.019-.148.027-2.952.45-.973-1.15-.973-1.15s.129-.128.313-.322c.55.442.779.94.808 1.444z" fill="#000"/><path d="M14.773 93.874s1.653-5.944 3.97-4.11c2.318 1.836-.942 4.653-.942 4.653l-3.028-.543z" fill="#2C7BE5"/><path opacity=".1" d="M15.607 87.547a.186.186 0 1 0 0-.371.186.186 0 0 0 0 .371zm-.015.868a.186.186 0 1 0-.001-.371.186.186 0 0 0 0 .371zm5.378-.697a.186.186 0 1 0 0-.372.186.186 0 0 0 0 .372zm-4.331 4.45a.186.186 0 1 0-.001-.371.186.186 0 0 0 0 .371zm3.941-3.008a.186.186 0 1 0 0-.372.186.186 0 0 0 0 .371zm-1.914 1.923a.186.186 0 1 0 0-.371.186.186 0 0 0 0 .371zm-2.426-3.164a.186.186 0 1 0 0-.371.186.186 0 0 0 0 .371zm4.219.356a.186.186 0 1 0 0-.371.186.186 0 0 0 0 .371zm-.633 1.443a.186.186 0 1 0 0-.372.186.186 0 0 0 0 .372zm-1.949 2.31a.186.186 0 1 0 0-.371.186.186 0 0 0 0 .371zm-.403-.914a.186.186 0 1 0 0-.371.186.186 0 0 0 0 .371zm-.957-2.062a.186.186 0 1 0 0-.372.186.186 0 0 0 0 .372zm3.369 9.365h-5.64v.544h5.64v-.544z" fill="#000"/><path d="M20.72 93.58h-7.368v5.194h7.368v-5.195z" fill="#D4DFEC"/><path opacity=".1" d="M18.127 92.866a.186.186 0 1 0 0-.371.186.186 0 0 0 0 .371zm-1.113.233a.186.186 0 1 0-.001-.372.186.186 0 0 0 0 .372z" fill="#000"/><path d="M81.25 51.266c0 .56-1.201 1.221-2.684 1.221s-2.683-.66-2.683-1.221c0-.56 1.2-.813 2.683-.813 1.481 0 2.684.25 2.684.813z" fill="#E8EAF2"/><path opacity=".1" d="M81.25 51.266c0 .56-1.201 1.221-2.684 1.221s-2.683-.66-2.683-1.221c0-.56 1.2-.813 2.683-.813 1.481 0 2.684.25 2.684.813z" fill="#000"/><path d="M78.567 52.282c1.482 0 2.684-.455 2.684-1.017 0-.562-1.202-1.017-2.684-1.017-1.482 0-2.684.455-2.684 1.017 0 .562 1.202 1.017 2.684 1.017z" fill="#E8EAF2"/><path opacity=".1" d="M78.569 51.84c.838 0 1.517-.257 1.517-.575 0-.317-.68-.575-1.517-.575-.839 0-1.518.258-1.518.576 0 .317.68.575 1.518.575z" fill="#000"/><path d="M80.762 50.044c-.257.667-.658.862-.97.905-.158.02-.318.003-.468-.048l.186-.398a.627.627 0 0 0 .358 0c.163-.051.345-.187.47-.517.196-.506-.05-.58-.22-.577a.676.676 0 0 0-.105.01l.147-.314a1 1 0 0 1 .147-.026c.278-.027.82.026.455.965z" fill="#FFD7E3"/><path d="M79.58 51.437c-1.046.546-2.072 0-2.072 0l.015-.152.01-.113 2.02-.04.016.182.01.123z" fill="#F1CEC8"/><path opacity=".1" d="M79.868 50.498c-.015.151-.04.301-.076.448-.158.02-.318.004-.468-.047l.186-.398a.626.626 0 0 0 .358-.003zm.442-1.418a.435.435 0 0 1-.058.111l-.015.023a2.5 2.5 0 0 0-.117.195.664.664 0 0 0-.104.01l.146-.314c.049-.012.098-.021.147-.026zm-.741 2.234c-.358.192-1.7.248-2.046-.029l.01-.113 2.02-.04.016.182z" fill="#000"/><path d="M80.214 49.192l-.015.022a2.008 2.008 0 0 0-.34.987c-.063.872-.192.959-.206.996-.104.265-1.907.369-2.177 0-.224-.305-.442-.965-.341-1.336.054-.2-.06-.42-.175-.581a.449.449 0 0 1 .12-.64c.514-.33 1.416-.347 1.416-.347.772-.06 1.266.09 1.568.258l.038.023a.444.444 0 0 1 .11.622l.002-.004z" fill="#FFD7E3"/><path opacity=".1" d="M78.54 49.432c.756 0 1.369-.145 1.369-.325 0-.179-.613-.324-1.369-.324-.755 0-1.368.145-1.368.325 0 .179.613.324 1.368.324z" fill="#000"/><path d="M78.54 49.471c.756 0 1.369-.145 1.369-.324 0-.18-.613-.325-1.369-.325-.755 0-1.368.145-1.368.325 0 .179.613.324 1.368.324z" fill="#42312E"/><path opacity=".2" d="M78.83 48.942s-.983.033-.954.388c.287-.195.613-.327.955-.388zm.275.09s-.586 0-.493.294c0 0 .136-.022.117-.097-.02-.075.376-.155.376-.155v-.042z" fill="#fff"/><path d="M77.016 48.942s-.039.605 1.496.572c1.534-.034 1.526-.435 1.544-.572h-.083s-.02.494-1.434.481c-1.415-.013-1.454-.48-1.454-.48h-.07z" fill="#F6E2DF"/><path opacity=".1" d="M80.279 48.844l-.926.496a.087.087 0 0 1-.11-.023l-.015-.02a.114.114 0 0 1-.023-.09.115.115 0 0 1 .05-.077l.847-.54c.088.06.15.151.177.254z" fill="#000"/><path d="M79.257 49.1l2.403-1.53a.36.36 0 0 1 .18-.057c.121 0 .292.02.239.214a.364.364 0 0 1-.182.221l-2.539 1.362a.087.087 0 0 1-.11-.022l-.015-.02a.118.118 0 0 1-.009-.134.116.116 0 0 1 .033-.035z" fill="#E8EAF2"/><path opacity=".1" d="M79.257 49.1l2.403-1.53a.36.36 0 0 1 .18-.057c.121 0 .292.02.239.214a.364.364 0 0 1-.182.221l-2.539 1.362a.087.087 0 0 1-.11-.022l-.015-.02a.118.118 0 0 1-.009-.134.116.116 0 0 1 .033-.035z" fill="#000"/><path d="M79.257 49.081l2.403-1.529a.36.36 0 0 1 .18-.058c.121 0 .292.02.239.215a.365.365 0 0 1-.182.22l-2.539 1.363a.088.088 0 0 1-.11-.022l-.015-.02a.118.118 0 0 1-.025-.09.116.116 0 0 1 .049-.079z" fill="#E8EAF2"/><path opacity=".1" d="M79.123 49.124s.257-.056.222.013c-.034.068.111.154.111.154s-.265.063-.305.024c-.04-.039-.028-.191-.028-.191z" fill="#000"/><path d="M79.107 49.14s.258-.054.223.013.11.155.11.155-.265.063-.305.024c-.04-.038-.028-.192-.028-.192z" fill="#42312E"/><path d="M78.698 46.457a.952.952 0 0 0-.23.429c-.019.149-.014.3.015.447.01.1.028.2.051.3.014.057.052.119.079.08 0-.14-.03-.277-.023-.416a.955.955 0 0 1 .128-.411 2.08 2.08 0 0 0 .175-.36c.02-.062.094-.61-.009-.518-.02.02-.045.2-.064.245a.904.904 0 0 1-.122.204zm.044.903c.008.05.05.088.07.136a.3.3 0 0 1 .016.094.692.692 0 0 1-.068.455.315.315 0 0 0 .173-.234.808.808 0 0 0 .023-.157c.002-.05.002-.101 0-.152 0-.076.023-.273-.07-.31-.095-.038-.144.095-.144.167z" fill="#F2DCDC"/><path opacity=".1" d="M77.156 49.753a.577.577 0 0 0 .441.199s-.311.047-.464-.054l.023-.145z" fill="#000"/><path d="M50.419 44.075v6.229l-6.43.186v-6.23l6.43-.186z" fill="#464A5F"/><path opacity=".1" d="M50.385 49.525l.034.966h-6.43l-.012-.593 6.408-.373z" fill="#000"/><path d="M52.386 50.61l-10.003.371a.985.985 0 0 1 .98-.983l8.047-.372a.978.978 0 0 1 .98.983h-.005zm12.644-6.639l-35.455 1.117a.618.618 0 0 1-.622-.623V23.08a.624.624 0 0 1 .622-.623l35.455-1.116a.618.618 0 0 1 .622.623v21.377a.628.628 0 0 1-.383.581.618.618 0 0 1-.24.048z" fill="#464A5F"/><path d="M64.802 42.465l-35.075 1.116v-18.48l35.075-1.119v18.483z" fill="#2C7BE5"/><path d="M47.2 23.582c.17 0 .309-.137.309-.306a.308.308 0 0 0-.31-.306.308.308 0 0 0-.308.306c0 .17.138.306.309.306z" fill="#fff"/><path opacity=".1" d="M50.41 45.032l-6.41.186v-.122l6.41-.186v.122z" fill="#000"/><path opacity=".2" d="M64.822 24.588l-35.1 1.116v-.638l35.1-1.117v.639z" fill="#000"/><path d="M10.39 49.976l.342.619 11.1-2.362-.438-.7-11.003 2.443z" fill="#464A5F"/><path d="M9.06 50.578l-1.68-10.01a.32.32 0 0 1 .279-.37l12.745-1.365a.317.317 0 0 1 .349.275l1.192 8.767-12.886 2.703z" fill="#464A5F"/><path opacity=".1" d="M9.06 50.578l-1.68-10.01a.32.32 0 0 1 .279-.37l12.745-1.365a.317.317 0 0 1 .349.275l1.192 8.767-12.886 2.703z" fill="#000"/><path d="M9.256 50.578l-1.681-10.01a.321.321 0 0 1 .28-.37L20.6 38.832a.317.317 0 0 1 .349.275l1.192 8.767-12.885 2.703z" fill="#464A5F"/><path d="M8.46 41.016l1.381 8.504 11.522-2.379-1.071-7.558L8.46 41.016z" fill="#2C7BE5"/><path d="M10.665 50.4l-.08-.163-1.526.341 3.886 5.96a.501.501 0 0 0 .56.208l13.646-3.981a.502.502 0 0 0 .329-.667.503.503 0 0 0-.166-.22l-5.288-4.02-1.103.259.047.114-10.305 2.17z" fill="#9C9CA1"/><path opacity=".1" d="M10.665 50.4l-.08-.163-1.526.341 3.886 5.96a.501.501 0 0 0 .56.208l13.646-3.981a.502.502 0 0 0 .329-.667.503.503 0 0 0-.166-.22l-5.288-4.02-1.103.259.047.114-10.305 2.17z" fill="#000"/><path d="M10.86 50.4l-.08-.163-1.526.341 3.885 5.96a.503.503 0 0 0 .561.208l13.646-3.981a.503.503 0 0 0 .164-.886l-5.289-4.02-1.103.258.049.114L10.86 50.4z" fill="#9C9CA1"/><path opacity=".1" d="M16.949 52.84l4.385-1.143a.088.088 0 0 1 .078.02l1.948 1.773a.086.086 0 0 1-.034.145l-4.634 1.375a.087.087 0 0 1-.089-.027l-1.697-2.004a.086.086 0 0 1-.015-.08.087.087 0 0 1 .058-.059z" fill="#000"/><path d="M17.045 52.743l4.386-1.148a.084.084 0 0 1 .079.019l1.947 1.773a.086.086 0 0 1 .005.121.085.085 0 0 1-.038.024l-4.635 1.375a.086.086 0 0 1-.088-.028l-1.698-1.992a.085.085 0 0 1-.023-.085.084.084 0 0 1 .065-.059z" fill="#939498"/><g opacity=".1" fill="#000"><path opacity=".1" d="M10.873 51.23l.197.32a.04.04 0 0 0 .04.016l.665-.149a.04.04 0 0 0 .027-.023.038.038 0 0 0-.004-.036l-.22-.308a.038.038 0 0 0-.04-.015l-.643.138a.038.038 0 0 0-.022.057zm.867-.183l.197.319a.039.039 0 0 0 .04.017l.665-.15a.039.039 0 0 0 .029-.041.04.04 0 0 0-.007-.017l-.22-.308a.037.037 0 0 0-.039-.016l-.643.139a.038.038 0 0 0-.025.023.039.039 0 0 0 .003.034zm.841-.183l.197.318a.038.038 0 0 0 .04.017l.664-.149a.038.038 0 0 0 .028-.023.038.038 0 0 0-.004-.036l-.22-.301a.041.041 0 0 0-.04-.016l-.643.139a.039.039 0 0 0-.022.052zm.831-.174l.194.314a.04.04 0 0 0 .043.018l.659-.147a.041.041 0 0 0 .024-.063l-.216-.304a.041.041 0 0 0-.043-.016l-.636.137a.041.041 0 0 0-.026.06zm-.067.479l.197.318c.004.007.01.012.018.015a.037.037 0 0 0 .023.002l.665-.149a.037.037 0 0 0 .028-.041.037.037 0 0 0-.006-.017l-.22-.309a.036.036 0 0 0-.04-.014l-.643.138a.04.04 0 0 0-.025.023.039.039 0 0 0 .003.034zm-.858.183l.197.318a.036.036 0 0 0 .04.017l.665-.149a.038.038 0 0 0 .026-.024.038.038 0 0 0 .002-.018.038.038 0 0 0-.006-.017l-.22-.307a.037.037 0 0 0-.039-.014l-.643.137a.038.038 0 0 0-.022.057zm.558.391l.197.319a.038.038 0 0 0 .04.017l.665-.149a.039.039 0 0 0 .028-.042.038.038 0 0 0-.007-.017l-.22-.308a.037.037 0 0 0-.038-.015l-.644.138a.037.037 0 0 0-.025.023.038.038 0 0 0 .004.034zm.793.342l.197.318a.039.039 0 0 0 .04.018l.664-.149a.038.038 0 0 0 .027-.024.04.04 0 0 0-.004-.036l-.22-.307a.035.035 0 0 0-.017-.014.035.035 0 0 0-.021-.001l-.644.138a.039.039 0 0 0-.015.008.039.039 0 0 0-.01.015.039.039 0 0 0-.003.017c0 .006.003.012.006.017zm.135.553l.318.401a.039.039 0 0 0 .04.013l.669-.175a.037.037 0 0 0 .027-.025.038.038 0 0 0-.007-.036l-.329-.403a.038.038 0 0 0-.039-.013l-.659.179a.036.036 0 0 0-.016.009.038.038 0 0 0-.012.033.039.039 0 0 0 .008.017zm.875-.22l.326.413a.04.04 0 0 0 .04.012l.874-.243a.037.037 0 0 0 .018-.06l-.329-.405a.039.039 0 0 0-.04-.013l-.87.236a.039.039 0 0 0-.02.06zm-1.733.432l.318.401a.04.04 0 0 0 .04.013l.67-.174a.036.036 0 0 0 .016-.01.038.038 0 0 0 .01-.034.037.037 0 0 0-.007-.017l-.329-.4a.035.035 0 0 0-.017-.012.035.035 0 0 0-.021 0l-.66.178a.037.037 0 0 0-.02.056zm-.903.237l.318.4a.037.037 0 0 0 .039.012l.67-.174a.039.039 0 0 0 .028-.044.038.038 0 0 0-.008-.017l-.33-.403a.037.037 0 0 0-.039-.013l-.659.178a.038.038 0 0 0-.02.06zm2.032-2.599l.194.314a.04.04 0 0 0 .043.018l.659-.148a.042.042 0 0 0 .024-.063l-.216-.307a.04.04 0 0 0-.041-.016l-.644.137a.041.041 0 0 0-.017.01.041.041 0 0 0-.01.037.04.04 0 0 0 .008.018zm-.054.489l.195.314a.04.04 0 0 0 .043.018l.659-.147a.04.04 0 0 0 .029-.025.042.042 0 0 0-.005-.038l-.216-.304a.04.04 0 0 0-.041-.016l-.644.137a.04.04 0 0 0-.025.026.04.04 0 0 0 .006.035zm.863-.675l.194.314a.04.04 0 0 0 .044.018l.66-.147a.041.041 0 0 0 .028-.026.06.06 0 0 0 .001-.019.041.041 0 0 0-.007-.018l-.216-.304a.04.04 0 0 0-.04-.015l-.638.137a.04.04 0 0 0-.032.042.04.04 0 0 0 .006.018zm2.361-.517l.274.292a.034.034 0 0 0 .031.01l.589-.138a.032.032 0 0 0 .024-.023.033.033 0 0 0-.009-.032l-.309-.292a.03.03 0 0 0-.014-.008.03.03 0 0 0-.015 0l-.554.137a.034.034 0 0 0-.017.054zm.752-.173l.273.292a.03.03 0 0 0 .03.009l.589-.136a.032.032 0 0 0 .015-.055l-.309-.294a.035.035 0 0 0-.03-.007l-.553.137a.032.032 0 0 0-.024.04c.002.005.005.01.009.014zm-.736.647l.274.292a.032.032 0 0 0 .014.01.031.031 0 0 0 .017 0l.59-.13a.032.032 0 0 0 .024-.024.032.032 0 0 0-.01-.032l-.308-.292a.034.034 0 0 0-.03-.009l-.554.138a.033.033 0 0 0-.012.008.033.033 0 0 0-.005.039zm-.778.182l.257.28a.04.04 0 0 0 .039.012l.569-.13a.041.041 0 0 0 .02-.07l-.296-.28a.04.04 0 0 0-.037-.008l-.537.129a.04.04 0 0 0-.025.03.043.043 0 0 0 .01.038zm.59.879l.257.28a.043.043 0 0 0 .039.011l.569-.13a.04.04 0 0 0 .03-.05.04.04 0 0 0-.01-.018l-.296-.279a.044.044 0 0 0-.037-.01l-.537.13a.04.04 0 0 0-.026.029.042.042 0 0 0 .01.037zm-.806.184l.258.28a.04.04 0 0 0 .039.01l.569-.128a.04.04 0 0 0 .03-.05.04.04 0 0 0-.011-.019l-.285-.283a.04.04 0 0 0-.037-.01l-.537.129a.04.04 0 0 0-.039.05.04.04 0 0 0 .013.021zm-.814.203l.257.279a.04.04 0 0 0 .039.012l.57-.13a.041.041 0 0 0 .03-.03.042.042 0 0 0-.011-.04l-.296-.279a.038.038 0 0 0-.037-.01l-.537.13a.04.04 0 0 0-.027.03.04.04 0 0 0 .012.038zm-.869.173l.266.283a.04.04 0 0 0 .036.01l.575-.129a.037.037 0 0 0 .017-.064l-.299-.283a.037.037 0 0 0-.035-.01l-.542.13a.038.038 0 0 0-.027.026.038.038 0 0 0 .01.037zm1.677-.885l.257.28a.04.04 0 0 0 .037.01l.57-.128a.04.04 0 0 0 .03-.03.04.04 0 0 0-.012-.04l-.293-.278a.044.044 0 0 0-.037-.01l-.537.129a.04.04 0 0 0-.026.03.042.042 0 0 0 .01.037zm-.79.183l.258.278a.04.04 0 0 0 .038.013l.57-.13a.04.04 0 0 0 .03-.027.04.04 0 0 0-.011-.04l-.295-.28a.037.037 0 0 0-.038-.01l-.536.13a.04.04 0 0 0-.026.029.04.04 0 0 0 0 .02.04.04 0 0 0 .01.017zm-.845.178l.257.28a.037.037 0 0 0 .038.01l.57-.129a.04.04 0 0 0 .019-.01.04.04 0 0 0 .01-.02.043.043 0 0 0 0-.02.042.042 0 0 0-.01-.02l-.294-.278a.04.04 0 0 0-.038-.01l-.537.13a.039.039 0 0 0-.028.029.04.04 0 0 0 .013.038zm-.863.202l.265.283a.042.042 0 0 0 .036.01l.576-.13a.037.037 0 0 0 .029-.026.038.038 0 0 0-.01-.038l-.3-.283a.041.041 0 0 0-.036-.009l-.542.13a.038.038 0 0 0-.017.01.04.04 0 0 0-.001.053zm3.307-.755l.257.279a.04.04 0 0 0 .039.012l.57-.13a.04.04 0 0 0 .03-.05.04.04 0 0 0-.012-.018l-.294-.28a.04.04 0 0 0-.038-.01l-.537.13a.04.04 0 0 0-.015.067zm-1.375-.158l.257.28a.043.043 0 0 0 .039.01l.57-.129a.04.04 0 0 0 .018-.068l-.295-.28a.038.038 0 0 0-.037-.01l-.536.13a.04.04 0 0 0-.027.05.04.04 0 0 0 .01.017zm3.034-1.218l.286.305a.027.027 0 0 0 .023.008l.609-.142a.023.023 0 0 0 .01-.007.024.024 0 0 0 0-.035l-.323-.305a.02.02 0 0 0-.01-.006.02.02 0 0 0-.012 0l-.571.142a.024.024 0 0 0-.018.017.023.023 0 0 0 .006.023zm.731-.158l.287.305a.025.025 0 0 0 .01.007.025.025 0 0 0 .013 0l.608-.142a.025.025 0 0 0 .011-.041l-.323-.306a.024.024 0 0 0-.022 0l-.573.142a.022.022 0 0 0-.008.005.023.023 0 0 0-.003.03zm.754-.179l.258.283a.023.023 0 0 0 .01.007.021.021 0 0 0 .013 0l.567-.155a.026.026 0 0 0 .01-.042l-.294-.247a.023.023 0 0 0-.02 0l-.536.119a.025.025 0 0 0-.007.007.025.025 0 0 0 0 .028zm.793.263l.257.285a.025.025 0 0 0 .011.007.025.025 0 0 0 .014 0l.566-.155a.025.025 0 0 0 .01-.042l-.293-.247a.02.02 0 0 0-.02 0l-.536.119a.024.024 0 0 0-.012.015.023.023 0 0 0 .003.019zm-.093.517l.248.27a.03.03 0 0 0 .033.008L21.91 50a.033.033 0 0 0 .022-.042.034.034 0 0 0-.01-.015l-.278-.234a.027.027 0 0 0-.027-.008l-.515.115a.032.032 0 0 0-.016.007.033.033 0 0 0-.003.047zm-.648.655l.248.27a.032.032 0 0 0 .032.01l.546-.15a.032.032 0 0 0 .023-.024.033.033 0 0 0-.01-.032l-.278-.235a.03.03 0 0 0-.027-.007l-.515.114a.032.032 0 0 0-.026.021.032.032 0 0 0-.002.018.032.032 0 0 0 .009.015zm-.774.205l.249.269a.03.03 0 0 0 .032.009l.546-.149a.033.033 0 0 0 .022-.042.033.033 0 0 0-.01-.015l-.277-.234a.027.027 0 0 0-.028-.008l-.515.116a.032.032 0 0 0-.026.02.033.033 0 0 0-.001.018.033.033 0 0 0 .008.016zm1.507-.395l.248.27c.005.004.01.007.015.008a.036.036 0 0 0 .017 0l.546-.15a.031.031 0 0 0 .016-.008.032.032 0 0 0-.003-.048l-.277-.234a.037.037 0 0 0-.028-.008l-.515.115a.033.033 0 0 0-.026.04c0 .005.003.01.007.015zm-.128.581l.374.338c.005.003.01.006.015.007h.016l.542-.154A.032.032 0 0 0 22 51.05l-.404-.355a.032.032 0 0 0-.032-.007l-.515.172a.03.03 0 0 0-.021.025.03.03 0 0 0 .002.016.03.03 0 0 0 .01.014zm-1.313-1.195l.258.284a.024.024 0 0 0 .01.007.024.024 0 0 0 .014 0l.567-.155a.025.025 0 0 0 .011-.007.024.024 0 0 0 .006-.011.023.023 0 0 0-.009-.024l-.292-.248a.03.03 0 0 0-.02 0l-.536.12a.023.023 0 0 0-.01.035zm-.731.182l.248.269a.05.05 0 0 0 .015.01.034.034 0 0 0 .017 0l.546-.15a.034.034 0 0 0 .013-.057l-.277-.233a.038.038 0 0 0-.028-.008l-.515.115a.034.034 0 0 0-.026.039.033.033 0 0 0 .007.015zm-.149.521l.25.266c.005.004.01.008.015.01a.03.03 0 0 0 .018-.001l.547-.15a.033.033 0 0 0 .014-.009.033.033 0 0 0 .007-.032.032.032 0 0 0-.01-.014l-.276-.236a.032.032 0 0 0-.029-.006l-.514.114a.032.032 0 0 0-.019.006.034.034 0 0 0-.013.035.033.033 0 0 0 .01.017zm-.773.187l.248.27a.033.033 0 0 0 .034.01l.546-.15a.032.032 0 0 0 .022-.024.032.032 0 0 0-.01-.032l-.277-.235a.032.032 0 0 0-.029-.007l-.515.114a.033.033 0 0 0-.026.039.033.033 0 0 0 .007.015zm.14-.533l.248.27a.03.03 0 0 0 .015.01.03.03 0 0 0 .017-.001l.546-.15a.032.032 0 0 0 .023-.024.033.033 0 0 0-.01-.032l-.278-.236a.03.03 0 0 0-.013-.007.03.03 0 0 0-.014 0l-.515.115a.03.03 0 0 0-.017.006.03.03 0 0 0-.012.033.032.032 0 0 0 .01.016zm.643.826l.248.27a.033.033 0 0 0 .032.01l.546-.15a.032.032 0 0 0 .022-.042.032.032 0 0 0-.01-.014l-.277-.235a.03.03 0 0 0-.027-.007l-.515.114a.033.033 0 0 0-.027.021.033.033 0 0 0 .008.033zm-.756.206l.237.258a.037.037 0 0 0 .04.012l.527-.143a.041.041 0 0 0 .028-.031.04.04 0 0 0-.013-.04l-.258-.223a.04.04 0 0 0-.016-.007.04.04 0 0 0-.018 0l-.5.11a.041.041 0 0 0-.027.064zm2.376-1.577l.257.285a.024.024 0 0 0 .025.006l.566-.155a.024.024 0 0 0 .018-.018v-.013a.024.024 0 0 0-.009-.01l-.292-.248a.03.03 0 0 0-.02 0l-.537.119a.025.025 0 0 0-.008.034zm-.107.511l.25.27a.034.034 0 0 0 .014.009.034.034 0 0 0 .017 0l.548-.15a.032.032 0 0 0 .011-.055l-.277-.236a.032.032 0 0 0-.028-.006l-.515.114a.032.032 0 0 0-.015.007.034.034 0 0 0-.01.014.034.034 0 0 0 .006.033zm-.74.205l.247.268a.038.038 0 0 0 .034.01l.546-.149a.034.034 0 0 0 .013-.057l-.279-.234a.038.038 0 0 0-.028-.008l-.515.115a.032.032 0 0 0-.026.04.032.032 0 0 0 .008.015zm-2.988-.295l.273.292a.035.035 0 0 0 .031.01l.588-.138a.032.032 0 0 0 .016-.055l-.31-.293a.031.031 0 0 0-.03-.008l-.552.138a.032.032 0 0 0-.016.054zm-.786.193l.258.28a.04.04 0 0 0 .038.01l.57-.128a.041.041 0 0 0 .018-.07l-.294-.28a.039.039 0 0 0-.038-.008l-.536.129a.04.04 0 0 0-.027.029.04.04 0 0 0 .011.038zm-.838.655l.194.313a.04.04 0 0 0 .018.016.039.039 0 0 0 .025.002l.659-.147a.04.04 0 0 0 .03-.025.041.041 0 0 0-.006-.039l-.217-.302a.042.042 0 0 0-.041-.017l-.636.137a.042.042 0 0 0-.032.044.03.03 0 0 0 .006.018zm-4.317.117l.65-.152a.04.04 0 0 1 .04.014l.114.152a.037.037 0 0 1 .007.017.038.038 0 0 1-.03.042l-.672.158a.037.037 0 0 1-.042-.018l-.091-.158a.038.038 0 0 1-.005-.017.038.038 0 0 1 .014-.03.036.036 0 0 1 .015-.008zm.893-.195l.644-.151a.036.036 0 0 1 .021 0 .035.035 0 0 1 .017.014l.115.15a.038.038 0 0 1 .005.036.039.039 0 0 1-.027.025l-.673.157a.04.04 0 0 1-.024-.002.04.04 0 0 1-.017-.016l-.092-.158a.037.037 0 0 1 .031-.055zm.866-.188l.65-.15a.037.037 0 0 1 .039.013l.113.151a.038.038 0 0 1 .006.036.037.037 0 0 1-.027.023l-.674.158a.036.036 0 0 1-.041-.017l-.091-.157a.039.039 0 0 1 .024-.057zm.842-.191l.652-.151a.036.036 0 0 1 .038.014l.114.15a.04.04 0 0 1-.004.051.038.038 0 0 1-.017.01l-.675.156a.039.039 0 0 1-.04-.017l-.092-.158a.04.04 0 0 1 .009-.047.04.04 0 0 1 .015-.008zm.857-.191l.643-.15a.042.042 0 0 1 .041.015l.111.146a.042.042 0 0 1 .006.039.042.042 0 0 1-.029.026l-.668.156a.04.04 0 0 1-.044-.02l-.089-.152a.042.042 0 0 1-.001-.037.041.041 0 0 1 .03-.023zm.831-.174l.644-.15a.04.04 0 0 1 .04.014l.112.148a.04.04 0 0 1-.024.063l-.668.157a.041.041 0 0 1-.044-.02l-.088-.152a.041.041 0 0 1 .028-.06zm.813-.17l.596-.145a.04.04 0 0 1 .039.012l.116.121a.04.04 0 0 1 .009.019.041.041 0 0 1-.029.048l-.59.15a.038.038 0 0 1-.038-.011l-.129-.13a.041.041 0 0 1 .026-.064zm.787-.183l.614-.15a.034.034 0 0 1 .032.01l.13.135a.03.03 0 0 1-.015.053l-.608.154a.033.033 0 0 1-.03-.009l-.137-.138a.032.032 0 0 1-.009-.032.032.032 0 0 1 .023-.023zm.789-.186l.614-.15a.028.028 0 0 1 .031.01l.129.129a.029.029 0 0 1 .008.014.032.032 0 0 1-.024.04l-.606.154a.035.035 0 0 1-.017 0 .035.035 0 0 1-.014-.01l-.129-.138a.033.033 0 0 1-.002-.039.033.033 0 0 1 .01-.01zm.791-.162l.613-.15a.035.035 0 0 1 .031.009l.129.135a.034.034 0 0 1-.017.055l-.601.152a.033.033 0 0 1-.016 0 .033.033 0 0 1-.015-.008l-.135-.138a.033.033 0 0 1-.01-.03.033.033 0 0 1 .007-.016.033.033 0 0 1 .013-.01zm.746-.179l.632-.155a.022.022 0 0 1 .024.007l.141.148a.023.023 0 0 1-.012.04l-.624.158a.022.022 0 0 1-.023-.007l-.15-.152a.024.024 0 0 1-.005-.01.023.023 0 0 1 0-.013.024.024 0 0 1 .007-.01.023.023 0 0 1 .01-.007zm.752-.162l.634-.155a.023.023 0 0 1 .022.007l.141.149a.022.022 0 0 1 .007.01.023.023 0 0 1-.007.024.023.023 0 0 1-.011.006l-.625.16a.022.022 0 0 1-.023-.006l-.15-.153a.025.025 0 0 1 0-.036.024.024 0 0 1 .012-.006zm.753-.174l.586-.129a.026.026 0 0 1 .025.01l.113.139a.023.023 0 0 1 .004.022.024.024 0 0 1-.007.01.025.025 0 0 1-.01.005l-.55.146a.022.022 0 0 1-.023-.007l-.15-.15a.024.024 0 0 1-.01-.027.025.025 0 0 1 .022-.019zm.718-.165l.585-.13a.023.023 0 0 1 .024.008l.113.14a.025.025 0 0 1-.002.033.025.025 0 0 1-.01.006l-.55.146-.012-.001a.032.032 0 0 1-.012-.006l-.148-.152a.024.024 0 0 1-.002-.038.025.025 0 0 1 .014-.006zm-9.984 3.097l.216.309a.036.036 0 0 0 .04.015l1.126-.265a.037.037 0 0 0 .029-.042.037.037 0 0 0-.008-.017l-.239-.317a.037.037 0 0 0-.039-.013l-1.103.27a.04.04 0 0 0-.026.024.04.04 0 0 0 .004.035zm.343.414l.215.344a.038.038 0 0 0 .041.017l1.361-.324a.037.037 0 0 0 .02-.06l-.268-.336a.037.037 0 0 0-.039-.013l-1.307.316a.037.037 0 0 0-.023.057zm.308.456l.258.373a.03.03 0 0 0 .017.014.037.037 0 0 0 .023.002l1.802-.447a.038.038 0 0 0 .026-.025.038.038 0 0 0-.005-.036l-.29-.373a.04.04 0 0 0-.039-.015l-1.781.449a.037.037 0 0 0-.02.027.038.038 0 0 0 .01.03zm4.125-.409l.33.4a.039.039 0 0 0 .04.013l3.966-.994a.04.04 0 0 0 .028-.05.04.04 0 0 0-.01-.017l-.404-.405a.043.043 0 0 0-.039-.01l-3.89.999a.04.04 0 0 0-.03.046.04.04 0 0 0 .01.018zm4.099-1.03l.386.388c.004.004.01.007.015.009a.034.034 0 0 0 .017 0l.812-.218a.033.033 0 0 0 .023-.023.032.032 0 0 0-.009-.032l-.402-.396a.034.034 0 0 0-.031-.008l-.797.23a.034.034 0 0 0-.02.037c0 .004.003.01.006.013zm1.958-.245l.178.187a.022.022 0 0 0 .01.007.023.023 0 0 0 .013 0l.601-.163a.023.023 0 0 0 .017-.017.023.023 0 0 0-.007-.023l-.213-.203a.025.025 0 0 0-.012-.003c-.004 0-.008 0-.012.003l-.565.177a.025.025 0 0 0-.008.006.026.026 0 0 0-.005.009.026.026 0 0 0 .003.02zm.512-.402l.211.222a.024.024 0 0 0 .012.007h.014l.553-.194a.023.023 0 0 0 .016-.017v-.012a.024.024 0 0 0-.008-.01l-.21-.188a.022.022 0 0 0-.023 0l-.557.157a.026.026 0 0 0-.007.006.025.025 0 0 0-.005.02l.004.008z"/><path opacity=".1" d="M22.91 50.864l-.153-.13a.024.024 0 0 1-.008-.032.025.025 0 0 1 .008-.009l.551-.191a.023.023 0 0 1 .013-.004.02.02 0 0 1 .012.004l.172.166a.025.025 0 0 1 .007.012.026.026 0 0 1 0 .013.025.025 0 0 1-.007.01.024.024 0 0 1-.011.007l-.57.148a.023.023 0 0 1-.015.006zm.563-.341c.048.046.129.137.162.168a.028.028 0 0 0 .025.007l.573-.156a.025.025 0 0 0 .017-.018.025.025 0 0 0-.007-.024l-.204-.183a.024.024 0 0 0-.024 0l-.532.172a.023.023 0 0 0-.008.006.022.022 0 0 0-.005.009.023.023 0 0 0 .003.02zm-1.609-.365l.307.297a.023.023 0 0 0 .023.007l1.478-.388a.024.024 0 0 0 .017-.017.024.024 0 0 0-.007-.024l-.36-.299a.022.022 0 0 0-.01-.003.022.022 0 0 0-.011.003l-1.426.388a.023.023 0 0 0-.01.006.024.024 0 0 0-.006.02l.005.01zm-.102-.457l.316.283a.026.026 0 0 0 .022 0l1.112-.258a.024.024 0 0 0 .018-.019.025.025 0 0 0-.009-.024l-.364-.306a.02.02 0 0 0-.02 0l-1.065.279a.025.025 0 0 0-.01.045zm.103-.487l.3.269a.023.023 0 0 0 .022 0l.57-.13a.024.024 0 0 0 .018-.018.024.024 0 0 0-.008-.024l-.355-.301a.021.021 0 0 0-.022 0l-.515.165a.023.023 0 0 0-.01.007.024.024 0 0 0-.005.021c0 .004.003.008.005.01zm-.777-.268l.29.265a.026.026 0 0 0 .021 0l.901-.216a.023.023 0 0 0 .018-.017v-.013a.024.024 0 0 0-.009-.01l-.345-.292a.029.029 0 0 0-.021 0l-.852.242a.024.024 0 0 0-.009.008.024.024 0 0 0-.002.024.024.024 0 0 0 .008.01z"/></g><path d="M10.872 51.133l.197.318a.036.036 0 0 0 .04.017l.664-.149a.038.038 0 0 0 .027-.023.038.038 0 0 0-.004-.036l-.22-.311a.04.04 0 0 0-.039-.016l-.643.138a.04.04 0 0 0-.018.01.04.04 0 0 0-.012.035.04.04 0 0 0 .008.017zm.868-.183l.196.317c.004.007.01.012.018.015a.037.037 0 0 0 .023.002l.665-.148a.039.039 0 0 0 .018-.057l-.22-.308a.037.037 0 0 0-.039-.014l-.644.138a.039.039 0 0 0-.018.054zm.844-.184l.197.318a.036.036 0 0 0 .04.017l.664-.148a.038.038 0 0 0 .017-.008.038.038 0 0 0 .007-.05l-.22-.31a.037.037 0 0 0-.039-.014l-.644.139a.038.038 0 0 0-.028.04.044.044 0 0 0 .006.016zm.828-.179l.195.313a.039.039 0 0 0 .042.018l.66-.147a.04.04 0 0 0 .024-.063l-.216-.303a.046.046 0 0 0-.02-.014.046.046 0 0 0-.023-.003l-.636.137a.042.042 0 0 0-.017.009.042.042 0 0 0-.015.035c0 .006.003.013.006.018zm-.067.491l.197.319a.042.042 0 0 0 .041.017l.665-.149a.04.04 0 0 0 .016-.009.04.04 0 0 0 .01-.015c.002-.006.003-.012.002-.018a.04.04 0 0 0-.006-.017l-.22-.308a.037.037 0 0 0-.04-.015l-.643.138a.04.04 0 0 0-.027.04.04.04 0 0 0 .005.017zm-.86.177l.197.318a.038.038 0 0 0 .04.018l.666-.149a.04.04 0 0 0 .016-.008.04.04 0 0 0 .01-.016c.002-.006.003-.012.002-.018a.04.04 0 0 0-.006-.017l-.22-.305a.037.037 0 0 0-.039-.016l-.644.139a.037.037 0 0 0-.024.021.038.038 0 0 0 .002.032zm.56.391l.197.318a.035.035 0 0 0 .04.017l.666-.149a.039.039 0 0 0 .028-.042.04.04 0 0 0-.007-.017l-.22-.308a.037.037 0 0 0-.038-.014l-.644.139a.037.037 0 0 0-.015.008.036.036 0 0 0-.01.014.036.036 0 0 0-.003.018c0 .006.003.011.006.016zm.793.337l.197.32a.038.038 0 0 0 .04.016l.664-.149a.038.038 0 0 0 .027-.024.04.04 0 0 0-.004-.036l-.22-.307a.039.039 0 0 0-.038-.015l-.644.138a.038.038 0 0 0-.025.023.039.039 0 0 0-.003.017c0 .006.003.012.006.017zm.135.559l.318.4a.039.039 0 0 0 .04.012L15 52.78a.037.037 0 0 0 .027-.025.038.038 0 0 0-.007-.036l-.329-.403a.037.037 0 0 0-.039-.013l-.659.178a.039.039 0 0 0-.026.025.04.04 0 0 0 .006.036zm.875-.221l.326.413a.04.04 0 0 0 .04.012l.874-.242a.038.038 0 0 0 .025-.026.038.038 0 0 0-.007-.035l-.329-.403a.039.039 0 0 0-.04-.013l-.87.235a.037.037 0 0 0-.025.024.038.038 0 0 0 .006.035zm-1.731.438l.318.4a.04.04 0 0 0 .04.012l.67-.174a.038.038 0 0 0 .02-.06l-.33-.404a.037.037 0 0 0-.038-.013l-.66.178a.038.038 0 0 0-.026.025.04.04 0 0 0 .006.036zm-.902.23l.318.4a.037.037 0 0 0 .039.013l.67-.174a.038.038 0 0 0 .027-.044.04.04 0 0 0-.007-.017l-.33-.403a.037.037 0 0 0-.039-.013l-.659.178a.037.037 0 0 0-.026.043.038.038 0 0 0 .007.017zm2.025-2.599l.195.314a.04.04 0 0 0 .043.018l.659-.147a.041.041 0 0 0 .024-.063l-.216-.304a.04.04 0 0 0-.041-.016l-.644.137a.04.04 0 0 0-.024.026.042.042 0 0 0 .005.035zm-.05.49l.194.313a.04.04 0 0 0 .043.018l.66-.147a.04.04 0 0 0 .029-.025.04.04 0 0 0-.005-.038l-.217-.303a.04.04 0 0 0-.04-.017l-.645.137a.041.041 0 0 0-.024.026.044.044 0 0 0-.001.018c0 .006.003.012.006.017zm.859-.673l.194.314a.04.04 0 0 0 .044.018l.659-.147a.042.042 0 0 0 .028-.026.041.041 0 0 0-.005-.037l-.216-.303a.04.04 0 0 0-.042-.017l-.637.138a.041.041 0 0 0-.028.023.042.042 0 0 0 .002.037zm2.365-.517l.274.292a.03.03 0 0 0 .031.01l.589-.137a.032.032 0 0 0 .023-.04.032.032 0 0 0-.008-.015l-.309-.293a.03.03 0 0 0-.014-.008.03.03 0 0 0-.015 0l-.554.137a.034.034 0 0 0-.015.008.034.034 0 0 0-.008.015.034.034 0 0 0 .007.032zm.752-.174l.273.29a.032.032 0 0 0 .03.01l.589-.136a.032.032 0 0 0 .015-.056l-.309-.292a.031.031 0 0 0-.014-.008.031.031 0 0 0-.015 0l-.554.137a.033.033 0 0 0-.015.008.033.033 0 0 0-.009.032l.009.015zm-.74.647l.275.292a.033.033 0 0 0 .03.01l.589-.138a.033.033 0 0 0 .023-.04.033.033 0 0 0-.01-.016l-.307-.291a.034.034 0 0 0-.03-.008l-.554.137a.034.034 0 0 0-.023.023.033.033 0 0 0 .007.031zm-.777.182l.257.278a.042.042 0 0 0 .018.011.038.038 0 0 0 .021 0l.57-.13a.04.04 0 0 0 .03-.05.04.04 0 0 0-.012-.018l-.294-.279a.037.037 0 0 0-.038-.01l-.537.13a.042.042 0 0 0-.026.05.04.04 0 0 0 .011.018zm.594.878l.257.28a.04.04 0 0 0 .039.011l.569-.13a.041.041 0 0 0 .02-.069l-.296-.28a.04.04 0 0 0-.037-.009l-.537.13a.04.04 0 0 0-.015.067zm-.808.184l.258.279a.04.04 0 0 0 .017.01.039.039 0 0 0 .021.001l.57-.129a.042.042 0 0 0 .02-.07l-.286-.281a.04.04 0 0 0-.037-.01l-.537.13a.04.04 0 0 0-.026.07zm-.815.203l.258.28a.043.043 0 0 0 .018.01.043.043 0 0 0 .02.001l.571-.129a.04.04 0 0 0 .018-.068l-.295-.28a.04.04 0 0 0-.037-.01l-.537.13a.042.042 0 0 0-.026.029.041.041 0 0 0 .01.038zm-.87.172l.266.284a.038.038 0 0 0 .036.01l.576-.13a.038.038 0 0 0 .028-.047.037.037 0 0 0-.012-.017l-.298-.287a.04.04 0 0 0-.035-.01l-.542.129a.037.037 0 0 0-.018.069zm1.675-.885l.258.28a.04.04 0 0 0 .017.01.038.038 0 0 0 .02 0l.57-.128a.041.041 0 0 0 .03-.052.041.041 0 0 0-.012-.018l-.293-.28a.04.04 0 0 0-.037-.008l-.537.129a.042.042 0 0 0-.026.03.041.041 0 0 0 .01.037zm-.785.181l.258.28a.042.042 0 0 0 .038.01l.57-.128a.04.04 0 0 0 .03-.05.04.04 0 0 0-.011-.019l-.295-.279a.044.044 0 0 0-.038-.01l-.536.129a.041.041 0 0 0-.025.05.04.04 0 0 0 .01.017zm-.843.182l.258.28a.04.04 0 0 0 .037.012l.57-.13a.04.04 0 0 0 .02-.01.039.039 0 0 0 .01-.018.04.04 0 0 0-.011-.04l-.294-.28a.041.041 0 0 0-.037-.01l-.537.13a.04.04 0 0 0-.016.067zm-.864.206l.265.283c.004.005.01.009.017.01a.035.035 0 0 0 .02 0l.575-.129a.037.037 0 0 0 .028-.027.038.038 0 0 0-.01-.038l-.3-.282a.04.04 0 0 0-.035-.01l-.542.128a.039.039 0 0 0-.018.065zm3.306-.76l.257.28a.041.041 0 0 0 .039.01l.57-.129a.04.04 0 0 0 .03-.05.04.04 0 0 0-.012-.018l-.294-.28a.044.044 0 0 0-.038-.01l-.537.13a.04.04 0 0 0-.015.067zm-1.376-.158l.257.279a.04.04 0 0 0 .039.012l.57-.13a.042.042 0 0 0 .03-.03.042.042 0 0 0-.012-.04l-.295-.279a.038.038 0 0 0-.037-.009l-.536.13a.04.04 0 0 0-.026.049.041.041 0 0 0 .01.018zm3.034-1.218l.286.306a.023.023 0 0 0 .023.007l.609-.141a.025.025 0 0 0 .017-.018.025.025 0 0 0-.007-.023l-.323-.307a.026.026 0 0 0-.01-.005.025.025 0 0 0-.012-.001l-.572.142a.024.024 0 0 0-.016.017.024.024 0 0 0 .005.023zm.732-.163l.287.306a.024.024 0 0 0 .023.007l.608-.141a.024.024 0 0 0 .017-.017.025.025 0 0 0-.006-.024l-.323-.307a.025.025 0 0 0-.01-.006.024.024 0 0 0-.012 0l-.573.142a.024.024 0 0 0-.018.017.023.023 0 0 0 0 .012.022.022 0 0 0 .007.011zm.754-.175l.258.284a.023.023 0 0 0 .023.007l.567-.155a.024.024 0 0 0 .011-.007.025.025 0 0 0-.002-.034l-.293-.249a.023.023 0 0 0-.01-.002c-.004 0-.007 0-.01.002l-.536.12a.024.024 0 0 0-.012.026l.004.008zm.793.266l.257.284a.025.025 0 0 0 .012.007.025.025 0 0 0 .013 0l.566-.156a.024.024 0 0 0 .018-.018l-.001-.013a.022.022 0 0 0-.008-.01l-.292-.248a.024.024 0 0 0-.01-.002c-.004 0-.008 0-.01.002l-.536.119a.024.024 0 0 0-.012.015.023.023 0 0 0 0 .01c0 .004 0 .007.003.01zm-.098.515l.249.27a.032.032 0 0 0 .032.01l.546-.15a.032.032 0 0 0 .012-.056l-.278-.235a.029.029 0 0 0-.027 0l-.514.113a.033.033 0 0 0-.021.02.032.032 0 0 0-.003.014c0 .005.002.01.004.014zm-.643.659l.248.27a.03.03 0 0 0 .033.009l.545-.149a.034.034 0 0 0 .013-.057l-.278-.235a.03.03 0 0 0-.027-.006l-.515.115a.03.03 0 0 0-.027.02.03.03 0 0 0 .008.033zm-.775.2l.248.27a.036.036 0 0 0 .033.009l.545-.15a.034.034 0 0 0 .013-.057l-.278-.234a.03.03 0 0 0-.027-.006l-.515.114a.033.033 0 0 0-.025.021.033.033 0 0 0 .006.033zm1.504-.395l.248.27a.03.03 0 0 0 .033.01l.546-.15a.032.032 0 0 0 .012-.056l-.276-.235a.032.032 0 0 0-.029-.007l-.515.115a.032.032 0 0 0-.02.053zm-.124.583l.374.337a.03.03 0 0 0 .03.007l.543-.154a.032.032 0 0 0 .013-.055l-.404-.356a.033.033 0 0 0-.016-.008.033.033 0 0 0-.017.002l-.515.171a.032.032 0 0 0-.02.026.033.033 0 0 0 .012.03zm-1.313-1.196l.257.284a.027.027 0 0 0 .011.007.027.027 0 0 0 .013 0l.567-.154a.024.024 0 0 0 .017-.019.024.024 0 0 0 0-.013.025.025 0 0 0-.008-.01l-.292-.248a.022.022 0 0 0-.01-.002c-.004 0-.008 0-.011.002l-.536.12a.024.024 0 0 0-.007.005.022.022 0 0 0-.005.009.021.021 0 0 0 0 .01c0 .003.002.006.004.009zm-.731.181l.249.27a.032.032 0 0 0 .032.01l.546-.15a.032.032 0 0 0 .014-.01.032.032 0 0 0 .008-.031.033.033 0 0 0-.01-.015l-.276-.235a.032.032 0 0 0-.029 0l-.515.114a.033.033 0 0 0-.02.019.034.034 0 0 0 .002.028zm-.151.522l.248.27a.03.03 0 0 0 .032.008l.547-.148a.034.034 0 0 0 .012-.057l-.277-.234a.029.029 0 0 0-.028-.008l-.515.115a.032.032 0 0 0-.026.021.033.033 0 0 0 .007.033zm-.771.187l.248.269a.033.033 0 0 0 .034.009l.546-.149a.033.033 0 0 0 .022-.025.034.034 0 0 0-.01-.032l-.277-.235a.031.031 0 0 0-.014-.006.031.031 0 0 0-.015 0l-.515.115a.033.033 0 0 0-.025.022.034.034 0 0 0 .006.033zm.138-.533l.248.269a.034.034 0 0 0 .032.01l.546-.15a.034.034 0 0 0 .013-.057l-.278-.233a.034.034 0 0 0-.012-.007.033.033 0 0 0-.015-.001l-.515.115a.032.032 0 0 0-.016.007.033.033 0 0 0-.011.032.033.033 0 0 0 .008.015zm.644.825l.249.27a.03.03 0 0 0 .032.01l.546-.15a.033.033 0 0 0 .012-.056l-.277-.235a.03.03 0 0 0-.028 0l-.515.115a.03.03 0 0 0-.023.033c0 .005.002.01.004.013zm-.759.208l.237.258a.04.04 0 0 0 .04.012l.527-.145a.04.04 0 0 0 .029-.03.04.04 0 0 0-.014-.04l-.257-.222a.037.037 0 0 0-.035-.009l-.5.111a.041.041 0 0 0-.027.065zm2.377-1.576l.257.283a.026.026 0 0 0 .011.007.027.027 0 0 0 .014 0l.566-.155a.024.024 0 0 0 .017-.018.025.025 0 0 0-.008-.024l-.292-.247a.022.022 0 0 0-.02 0l-.538.119a.023.023 0 0 0-.007.006.022.022 0 0 0-.005.01v.01c.001.003.002.006.005.009zm-.103.509l.248.27a.03.03 0 0 0 .033.01l.547-.15a.034.034 0 0 0 .011-.056l-.276-.235a.031.031 0 0 0-.029-.007l-.515.115a.032.032 0 0 0-.02.053zm-.745.204l.247.27a.036.036 0 0 0 .034.01l.546-.15a.032.032 0 0 0 .012-.056l-.277-.235a.032.032 0 0 0-.029-.007l-.515.114a.032.032 0 0 0-.025.022.033.033 0 0 0 .007.032zm-2.984-.294l.273.292a.032.032 0 0 0 .031.01l.589-.137a.032.032 0 0 0 .024-.023.033.033 0 0 0-.009-.032l-.309-.292a.032.032 0 0 0-.03-.01l-.553.139a.031.031 0 0 0-.015.053zm-.787.193l.258.278a.04.04 0 0 0 .039.013l.568-.13a.04.04 0 0 0 .03-.05.04.04 0 0 0-.01-.018l-.295-.279a.037.037 0 0 0-.038-.01l-.537.13a.041.041 0 0 0-.015.066zm-.841.655l.194.314a.04.04 0 0 0 .043.018l.659-.148a.04.04 0 0 0 .029-.025.04.04 0 0 0-.005-.038l-.217-.303a.04.04 0 0 0-.018-.015.04.04 0 0 0-.023-.001l-.636.137a.04.04 0 0 0-.029.024.041.041 0 0 0-.003.019c0 .006.003.012.006.018zm-4.313.115l.65-.151a.04.04 0 0 1 .04.014l.114.151a.038.038 0 0 1 .005.036.038.038 0 0 1-.027.024l-.674.157a.036.036 0 0 1-.04-.018l-.092-.156a.04.04 0 0 1-.005-.017c0-.006 0-.012.003-.018a.04.04 0 0 1 .026-.022zm.893-.194l.644-.152a.04.04 0 0 1 .038.015l.115.15a.045.045 0 0 1 .007.018.038.038 0 0 1-.029.042l-.673.158a.038.038 0 0 1-.041-.018l-.092-.158a.037.037 0 0 1 .031-.055zm.866-.186l.65-.152a.037.037 0 0 1 .038.014l.115.15a.04.04 0 0 1 .005.037.039.039 0 0 1-.027.024l-.674.158a.037.037 0 0 1-.04-.018l-.092-.158a.038.038 0 0 1 .024-.056zm.842-.192l.643-.152a.04.04 0 0 1 .039.014l.113.152c.004.005.007.01.008.017a.038.038 0 0 1-.002.018.038.038 0 0 1-.026.024l-.675.158a.038.038 0 0 1-.041-.018l-.091-.158a.038.038 0 0 1 .014-.05.038.038 0 0 1 .018-.005zm.857-.191l.643-.15a.042.042 0 0 1 .042.014l.11.148a.04.04 0 0 1-.023.063l-.668.156a.04.04 0 0 1-.044-.019l-.089-.152a.04.04 0 0 1 .01-.052.04.04 0 0 1 .019-.008zm.831-.174l.644-.15a.04.04 0 0 1 .04.016l.112.146a.04.04 0 0 1 .005.038.04.04 0 0 1-.029.025l-.668.157a.04.04 0 0 1-.044-.02l-.088-.152a.042.042 0 0 1 0-.037.041.041 0 0 1 .029-.023zm.812-.17l.596-.146a.042.042 0 0 1 .039.012l.116.13a.042.042 0 0 1 .009.039.041.041 0 0 1-.028.027l-.59.14a.039.039 0 0 1-.039-.01l-.128-.13a.04.04 0 0 1-.004-.038.04.04 0 0 1 .03-.024zm.788-.185l.614-.15a.038.038 0 0 1 .032.009l.13.135.008.015a.033.033 0 0 1-.024.04l-.607.152a.032.032 0 0 1-.016 0 .032.032 0 0 1-.015-.009l-.136-.138a.032.032 0 0 1-.009-.032.032.032 0 0 1 .009-.014.032.032 0 0 1 .014-.008zm.789-.184l.614-.15a.035.035 0 0 1 .03.01l.13.135.008.014a.032.032 0 0 1 0 .017.033.033 0 0 1-.01.015.033.033 0 0 1-.014.008l-.607.152a.03.03 0 0 1-.03-.009l-.13-.138a.032.032 0 0 1 .009-.054zm.791-.161l.613-.15a.03.03 0 0 1 .031.01l.13.135c.003.004.005.01.007.015a.032.032 0 0 1-.001.016.032.032 0 0 1-.023.022l-.602.154a.035.035 0 0 1-.03-.01l-.136-.138a.033.033 0 0 1-.009-.013.033.033 0 0 1 .006-.031.032.032 0 0 1 .013-.01zm.746-.18l.632-.155a.022.022 0 0 1 .023.006l.142.15a.025.025 0 0 1 .005.023.026.026 0 0 1-.006.011.026.026 0 0 1-.01.006l-.625.158a.028.028 0 0 1-.023-.007l-.15-.152a.024.024 0 0 1-.005-.011.024.024 0 0 1 .017-.03zm.751-.163l.634-.154a.02.02 0 0 1 .012 0 .02.02 0 0 1 .01.007l.141.149a.025.025 0 0 1-.011.04l-.625.157a.021.021 0 0 1-.012 0 .022.022 0 0 1-.011-.006l-.15-.151a.025.025 0 0 1-.006-.024.024.024 0 0 1 .007-.012.025.025 0 0 1 .011-.006zm.753-.173l.585-.129a.023.023 0 0 1 .024.008l.114.14a.025.025 0 0 1-.013.038l-.55.146a.028.028 0 0 1-.022-.006l-.15-.153a.025.025 0 0 1-.008-.011.024.024 0 0 1 .02-.032zm.72-.167l.586-.128a.026.026 0 0 1 .024.008l.112.139a.022.022 0 0 1 .006.01.023.023 0 0 1-.007.023.023.023 0 0 1-.01.006l-.55.146a.024.024 0 0 1-.024-.007l-.149-.15a.024.024 0 0 1-.002-.04.024.024 0 0 1 .014-.006zm-9.985 3.095l.217.309a.036.036 0 0 0 .038.015l1.127-.264a.038.038 0 0 0 .029-.043.036.036 0 0 0-.008-.017l-.239-.315a.037.037 0 0 0-.039-.014l-1.103.271a.038.038 0 0 0-.026.023c-.002.006-.003.012-.002.018 0 .006.003.012.006.017zm.343.419l.215.345a.04.04 0 0 0 .041.017l1.361-.326a.037.037 0 0 0 .02-.06l-.268-.336a.04.04 0 0 0-.039-.013l-1.307.316a.039.039 0 0 0-.016.008.038.038 0 0 0-.007.049zm.308.456l.258.373c.004.006.01.01.018.013a.037.037 0 0 0 .022.001l1.802-.447a.037.037 0 0 0 .02-.06l-.289-.374a.038.038 0 0 0-.039-.013l-1.781.447a.039.039 0 0 0-.019.045.04.04 0 0 0 .008.015zm4.125-.409l.33.398a.039.039 0 0 0 .04.013l3.966-.992a.041.041 0 0 0 .028-.05.043.043 0 0 0-.01-.019l-.404-.403a.038.038 0 0 0-.018-.01.04.04 0 0 0-.02 0l-3.891.997a.041.041 0 0 0-.02.066zm4.094-1.029l.386.388.015.008a.033.033 0 0 0 .018 0l.812-.22a.032.032 0 0 0 .023-.023.032.032 0 0 0-.009-.03l-.403-.396a.03.03 0 0 0-.014-.009.03.03 0 0 0-.017 0l-.8.222a.033.033 0 0 0-.015.01.034.034 0 0 0 .004.05zm1.962-.248l.178.188a.022.022 0 0 0 .01.006.022.022 0 0 0 .013 0l.601-.161a.024.024 0 0 0 .011-.007.024.024 0 0 0 .006-.011.024.024 0 0 0-.007-.024l-.213-.201a.023.023 0 0 0-.023-.007l-.566.177a.024.024 0 0 0-.016.03.024.024 0 0 0 .006.01zm.513-.401l.211.222a.023.023 0 0 0 .026 0l.553-.19a.024.024 0 0 0 .016-.019v-.013a.025.025 0 0 0-.008-.01l-.21-.181a.02.02 0 0 0-.023 0l-.557.156a.025.025 0 0 0-.011.026l.003.01zm.406.384l-.151-.123a.024.024 0 0 1-.013-.02c0-.005.001-.01.003-.013a.024.024 0 0 1 .01-.01l.55-.19a.025.025 0 0 1 .025 0l.173.167a.025.025 0 0 1 .005.024.025.025 0 0 1-.017.017l-.57.148a.023.023 0 0 1-.015 0zm.566-.335c.048.047.129.137.162.168a.024.024 0 0 0 .024.007l.574-.155a.024.024 0 0 0 .017-.018.024.024 0 0 0-.007-.024l-.203-.184a.027.027 0 0 0-.025 0l-.531.172a.023.023 0 0 0-.008.006.023.023 0 0 0-.005.009.023.023 0 0 0-.001.01l.003.01zm-1.612-.369l.307.297a.026.026 0 0 0 .011.002.026.026 0 0 0 .012-.002l1.478-.388a.025.025 0 0 0 .01-.043l-.36-.297a.028.028 0 0 0-.021 0l-1.427.388a.024.024 0 0 0-.018.018.024.024 0 0 0 .008.025zm-.098-.459l.317.283a.021.021 0 0 0 .022 0l1.112-.258a.022.022 0 0 0 .011-.007.023.023 0 0 0-.002-.035l-.364-.306a.02.02 0 0 0-.021 0l-1.065.287a.024.024 0 0 0-.014.016.025.025 0 0 0 .003.02zm.102-.487l.3.27a.028.028 0 0 0 .022 0l.57-.13a.023.023 0 0 0 .02-.017.024.024 0 0 0-.001-.013.023.023 0 0 0-.008-.01l-.355-.308a.02.02 0 0 0-.022 0l-.515.166a.023.023 0 0 0-.018.03.022.022 0 0 0 .008.012zm-.779-.267l.29.264a.023.023 0 0 0 .021 0l.901-.214a.024.024 0 0 0 .01-.043l-.345-.29a.023.023 0 0 0-.022 0l-.851.24a.024.024 0 0 0-.004.042z" fill="#464A5F"/><defs><linearGradient id="paint0_linear" x1="96.604" y1="92.34" x2="96.604" y2="27.813" gradientUnits="userSpaceOnUse"><stop stop-color="gray" stop-opacity=".25"/><stop offset=".54" stop-color="gray" stop-opacity=".12"/><stop offset="1" stop-color="gray" stop-opacity=".1"/></linearGradient></defs></svg>