<svg viewBox="0 0 272 189" fill="none" xmlns="http://www.w3.org/2000/svg"><path d="M27.247 32.143c7.353 0 13.313-5.947 13.313-13.283 0-7.336-5.96-13.283-13.313-13.283-7.353 0-13.313 5.947-13.313 13.283 0 7.336 5.96 13.283 13.313 13.283z" fill="#2C7BE5"/><path opacity=".1" d="M25.621 45.9c5.59 12.597-1.54 27.103-9.934 38.026-2.81 3.662-5.91 7.502-6.3 12.097-.47 5.62 3.345 10.786 7.87 14.163 8.253 6.154 19.524 8.057 29.347 4.951 8.488-2.683 15.624-8.743 24.186-11.186 14.319-4.091 29.497 2.692 41.759 11.143 8.68 5.975 17.976 13.255 28.44 11.975 7.362-.9 13.61-6.058 17.852-12.129 2.048-2.931 3.829-6.217 6.81-8.194 1.773-1.177 3.855-1.8 5.936-2.246 19.013-4.054 39.19 5.84 57.95.751 12.672-3.428 22.775-13.428 29.058-24.934 6.283-11.506 9.216-24.497 11.658-37.368 1.736-9.143 3.176-19.02-.813-27.43-4.221-8.902-13.992-14.3-23.812-15.31-9.82-1.012-19.667 1.78-28.714 5.717-11.303 4.931-22.383 11.834-34.72 11.857-8.402.017-16.414-3.2-24.447-5.655-13.431-4.1-27.397-6.137-41.315-8.017C103.107 2.311 89.65.637 76.246 1.7c-9.486.75-17.861 4.368-27.066 6.043-6 1.091-12.028.285-17.915 2.114-7.251 2.263-14.708 7.506-15.11 15.763-.377 7.86 6.501 13.597 9.465 20.28z" fill="#2C7BE5"/><path d="M81.158 20.055c-1.223-3.18-4.376-10.655-6.452-9.172-2.623 1.875 2.623 10.155 2.623 10.155.15 1.52-2.8 4.682-4.381 6.26V27.1a.685.685 0 0 1-.069.172l-.132-.072a.855.855 0 0 1-.186.34c0-.214-.014-.34-.014-.34-.304 1.283-5.602 2.909-5.602 2.909h-.389c-1.472 0-5.304-.331-7.08-3.166a15.686 15.686 0 0 0-3.473-4.043 2.963 2.963 0 0 0-1.646-.622c-4.906-.315-8.878-2.792-9.671-3.32l-.146-.1-.032.091a11.72 11.72 0 0 1-.535-.84l-.086-.157a7.187 7.187 0 0 0 2.886-2.633 7.164 7.164 0 0 0 1.08-3.75v-.149a4.88 4.88 0 0 0 .659-2.448v-.857l1.12-.995c.512-.454 1.042-.934 1.303-1.56.104-.253.151-.526.137-.8a1.383 1.383 0 0 0-.527-1.24c-.86-.591-2.291 0-2.912-.822-.287-.372-.235-.878-.376-1.315C46.971.495 45.94.015 44.987 0c-.954-.014-1.868.332-2.784.592a16.379 16.379 0 0 1-5.928.554 3.88 3.88 0 0 0-1.624.057 2.237 2.237 0 0 0-1.317 1.529c-.07.255-.113.518-.126.783a4.92 4.92 0 0 0-1.243 3.26v2.197a4.916 4.916 0 0 0 1.189 3.197 7.131 7.131 0 0 0 2.998 5.211v.175l.037.023a11.79 11.79 0 0 1-.315 2.02v-.146s-4.009 2.128-8.305 2.18h-.472a3.203 3.203 0 0 0-2.291.857c-1.271 1.194-3.5 3.083-4.868 3.083-.287 0-7.515 1.408-8.712 1.643L8.99 25.029l-.069.129-.132-.129a5.455 5.455 0 0 0-.727.106c-1.146-1.355-3.436-4.503-3.966-8.729 0 0 4.945-5.62 3.127-10.857C5.67 1.086 1.395 10.652.18 13.535a2.298 2.298 0 0 0-.074 1.585l4.017 12.92a6.047 6.047 0 0 0-.318 3.143H3.76l2.926 3.746s2.203.937 5.648.92a19.782 19.782 0 0 0 7.37-1.411h.68l-.13.048h3.486l2.216 6.689c-.074.608-1.145 9.103-2.004 11.003a4.765 4.765 0 0 0-.338 2c.045 1.312.26 2.613.638 3.871l1.942-.071-.075.151c-1.643 3.363-4.39 9.354-6.013 14.954l-2.827 5.715 2.12 25.628h.085l.163.026c.23.034.573.086 1.026.143l-.166.285-4.671 7.715s-3.33 6.803 4.038 5.52c0 0 2.723-.789 3.834-5.429l4.846-4.534s.226-3.012-1.146-4.214c-.086-1.392-.303-5.455.032-6.432.403-1.183-1.719-14.785-1.719-14.785s7.67-15.872 12.314-16.266c.34-.024.683.02 1.005.131 3.818 1.24 8.443 10.449 9.803 13.314l.063.132v.026l.052.111v.032l.045.097v.025l.04.089v.02l.035.071v.029l.026.054v.023l.017.04v.049l.014.034.604 17.843.06.031h.03l-.052.369-.264 1.843s3.33 7 3.127 7.885c-.203.886 2.22 4.437 5.65 3.452 3.431-.986 1.39-6.543 1.39-6.543l-3.305-6.794-.146-.303a6.44 6.44 0 0 0 .927-.689s-1.008-7.294 0-8.871c1.008-1.577 1.312-8.775 1.312-8.775s-.708-4.928-1.919-7.097l-5.074-18.071c1.52 1.411 2.703 1.963 3.691 1.926h.163a2.47 2.47 0 0 0 1.243-.309c.204-.115.396-.25.573-.403a.905.905 0 0 0 .094-.094c1.412-1.183-1.615-5.817-3.33-8.572-1.652-2.657.624-9.877.796-10.414a2.73 2.73 0 0 1 .49-.286 3.027 3.027 0 0 1 1.122-.242c1.644.057 3.666 1 6.169 1.474 1.739.295 3.502.432 5.266.409h.103c.702 0 1.337-.015 1.853-.035.47-.018.93-.142 1.346-.363.356-.207.679-.467.956-.771l4.393-4.952-.114.055a2.458 2.458 0 0 0 0-1.743l4.642-8a3.037 3.037 0 0 0 .226-2.637z" transform="translate(91.215 37.063)" fill="url(#paint0_linear)"/><path d="M120.22 144.538l-4.677 4.47c-1.07 4.572-3.702 5.347-3.702 5.347-7.111 1.263-3.898-5.429-3.898-5.429l4.51-7.614.556-.94s3.216-.972 5.358-.389c.27.074.52.21.73.395 1.343 1.162 1.123 4.16 1.123 4.16zm28.834 3.985c-3.313.971-5.65-2.526-5.441-3.403.209-.877-3.027-7.766-3.027-7.766l.252-1.817.235-1.683 5.44.389.513 1.074 3.19 6.7s2.151 5.534-1.162 6.506z" fill="#444176"/><path opacity=".1" d="M119.15 141.137c-.513.877-4.668.434-6.693.16l.556-.94s3.215-.972 5.358-.389c.27.074.52.21.73.395.028.474.048.774.048.774zm27.882-5.825c-2.786 1.851-5.753.451-6.2.22l.235-1.683 5.44.389.525 1.074z" fill="#000"/><path d="M147.785 125.586c-.973 1.554 0 8.748 0 8.748-3.216 2.917-7.013.777-7.013.777l-.573-17.591s-6.331-14.483-10.813-14.094c-4.482.388-11.884 16.037-11.884 16.037s2.044 13.411 1.655 14.571c-.39 1.16 0 6.803 0 6.803-.682 1.166-7.792 0-7.792 0l-2.045-25.271 2.715-5.64c1.56-5.52 4.212-11.429 5.799-14.743.787-1.649 1.314-2.654 1.314-2.654l5.184-1.078 16.824-3.48 6.045 21.955c1.169 2.137 1.85 6.997 1.85 6.997s-.292 7.108-1.266 8.663z" fill="#565387"/><g opacity=".1" fill="#000"><path opacity=".1" d="M142.328 135.111l-.573-17.591s-6.331-14.483-10.813-14.094c-.2.02-.398.063-.587.131 4.37 1.449 9.843 13.963 9.843 13.963l.572 17.591a6.887 6.887 0 0 0 3.875.706 6.902 6.902 0 0 1-2.317-.706z"/><path opacity=".1" d="M112.912 140.846l-2.045-25.272 2.726-5.648c1.56-5.52 4.213-11.429 5.8-14.743a88.855 88.855 0 0 1 1.313-2.654l5.184-1.078 15.358-3.185-.083-.306-16.833 3.491-5.183 1.078s-.527 1.005-1.315 2.654c-1.592 3.314-4.238 9.234-5.799 14.743l-2.726 5.637 2.045 25.271s3.883.637 6.185.497a46.099 46.099 0 0 1-4.627-.485z"/></g><path d="M101.067 62.557s-5.552.286-4.773 6.123l1.558.194 2.336-2.525 1.169-2.138v-.485l-.29-1.169z" fill="#CED2DF"/><path opacity=".1" d="M101.067 62.557s-5.552.286-4.773 6.123l1.558.194 2.336-2.525 1.169-2.138v-.485l-.29-1.169z" fill="#000"/><path d="M162.839 64.694s4.581 2.429 3.41 5.249l-1.46.571-1.948-1.068-.286-2.526.195-1.749.089-.477z" fill="#CED2DF"/><path opacity=".1" d="M162.839 64.694s4.581 2.429 3.41 5.249l-1.46.571-1.948-1.068-.286-2.526.195-1.749.089-.477z" fill="#000"/><path d="M133.421 39.617h-3.897c-3.336 0-6.04 2.698-6.04 6.026s2.704 6.026 6.04 6.026h3.897c3.336 0 6.04-2.698 6.04-6.026s-2.704-6.026-6.04-6.026z" fill="#88455E"/><path d="M101.027 63.383l-3.41 5.428-.287-.965-4.633-15.063a2.312 2.312 0 0 1 .071-1.563c1.171-2.84 5.3-12.286 6.799-7.871 1.752 5.142-3.022 10.691-3.022 10.691.545 4.503 3.079 7.766 4.075 8.897.253.294.407.446.407.446zm61.082 2.331s5.358-5.054 5.155-7.094c0 0-5.066-8.163-2.532-10 2.005-1.463 5.049 5.909 6.229 9.043a3.05 3.05 0 0 1-.204 2.571l-6.403 11.312-2.245-5.832zm-34.683-14.091s.973 6.22-1.85 8.554c-2.824 2.334 8.087 2.32 8.087 2.32l3.897-3.597s-4.481-4.18-3.118-7.289l-7.016.012z" fill="#EC8C9C"/><path opacity=".1" d="M127.23 58.717s4.19 3.112 8.377-.388l6.819 14.094-.39 17.203s-14.127 7.288-19.971 2.82c-5.845-4.469-.974-6.803-.974-6.803l-1.363-13.217 1.46-8.555s2.63-4.082 2.827-4.082c.197 0 3.216-1.072 3.216-1.072z" fill="#000"/><path d="M127.23 58.523s4.19 3.117 8.38-.389l6.819 14.095-.39 17.203s-14.127 7.288-19.971 2.82c-5.845-4.47-.974-6.803-.974-6.803l-1.363-13.217 1.46-8.555s2.63-4.083 2.827-4.083c.197 0 3.213-1.071 3.213-1.071z" fill="#EBF1F6"/><path opacity=".1" d="M127.23 57.069s-3.972 2.257-8.285 2.145a3.059 3.059 0 0 0-2.202.84c-1.228 1.177-3.379 3.04-4.71 3.04-.287 0-8.574 1.652-8.574 1.652l-2.191-2.186s-3.265 6.366-4.823 6.074l2.827 3.695s5.358 2.331 12.371-.486h4.092l2.142 6.608s-1.07 8.943-1.947 10.886c-.876 1.943.286 5.734.286 5.734l7.695-.285s.39-3.792.974-4.286c.584-.494-2.045-17.203-2.045-17.203s-1.752-9.428 4.677-12.828l-.287-3.4z" fill="#000"/><path opacity=".1" d="M124.33 91.463a25.321 25.321 0 0 0-.603 3.506l-5.891.222a91.82 91.82 0 0 1 1.314-2.654l5.18-1.074zm-23.301-28.08l-3.41 5.428-.287-.965c1.251-1.24 2.718-3.832 3.302-4.912.24.297.395.449.395.449z" fill="#000"/><path d="M127.23 57.069s-4.17 2.257-8.48 2.145a3.059 3.059 0 0 0-2.201.84c-1.229 1.177-3.38 3.04-4.711 3.04-.286 0-8.574 1.652-8.574 1.652l-2.2-2.189s-3.264 6.366-4.822 6.074l2.827 3.695s5.358 2.331 12.37-.486h4.093l2.142 6.606s-1.07 8.943-1.947 10.886c-.877 1.942.286 5.734.286 5.734l7.695-.286s.39-3.791.974-4.286c.584-.494-2.045-17.202-2.045-17.202s-1.753-9.43 4.676-12.83l-.083-3.393z" fill="#CED2DF"/><path opacity=".1" d="M135.61 56.48s3.974 3.023 9.28 3.371a2.83 2.83 0 0 1 1.59.615 15.357 15.357 0 0 1 3.353 4c2.142 3.5 7.403 3.111 7.403 3.111s5.114-1.603 5.406-2.857c0 0 .146 6.857 3.362 5.2l-4.23 4.863a2.982 2.982 0 0 1-2.133 1.026c-1.59.062-4.35.082-6.68-.369-3.509-.68-6.04-2.331-7.89-.874 0 0-2.434 7.58-.78 10.303 1.656 2.722 4.583 7.288 3.217 8.457-1.366 1.168-3.021 1.068-5.748-1.749-2.726-2.817-3.02-7.58-3.02-7.58l.68-12.246s-2.628-9.234-5.154-11.08l1.343-4.191z" fill="#000"/><path opacity=".1" d="M166.392 69.797l-4.241 4.883a2.98 2.98 0 0 1-2.128 1.02c-1.59.066-4.35.086-6.68-.369-3.283-.637-5.711-2.122-7.527-1.12a2.702 2.702 0 0 0-.366.243s-2.434 7.58-.78 10.303c1.656 2.723 4.583 7.289 3.217 8.457-.229.2-.485.367-.762.495-1.226.55-2.746.074-4.986-2.243-2.726-2.82-3.02-7.58-3.02-7.58l.68-12.246s-2.628-9.234-5.154-11.08l1.114-3.986c.767.52 4.6 2.963 9.336 3.274.58.037 1.135.251 1.589.615a15.369 15.369 0 0 1 3.353 4c2.142 3.5 7.403 3.111 7.403 3.111a28.467 28.467 0 0 0 3.686-1.463c.747-.365 1.406-.765 1.718-1.143a.856.856 0 0 0 .186-.342s.149 6.823 3.362 5.171z" fill="#000"/><path d="M166.197 69.894l-4.239 4.889a2.978 2.978 0 0 1-2.125 1.02c-1.589.066-4.35.086-6.68-.369-3.165-.614-5.539-2.02-7.329-1.217a2.65 2.65 0 0 0-.573.34s-2.434 7.58-.778 10.303c1.655 2.723 4.581 7.289 3.215 8.457a3.382 3.382 0 0 1-.572.397c-1.26.695-2.818.286-5.18-2.145-2.727-2.82-3.022-7.58-3.022-7.58l.682-12.246s-2.63-9.234-5.155-11.08l1.168-4.18.14.097c.768.52 4.6 2.963 9.336 3.274a2.827 2.827 0 0 1 1.59.615 15.367 15.367 0 0 1 3.353 4c2.142 3.5 7.403 3.111 7.403 3.111a28.468 28.468 0 0 0 3.685-1.463c.885-.451 1.607-.946 1.719-1.397v.246c.085 1.18.515 6.388 3.362 4.928z" fill="#CED2DF"/><path opacity=".1" d="M134.526 51.769h-7.159a17.44 17.44 0 0 1 .135 3.428 7.37 7.37 0 0 0 7.566.543c-.688-1.269-1.106-2.709-.542-3.971z" fill="#000"/><path d="M131.713 56.383c3.927 0 7.11-3.176 7.11-7.094s-3.183-7.095-7.11-7.095c-3.927 0-7.111 3.177-7.111 7.095 0 3.918 3.184 7.094 7.11 7.094z" fill="#EC8C9C"/><path opacity=".1" d="M130.237 48.026c.793-.095 1.587-.375 2.368-.218.71.143 1.315.632 2.025.78 1.369.286 2.64-.72 3.674-1.657l2.234-2.028c.495-.449 1.005-.92 1.26-1.537.255-.618.166-1.429-.378-1.818-.816-.571-2.222 0-2.812-.811-.267-.366-.227-.857-.364-1.294-.286-.875-1.271-1.352-2.194-1.363-.922-.012-1.804.326-2.686.571-1.858.538-3.8.723-5.727.546a3.668 3.668 0 0 0-1.567.054 2.19 2.19 0 0 0-1.271 1.506c-.441 1.554.312 4.06 1.068 5.451.756 1.392 2.86 2.003 4.37 1.818z" fill="#000"/><path d="M130.237 47.831c.793-.094 1.587-.374 2.368-.217.71.143 1.315.632 2.025.78 1.369.286 2.64-.72 3.674-1.657l2.234-2.029c.495-.448 1.005-.92 1.26-1.537.255-.617.166-1.428-.378-1.817-.816-.571-2.222 0-2.812-.811-.267-.366-.227-.857-.364-1.295-.286-.874-1.271-1.351-2.194-1.362-.922-.012-1.804.325-2.686.571-1.858.538-3.8.723-5.727.546a3.668 3.668 0 0 0-1.567.054 2.19 2.19 0 0 0-1.271 1.506c-.441 1.554.312 4.06 1.068 5.451.756 1.392 2.86 1.989 4.37 1.817z" fill="#88455E"/><path opacity=".1" d="M117.832 78.497s1.558.194 2.337 1.166c.779.971 2.142 1.263 2.142 1.263m-18.51-15.261s1.272 2.832.487 3.118c-.784.285-.487 2.331-.487 2.331" fill="#000"/><path opacity=".1" d="M104.24 64.694s8.28-1.651 8.566-1.651c1.335 0 3.482-1.863 4.71-3.04a3.009 3.009 0 0 1 1.335-.74h-.106a3.059 3.059 0 0 0-2.202.84c-1.228 1.177-3.379 3.04-4.71 3.04-.233 0-5.53 1.049-7.681 1.474l.089.077zm23.001-7.217v-.363a20.704 20.704 0 0 1-6.346 2.026 19.646 19.646 0 0 0 6.346-1.663zm-10.237 37.54s-1.168-3.791-.286-5.734c.882-1.943 1.947-10.886 1.947-10.886l-2.136-6.608h-4.104l-.249.097h3.365l2.133 6.611s-1.07 8.943-1.947 10.886c-.876 1.943.286 5.734.286 5.734l7.695-.286v-.06l-6.704.246zm30.782-3.254a3.379 3.379 0 0 1-.572.397c-1.26.694-2.818.286-5.18-2.146-2.166-2.237-2.796-5.714-2.965-7.031l-.057 1.005s.286 4.763 3.021 7.58c2.363 2.44 3.92 2.84 5.18 2.146a3.38 3.38 0 0 0 .573-.397c.41-.351.433-1.011.218-1.834a.9.9 0 0 1-.218.28zm17.035-21.723l-2.757 3.18a2.978 2.978 0 0 1-2.125 1.02c-1.59.066-4.35.086-6.681-.369-3.165-.614-5.539-2.02-7.329-1.217a2.65 2.65 0 0 0-.572.34s-1.573 4.897-1.332 8.232c.186-3.118 1.332-6.678 1.332-6.678a2.65 2.65 0 0 1 .572-.34c1.793-.802 4.164.603 7.329 1.218 2.33.451 5.088.431 6.68.368.456-.018.9-.14 1.3-.357.312-.167.592-.389.825-.654l4.242-4.883a1.672 1.672 0 0 1-1.484.14z" fill="#000"/><path d="M0 0a.221.221 0 0 0 .262.034A.892.892 0 0 1 0 0z" transform="translate(40.281 105.037)" fill="url(#paint1_linear)"/><path d="M69.465 14.361a44.81 44.81 0 0 1-2.136-.7 11.169 11.169 0 0 0 1.979-3.977l-.075.029c.026-.089.052-.174.075-.266-1.699.689-3.577-.477-4.774-1.974-1.197-1.497-2.005-3.354-3.317-4.732A15.163 15.163 0 0 0 59.46 1.23c-.386-.286-.802-.609-1.274-.623-.765-.023-1.363.726-2.1.946a2.87 2.87 0 0 1-1.463-.055C52.724 1.064 50.9.261 48.961.05a6.65 6.65 0 0 0-3.073.346c-.974.368-1.417 1.102-2.205 1.691-.859.631-2.537.617-3.537.729a25.4 25.4 0 0 1-3.654.151 8.573 8.573 0 0 0-2.102.077c-1.452.317-2.617 1.469-3.705 2.572-.297.25-.511.583-.613.957a1.203 1.203 0 0 0 0 .317c-.011.288.039.575.146.843.335.992.808 1.931 1.406 2.791.444.635.962 1.232 1.214 1.983.12.37.182.755.186 1.143a8.305 8.305 0 0 1-.129 1.229 15.398 15.398 0 0 1-.942 3.27 5.933 5.933 0 0 0-.55 1.715 2.721 2.721 0 0 0 0 .366c-.071 1.886 1.836 3.243 2.206 5.117.03.156.048.313.054.471-.04 1.17-.707 2.312-1.692 2.766.085.035.174.063.263.092-.085.053-.173.1-.264.143.18.068.364.128.55.177a12.75 12.75 0 0 0-2.78 3.428C26.426 38.578 3.986 50.633 3.986 50.633l.333.188-.27.175c-1.941 1.288-6.497 5.045-2.38 9.797 0 0 3.217-5.063 5.47-7.22.1-.097.2-.186.287-.269a.657.657 0 0 1 .086.52l14.753-8.271s5.244-3.663 6.707-4.489a12.069 12.069 0 0 1 3.325-1.428l-.172.071a6.746 6.746 0 0 1 1.693-.24c2.611.04 5.44 1.949 6.371 9.506 1.249 10.12.67 11.946.27 12.194a.746.746 0 0 1-.147-.026.37.37 0 0 0 .04.029.773.773 0 0 1-.16-.029.23.23 0 0 0 .218.052.203.203 0 0 0 .163-.02c.066.004.132.004.198 0 0 .093-.007.188-.02.285-.02 0-.118.055 0 .06a18.77 18.77 0 0 0 0 1.84 666.94 666.94 0 0 0-3.723.218l.1-.535.046-.24c.996-.08 1.941-.371 2.053-1.177.244-1.771-2.193-2.717-4.267-2.834-2.073-.117-14.507.709-14.507.709s-1.865 2.408 4.049 3.142l.547.286c2.317 1.317 5.458 3.743 6.965 4.937l.208.166-.675.549c3.657.825 7.193 14.768 9.143 21.142 1.95 6.375 6.218 6.143 9.754 5.197 3.314-.885 3.723-10.485 3.777-11.69v-.124l5.894 7.263.447.551c.172.09.342.174.51.252 4.461 2.117 9.39-1.943 7.99-6.572-1.418-4.665-3.618-11.565-5.084-14.482-1.228-2.443-2.815-6.5-3.777-9.04.125-.05.246-.109.364-.175 0 0-.023-.114-.06-.323l.06-.03s-1.432-7.35-1.495-12.572v-.455c1.065-.242 1.74-.337 1.74-.337l.02-.228-.122.025.593-6.768s2.176-4.62.51-6.543a4.036 4.036 0 0 1-.977-2c-.287-1.769 0-4.72 3.88-7.172 5.974-3.78 8.305-6.857 8.305-6.857s.103-2.205-3.554-3.28zm-11.864 4.697V15.93c1.108-.054 2.24.074 3.353 0a8.503 8.503 0 0 0 1.618-.271l.27.185a29.506 29.506 0 0 1-5.241 3.214zm-16.94 49.04c.439.303.88.618 1.312.935.27 1.543.507 2.631.525 2.708a21.37 21.37 0 0 0-1.836-3.642z" transform="translate(0 43.347)" fill="url(#paint2_linear)"/><path d="M50.131 108.874l-.258 1.397-.197 1.069-.361 1.954-3.5 2.443s-.315-.269-.836-.694c-1.432-1.178-4.447-3.566-6.66-4.858a7.454 7.454 0 0 0-1.83-.842l13.642-.469z" fill="#FFBDC6"/><path opacity=".1" d="M50.13 108.874l-.258 1.397c-.771.043-1.545.004-2.308-.117l-8.164.117a25.722 25.722 0 0 1-1.086-.088 7.454 7.454 0 0 0-1.83-.843l13.646-.466z" fill="#000"/><path d="M47.564 109.926s4.084.697 4.316-1.049c.232-1.746-2.099-2.666-4.078-2.797-1.979-.131-13.883.703-13.883.703s-2.1 2.791 5.481 3.257l8.164-.114z" fill="#7679B4"/><path opacity=".1" d="M50.131 108.874l-.258 1.397-.197 1.069-.361 1.954-3.5 2.443s-.315-.269-.836-.694c-1.432-1.178-4.447-3.566-6.66-4.858a7.454 7.454 0 0 0-1.83-.842l13.642-.469z" fill="#000"/><path opacity=".1" d="M50.13 108.874l-.258 1.397c-.771.043-1.545.004-2.308-.117l-8.164.117a25.722 25.722 0 0 1-1.086-.088 7.454 7.454 0 0 0-1.83-.843l13.646-.466z" fill="#000"/><path opacity=".1" d="M47.564 109.926s4.084.697 4.316-1.049c.232-1.746-2.099-2.666-4.078-2.797-1.979-.131-13.883.703-13.883.703s-2.1 2.791 5.481 3.257l8.164-.114z" fill="#000"/><path d="M56.484 52.551H35.14v25.252h21.343V52.55z" fill="#A66477"/><path opacity=".1" d="M56.484 52.551H35.14v25.252h21.343V52.55z" fill="#000"/><path d="M10.125 95.783c-.352.088-.799.425-1.3.917-2.156 2.126-5.232 7.111-5.232 7.111-3.94-4.68.421-8.38 2.291-9.651.453-.309.756-.474.756-.474l3.485 2.097zm39.772-35.26s1.05 7.331 4.665 9.077c3.614 1.746-4.665 5.003-4.665 5.003l-11.315-4.189s6.415-2.094 5.132-8.263l6.183-1.628zM37.78 104.626l-.258 1.397-.198 1.069-.36 1.954-3.5 2.443s-.315-.269-.836-.694c-1.432-1.178-4.448-3.566-6.661-4.858a7.454 7.454 0 0 0-1.83-.842l13.642-.469z" fill="#FFBDC6"/><path opacity=".1" d="M37.778 104.626l-.257 1.397a10.87 10.87 0 0 1-2.308-.117l-8.165.117a25.706 25.706 0 0 1-1.085-.088 7.454 7.454 0 0 0-1.83-.843l13.645-.466z" fill="#000"/><path d="M35.2 105.674s4.084.697 4.316-1.049c.232-1.745-2.1-2.677-4.084-2.791-1.984-.114-13.88.697-13.88.697s-2.1 2.792 5.481 3.257l8.167-.114z" fill="#7679B4"/><path opacity=".1" d="M37.31 107.094l-.361 1.954-3.5 2.443s-.315-.269-.836-.694l4.628-3.786.069.083z" fill="#000"/><path d="M60.4 133.734c-.161-.078-.323-.16-.488-.248l-.426-.543-5.636-7.143v.125c-.037 1.186-.444 10.643-3.611 11.515-3.382.931-7.466 1.163-9.33-5.12-1.864-6.283-5.25-20.015-8.749-20.829l5.19-4.248s3.436 4 4.839 7.851c-.052-.246-2.426-11.306-.467-13.26H58.75s2.623 7.469 4.433 11.171c1.403 2.875 3.508 9.669 4.868 14.266 1.346 4.549-3.356 8.549-7.652 6.463z" fill="#7679B4"/><path opacity=".1" d="M59.925 103.926c-2.626 1.551-14.172.92-17.935.668l-1.023-.074c-.111 0 .018-.063.018-.063l.106-1.057 2.797-7.097 14.989-8.663c-.303.911-.407 2.308-.38 3.911.074 5.137 1.428 12.375 1.428 12.375z" fill="#000"/><path d="M59.924 103.58c-2.626 1.551-14.173.92-17.936.669l-1.022-.075h-.17l.187-.048.922-.243 1.982-7.914L58.876 87.3c-.304.911-.407 2.309-.381 3.911.074 5.129 1.429 12.369 1.429 12.369z" fill="#F2F1F2"/><path opacity=".1" d="M58.499 91.2c-3.047.7-9.754 2.76-12.332 7.714-1.718 3.309-3.15 4.729-4.172 5.323l-1.022-.074.017-.063.922-.243 1.982-7.914 14.988-8.669c-.309.937-.41 2.323-.383 3.926zM6.623 93.689l3.5 2.094c-.353.088-.8.426-1.3.917-.287-.857-2.125-2.034-2.956-2.537.453-.309.756-.474.756-.474zm33.734 10.62a.21.21 0 0 1-.248-.032c.08.023.164.033.248.032z" fill="#000"/><path d="M48.262 69.134s-3.15.349-5.367-1.977c0 0-9.33 2.677-12.48 8.729-3.15 6.051-24.61 17.92-24.61 17.92s3.723 2.094 3.382 3.143l14.112-8.146s5.014-3.609 6.415-4.423c1.4-.814 9.098-5.817 10.73 7.797 1.632 13.614 0 12 0 12s2.334.814 5.727-5.714c3.394-6.529 13.88-8.029 13.88-8.029l.574-6.857s2.081-4.548.486-6.446a4.025 4.025 0 0 1-.933-1.968c-.267-1.743 0-4.649 3.723-7.063 5.727-3.714 7.932-6.749 7.932-6.749s.117-2.211-3.382-3.257c-3.5-1.045-17.73-6.748-17.73-6.748l-.466 1.977 11.197 7.914s-5.598 4.537-10.023 4.423c-.017-.02.8 3.357-3.167 3.474z" fill="#565388"/><path opacity=".1" d="M50.424 63.714a22.812 22.812 0 0 1-.644-2.857l-6.183 1.64a6.785 6.785 0 0 1-.14 3.557 6.664 6.664 0 0 0 6.967-2.343v.003z" fill="#000"/><path d="M45.29 65.934c3.673 0 6.65-2.97 6.65-6.634s-2.977-6.634-6.65-6.634c-3.672 0-6.65 2.97-6.65 6.634s2.978 6.634 6.65 6.634z" fill="#FFBDC6"/><path opacity=".1" d="M48.823 44.211c1.845.209 3.6 1 5.416 1.429.453.142.937.16 1.4.054.704-.217 1.277-.954 2.005-.931.45 0 .859.32 1.22.614.597.452 1.16.95 1.68 1.489 1.252 1.357 2.03 3.185 3.174 4.66C64.86 53 66.66 54.148 68.285 53.47c-1.102 4.286-4.722 7.563-8.634 7.829-1.56.106-3.15-.217-4.67.24-.378.153-.775.25-1.18.286-.86 0-1.57-.798-2.114-1.572-1.271-1.823-2.29-3.891-3.723-5.551-.472-.549-1.03-1.072-1.698-1.172-.667-.1-1.283.217-1.879.526-.982.509-1.987 1.034-2.749 1.903-.761.868-1.243 2.168-.928 3.346.17.634.559 1.205.573 1.871 0 1.057-.922 1.831-1.108 2.857-.041.433-.056.868-.046 1.303-.083 1.411-1.005 2.571-1.973 3.454-.375.346-.793.715-.902 1.249-.074.363 0 .748-.049 1.117-.14.917-1.056 1.38-1.867 1.5a5.424 5.424 0 0 1-2.8-.331c1.145-.535 1.83-2.058 1.566-3.429-.36-1.889-2.262-3.243-2.102-5.169a5.97 5.97 0 0 1 .527-1.7 15.59 15.59 0 0 0 .9-3.222 5.47 5.47 0 0 0-.055-2.572c-.244-.74-.74-1.328-1.163-1.954a11.082 11.082 0 0 1-1.346-2.752c-.116-.288-.16-.6-.129-.908.093-.364.292-.693.573-.943 1.042-1.089 2.16-2.223 3.545-2.537a7.968 7.968 0 0 1 2.005-.077 23.604 23.604 0 0 0 3.496-.149c.957-.111 2.578-.097 3.385-.72.753-.571 1.18-1.3 2.11-1.666a6.19 6.19 0 0 1 2.973-.317zm3.697 68.503s3.848 7.563 2.683 9.891l-2.683-9.891zm6.979 20.228l-5.636-7.142v.125s-.326-2.308.747-1.531c2.352 1.697 6.115 4.48 6.195 4.96.08.48-.762 2.406-1.306 3.588z" fill="#000"/><path opacity=".1" d="M51.523 65.64s.476 1.966-1.062 2.949c2.368-.406 2.471-2.243 2.4-3.043a7.48 7.48 0 0 1-1.338.094zM7.208 93.34s21.46-11.868 24.61-17.92c2.26-4.343 7.704-6.946 10.596-8.071-2.11.705-9.213 3.411-11.881 8.537-3.15 6.051-24.611 17.92-24.611 17.92l1.286-.466zm48.489-28.623c3.652-1.143 7.142-3.963 7.142-3.963L51.642 52.84l.255-1.086-1.07-.428-.468 1.977 11.197 7.914a27.033 27.033 0 0 1-5.859 3.5zm.073 26.817a27.796 27.796 0 0 1 4.39-1.105l.02-.226c-1.503.33-2.977.774-4.41 1.331zm-13.571 12.192h-.103a.21.21 0 0 1-.246-.032.86.86 0 0 0 .246.032c.384-.223.96-1.96-.246-12.017-1.29-10.738-6.346-9.895-9.116-8.66 2.83-.778 6.724-.106 7.833 9.125 1.205 10.057.63 11.797.246 12.017.497-.018.979-.18 1.386-.465zm-1.385.469a.863.863 0 0 1-.248-.032.21.21 0 0 0 .248.032z" fill="#000"/><path d="M48.823 43.986c1.845.208 3.6 1 5.416 1.428.453.142.937.16 1.4.055.704-.218 1.277-.955 2.005-.932.45 0 .859.32 1.22.614.597.453 1.16.95 1.68 1.489 1.252 1.357 2.03 3.186 3.174 4.66 1.142 1.474 2.943 2.623 4.567 1.946-1.102 4.285-4.722 7.562-8.634 7.828-1.56.106-3.15-.217-4.67.24-.378.153-.775.25-1.18.286-.86 0-1.57-.797-2.114-1.572-1.271-1.822-2.29-3.89-3.723-5.55-.472-.55-1.03-1.072-1.698-1.172-.667-.1-1.283.217-1.879.525-.982.509-1.987 1.035-2.749 1.903-.761.869-1.243 2.169-.928 3.346.17.634.559 1.206.573 1.871 0 1.058-.922 1.832-1.108 2.858-.041.433-.056.868-.046 1.302-.083 1.412-1.005 2.572-1.973 3.455-.375.345-.793.714-.902 1.248-.074.363 0 .749-.049 1.117-.14.918-1.056 1.38-1.867 1.5a5.424 5.424 0 0 1-2.8-.331c1.145-.534 1.83-2.057 1.566-3.429-.36-1.888-2.262-3.242-2.102-5.168a5.97 5.97 0 0 1 .527-1.7c.415-1.04.716-2.12.9-3.223.186-.85.168-1.73-.055-2.571-.244-.74-.74-1.329-1.163-1.955a11.082 11.082 0 0 1-1.346-2.751 1.92 1.92 0 0 1-.129-.909c.093-.364.292-.692.573-.943 1.042-1.088 2.16-2.222 3.545-2.537a7.968 7.968 0 0 1 2.005-.077 23.605 23.605 0 0 0 3.496-.148c.957-.112 2.578-.098 3.385-.72.753-.572 1.18-1.3 2.11-1.666a6.19 6.19 0 0 1 2.973-.317z" fill="#A66477"/><path d="M60.695 7.454V7.35c0-.035 0-.075-.017-.109h-.046v-.237c-.115-2.649-3.786-8.286-5.258-6.64-1.289 1.446.656 5.103 1.647 6.748l.088.149-.048-.031s-4.098 12.194-4.582 12.668c-.484.474-3.858 10.063-8.305 11.143-.88.209-1.61.397-2.222.571L42 31.45c.286-.935.638-1.818.781-2.858.144-1.04 0-2.3-.527-2.805-.257-.252-.572-.286-.784-.686a3.162 3.162 0 0 1-.218-1.1l-.378-4.623.264-.08c1.592-.509 3.135-1.714 3.316-3.337a1.72 1.72 0 0 1-.17.054 2.88 2.88 0 0 0 .05-.285c-1.338.525-2.578-.858-3.867-1.478-2.122-1.037-4.547-.06-6.738.178-2.483.271-4.84-.758-7.377-.572-1.38.106-2.915 1.04-2.84 2.397.042.746.572 1.377.79 2.092.55 1.728-.673 3.462-1.744 4.937-.705.968-1.38 2.148-1.5 3.285-2.466-2.57-5.133-5.542-5.442-6.66L8.484 7.714s-.17.18-.441.446a11.863 11.863 0 0 0-.152-.44C6.981 5.174 4.403-.994 1.135.137-2.132 1.27 2.49 7.591 4.5 10.111l.287.349a.907.907 0 0 1-.51-.023l7.955 13.614s1.447 2.606 2.772 3.315c0 0 9.883 12.431 10.003 14.917.12 2.486 4.445 9.117 4.445 9.117s1.446 10.774-1.086 12.669h.419a8.18 8.18 0 0 0-.37.385c-1.876 2.075-4.273 6.52-.996 14.08 4.82 11.143 5.544 15.509 5.544 15.509s-9.164.474-10.968.828c-1.598.315-7.81.535-9.23.572-.507-.589-2.005-1.892-4.026 0C6.207 97.81 4.4 105.729 4.4 105.729s-.965 6.394 2.291 4.734c0 0 3.858-5.329 4.94-5.566.538-.117 1.108-.908 1.543-1.671l.023.014c.026 0 .132-.057.304-.126.802-.317 3.01-1.08 4.75-.7.954.209 5.044.257 9.33.246-.967 2.314-2.703 8.286-2.703 8.286s-.724 5.568 1.681 5.34c1.719-.169 4.353-4.549 5.728-7.049.996-.728 3.852-3.34 5.962-3.143l14.221-5.445s3.374-1.895 1.567-8.169c-1.432-4.989-5.507-15.2-7.117-19.18l-.048-.103c-.39-.963-.625-1.534-.625-1.534a23.435 23.435 0 0 1-1.291-5.632 22.819 22.819 0 0 1-.037-.457c.199-.083.387-.192.558-.323 0 0-1.326-13.377 0-14.8l.023-.025v-.017l.023-.029.051-.066.063-.08a7.53 7.53 0 0 0 .255-.354c.76-1.109 2.174-3.64 1.767-6.629a8.153 8.153 0 0 0-.888-2.711 6.424 6.424 0 0 1-.105-.917v-.812c0-.134.022-.285.043-.411v-.051a.51.51 0 0 1 .025-.158v-.065c0-.052.023-.103.035-.155v-.054c.017-.069.034-.137.057-.206v-.034a2.58 2.58 0 0 1 .057-.169l.026-.065.057-.137.029-.069c.023-.051.049-.103.074-.154l.02-.043a3.49 3.49 0 0 1 .11-.186l.03-.048.095-.135.046-.06.1-.12.046-.051c.052-.054.103-.109.16-.16 1.567-1.429 8.557-11.957 8.557-11.957s1.687-2.369 1.687-3.906c.094-.034 3.075-9.949 2.775-12.963zm-18.766 88.5a201.749 201.749 0 0 1-.501-5.714l2.726 4.24s-.258 1.291-2.225 1.474z" transform="translate(178 21.64)" fill="url(#paint3_linear)"/><path d="M191.505 116.697s-1.632-2.572-4.084-.232c-2.45 2.34-4.198 10.123-4.198 10.123s-.933 6.286 2.217 4.654c0 0 3.723-5.237 4.782-5.468 1.06-.232 2.217-3.143 2.217-3.143l-.934-5.934zM209 122.98s-2.217-1.049-2.916-.231c-.699.817-3.033 8.96-3.033 8.96s-.699 5.354 1.632 5.12c2.332-.235 6.415-8.618 6.415-8.618L209 122.98z" fill="#493545"/><path opacity=".05" d="M209 122.98s-2.217-1.049-2.916-.231c-.699.817-3.033 8.96-3.033 8.96s-.699 5.354 1.632 5.12c2.332-.235 6.415-8.618 6.415-8.618L209 122.98z" fill="#000"/><path d="M216.694 107.154l5.015 7.797s-.35 1.746-3.383 1.398l-10.38 6.517s-.902 7.934 1.981 7.214c.467-.117 3.723-3.491 6.066-3.257l13.765-5.354s3.265-1.863 1.515-8.029c-1.75-6.166-7.534-20.463-7.534-20.463l-9.144 5.103 2.1 9.074z" fill="#3E3D77"/><path opacity=".05" d="M216.694 107.154l5.015 7.797s-.35 1.746-3.383 1.398l-10.38 6.517s-.902 7.934 1.981 7.214c.467-.117 3.723-3.491 6.066-3.257l13.765-5.354s3.265-1.863 1.515-8.029c-1.75-6.166-7.534-20.463-7.534-20.463l-9.144 5.103 2.1 9.074z" fill="#000"/><path d="M219.847 118.674c.699 4.423-3.265 4.772-3.265 4.772s-17.846.348-19.945-.117c-2.1-.466-4.9.814-4.9.814-3.617-2.212-.699-7.68-.699-7.68s7.466-.232 9.216-.572c1.75-.34 10.613-.822 10.613-.822s-.7-4.306-5.367-15.243c-3.17-7.429-.86-11.8.965-13.837a7.676 7.676 0 0 1 1.6-1.406l14.348.697c-.015.722.011 1.444.08 2.163.245 2.468.889 4.88 1.905 7.143-.817 0-6.066 4.888-6.066 4.888s.814 14.78 1.515 19.2z" fill="#3E3D77"/><path opacity=".1" d="M192.085 116.929s7.466-.232 9.216-.572c1.75-.34 10.612-.814 10.612-.814s-.698-4.306-5.366-15.243c-3.17-7.429-.86-11.8.965-13.837a7.676 7.676 0 0 1 1.6-1.406l13.294.646v-.415l-14.347-.697a7.676 7.676 0 0 0-1.6 1.406c-1.817 2.04-4.136 6.409-.966 13.837 4.68 10.929 5.372 15.235 5.372 15.235s-8.877.465-10.613.814c-1.735.348-9.215.571-9.215.571s-2.915 5.472.699 7.692c0 0 .109-.052.286-.126-2.402-2.466.063-7.091.063-7.091z" fill="#000"/><path d="M213.43 41.871h-7.231V60.14h7.23V41.87z" fill="#493545"/><path opacity=".1" d="M213.43 41.871h-7.231V60.14h7.23V41.87z" fill="#000"/><path d="M217.564 39.191c.25.069.53.078.699.42.105.274.162.564.169.858l.455 5.645c.006.37.078.736.212 1.08.192.383.51.429.759.675.501.497.647 1.742.51 2.757-.138 1.014-.484 1.883-.756 2.8-.39 1.314-.648 2.791-1.195 3.9-.547 1.108-1.54 1.714-2.182.783-.641-.932-.555-2.812-.676-4.352-.2-2.571-1.205-4.788-1.274-7.377-.057-2.094.507-4.049.86-6.034.251-1.363.265-3.017.632-4.243.306 1.457.89 2.843 1.787 3.088z" fill="#493545"/><path opacity=".1" d="M217.564 39.191c.25.069.53.078.699.42.105.274.162.564.169.858l.455 5.645c.006.37.078.736.212 1.08.192.383.51.429.759.675.501.497.647 1.742.51 2.757-.138 1.014-.484 1.883-.756 2.8-.39 1.314-.648 2.791-1.195 3.9-.547 1.108-1.54 1.714-2.182.783-.641-.932-.555-2.812-.676-4.352-.2-2.571-1.205-4.788-1.274-7.377-.057-2.094.507-4.049.86-6.034.251-1.363.265-3.017.632-4.243.306 1.457.89 2.843 1.787 3.088z" fill="#000"/><path d="M186.956 31.166l-2.798 2.328s-.332-.388-.828-1.017c-1.944-2.477-6.414-8.691-3.256-9.803 3.159-1.111 5.656 4.949 6.538 7.452.224.634.344 1.04.344 1.04zm50.502-.815c-1.166 1.746-2.798 0-2.798 0s-.21-.311-.504-.814c-.96-1.62-2.841-5.211-1.595-6.634 1.432-1.626 4.98 3.923 5.088 6.525.034.32-.033.643-.191.923zm-28.692 18.852s2.334 7.448 1.632 9.657c-.701 2.208 5.018 4.78 5.018 4.78h6.532s2.334-4.771 1.75-6.169c-.585-1.397-5.6-2.442-5.6-2.442s-2.914 0-2.797-7.798l-6.535 1.972z" fill="#C77485"/><path opacity=".1" d="M186.953 31.166l-2.797 2.328s-.333-.388-.828-1.017c1.017-.18 2.595-1.66 3.285-2.351.22.634.34 1.04.34 1.04zm50.505-.815c-1.166 1.746-2.798 0-2.798 0s-.209-.311-.504-.814l.037-.117c.756.54 3.107.08 3.457 0 .035.323-.032.649-.192.931zM222.486 87.44c-3.608 1.643-15.333-1.283-16.037-1.457a7.675 7.675 0 0 1 1.6-1.406l14.348.697c-.013.723.017 1.446.089 2.166z" fill="#000"/><path d="M210.284 55.603s-2.798.931-6.764-2.677c0 0-8.878-8.729-9.45-10.823l-6.873-12s-2.916 3.143-4.084 2.677l7.698 13.383s1.4 2.571 2.683 3.257c0 0 9.565 12.22 9.68 14.663.114 2.443 4.31 8.986 4.31 8.986s1.4 10.588-1.052 12.451c0 0 13.646 3.491 16.56 1.163 0 0-1.282-13.143 0-14.546 0 0 3.967-4.654 1.284-9.774 0 0-.573-2.792.933-4.189 1.507-1.397 8.282-11.754 8.282-11.754s1.633-2.329 1.633-3.84c0 0 3.032-10.24 2.577-12.917 0 0-2.683.571-3.5 0 0 0-3.966 12-4.433 12.451-.466.452-3.722 9.892-8.047 10.94-4.324 1.049-5.014 1.512-5.014 1.512s8.396 5.237 4.316 7.562c-4.081 2.326-10.74-6.525-10.74-6.525z" fill="#FFAAC4"/><path opacity=".1" d="M215.584 50.994a22.187 22.187 0 0 1-.169-3.305l-6.532 1.977c.172.434.309.88.41 1.337.747.328 1.755 1.106 2.623 1.106a5.957 5.957 0 0 0 3.668-1.115z" fill="#000"/><path d="M211.795 51.763c3.35 0 6.066-2.71 6.066-6.052 0-3.342-2.716-6.051-6.066-6.051-3.35 0-6.065 2.71-6.065 6.051 0 3.342 2.716 6.052 6.065 6.052z" fill="#C77485"/><path opacity=".1" d="M204.582 36.388c-1.335.103-2.824 1.023-2.75 2.358.04.734.545 1.354.765 2.057.53 1.7-.65 3.405-1.687 4.857-1.036 1.451-2.004 3.374-1.116 4.911.253.37.526.726.819 1.066 1.096 1.477 1.082 3.471 1.569 5.246a9.205 9.205 0 0 0 4.107 5.438 9.242 9.242 0 0 0 6.73 1.133 5.745 5.745 0 0 1-1.218-3.891c.066-1.017.395-2.08 0-3.02-.51-1.209-2.005-1.686-2.775-2.743s-.719-2.523-.346-3.783c.372-1.26 1.016-2.429 1.325-3.714.077-.375.172-.746.287-1.112.538-1.525 2.148-2.411 3.723-2.791 1.575-.38 3.23-.403 4.768-.903 1.538-.5 3.032-1.671 3.21-3.28-1.294.517-2.494-.831-3.743-1.451-2.056-1.018-4.401-.06-6.52.174-2.415.268-4.706-.729-7.148-.552z" fill="#000"/><path d="M204.46 36.157c-1.334.103-2.823 1.023-2.748 2.357.04.734.544 1.354.764 2.057.53 1.7-.65 3.406-1.687 4.857-1.036 1.452-2.004 3.375-1.116 4.912.253.37.526.726.819 1.066 1.096 1.477 1.082 3.471 1.569 5.245a9.205 9.205 0 0 0 4.107 5.439 9.242 9.242 0 0 0 6.73 1.133 5.745 5.745 0 0 1-1.218-3.892c.066-1.017.395-2.08 0-3.02-.51-1.208-2.004-1.685-2.775-2.743-.77-1.057-.719-2.522-.346-3.782.372-1.26 1.016-2.429 1.326-3.715.076-.375.171-.746.286-1.111.538-1.526 2.148-2.412 3.723-2.792 1.575-.38 3.23-.402 4.768-.902 1.538-.5 3.032-1.672 3.21-3.28-1.294.517-2.494-.832-3.743-1.452-2.056-1.017-4.401-.06-6.52.174-2.409.266-4.691-.742-7.148-.551z" fill="#493545"/><path opacity=".1" d="M217.805 59.154s2.428 2.163 2.907 3.117l-2.907-3.117zm5.255 12.917s-3.033 0-4.434.349c-1.4.348-4.782 0-4.782 0" fill="#000"/><path opacity=".1" d="M221.01 62.12a2.92 2.92 0 0 1-.838.32c.76.168 1.556.054 2.239-.32 4.084-2.329-4.316-7.563-4.316-7.563h-1.4s8.4 5.237 4.316 7.563zm16.705-32.254c0-.075-.018-.146-.03-.212-.479.1-.963.173-1.451.22.492.054.989.051 1.48-.008zM207.83 85.511c2.449-1.862 1.051-12.451 1.051-12.451s-4.198-6.517-4.315-8.96c-.118-2.443-9.68-14.663-9.68-14.663-1.283-.697-2.683-3.257-2.683-3.257s-7.932-12.917-9.098-13.383l7.698 13.383s1.4 2.571 2.683 3.257c0 0 9.565 12.22 9.68 14.663.114 2.443 4.312 8.968 4.312 8.968s1.4 10.59-1.051 12.452c0 0 8.388 2.146 13.416 1.951-5.04-.177-12.013-1.96-12.013-1.96zm2.517-29.817l-.069-.088c-.08.023-.16.041-.243.054.109.014.212.026.312.034z" fill="#000"/><path opacity=".1" d="M237.69 29.64l-.072.014c-.123 3.574-2.609 11.972-2.609 11.972 0 1.511-1.632 3.84-1.632 3.84s-6.764 10.357-8.282 11.754c-1.518 1.397-.933 4.188-.933 4.188l.014.03c-.046-.94.069-2.398 1.034-3.29 1.515-1.397 8.281-11.754 8.281-11.754s1.633-2.328 1.633-3.84c0 .017 3.032-10.223 2.566-12.914zm-14.811 41.557c.175.989.057-.057.117.932 0 0 2.864-3.352 2.082-7.495.235 3.703-2.199 6.563-2.199 6.563z" fill="#000"/><path opacity=".1" d="M134.538 189c67.64 0 122.472-5.255 122.472-11.737s-54.833-11.737-122.472-11.737-122.472 5.255-122.472 11.737S66.9 189 134.538 189z" fill="#2C7BE5"/><path d="M87.063 165.354s-4.17-14.128.782-24.526a22.268 22.268 0 0 0 1.81-14 37.463 37.463 0 0 0-1.987-6.571" stroke="#535461" stroke-width="2" stroke-miterlimit="10"/><path d="M90.758 113.692c0 1.731-3.15 6.751-3.15 6.751s-3.15-5.02-3.15-6.751a3.136 3.136 0 0 1 1.882-3.113 3.156 3.156 0 0 1 4.232 1.84c.143.409.2.842.169 1.273h.017zm5.185 9.588c-.942 1.454-6.314 3.963-6.314 3.963s.097-5.917 1.04-7.371a3.145 3.145 0 0 1 1.99-1.53 3.157 3.157 0 0 1 3.392 1.311 3.139 3.139 0 0 1-.108 3.627zm-.228 16.391c-1.55.78-7.445.24-7.445.24s3.078-5.06 4.627-5.84a3.155 3.155 0 0 1 4.434 1.28 3.137 3.137 0 0 1-1.604 4.317l-.012.003zm-2.966 12.359c-1.395 1.03-7.311 1.495-7.311 1.495s2.176-5.506 3.573-6.537a3.156 3.156 0 0 1 4.172.821 3.138 3.138 0 0 1-.449 4.219l.015.003zm-9.725-24.45c1.246 1.206 7.045 2.457 7.045 2.457s-1.432-5.746-2.666-6.954a3.15 3.15 0 0 0-3.546-.816 3.15 3.15 0 0 0-1.752 1.8 3.136 3.136 0 0 0 .92 3.513zm-3.284 14.503c1.549.78 7.445.24 7.445.24s-3.067-5.06-4.616-5.826a3.157 3.157 0 0 0-4.02 1.488 3.136 3.136 0 0 0 1.19 4.11v-.012zm-1.26 14.532c1.395 1.028 7.311 1.494 7.311 1.494s-2.176-5.506-3.573-6.537a3.152 3.152 0 0 0-5.178 2.962 3.14 3.14 0 0 0 1.455 2.078l-.015.003z" fill="#2C7BE5"/><path opacity=".1" d="M90.758 113.692c0 1.731-3.15 6.751-3.15 6.751s-3.15-5.02-3.15-6.751a3.136 3.136 0 0 1 1.882-3.113 3.156 3.156 0 0 1 4.232 1.84c.143.409.2.842.169 1.273h.017zm5.185 9.588c-.942 1.454-6.314 3.963-6.314 3.963s.097-5.917 1.04-7.371a3.145 3.145 0 0 1 1.99-1.53 3.157 3.157 0 0 1 3.392 1.311 3.139 3.139 0 0 1-.108 3.627zm-.228 16.391c-1.55.78-7.445.24-7.445.24s3.078-5.06 4.627-5.84a3.155 3.155 0 0 1 4.434 1.28 3.137 3.137 0 0 1-1.604 4.317l-.012.003zm-2.966 12.359c-1.395 1.03-7.311 1.495-7.311 1.495s2.176-5.506 3.573-6.537a3.156 3.156 0 0 1 4.172.821 3.138 3.138 0 0 1-.449 4.219l.015.003zm-9.725-24.45c1.246 1.206 7.045 2.457 7.045 2.457s-1.432-5.746-2.666-6.954a3.15 3.15 0 0 0-3.546-.816 3.15 3.15 0 0 0-1.752 1.8 3.136 3.136 0 0 0 .92 3.513zm-3.284 14.503c1.549.78 7.445.24 7.445.24s-3.067-5.06-4.616-5.826a3.157 3.157 0 0 0-4.02 1.488 3.136 3.136 0 0 0 1.19 4.11v-.012zm-1.26 14.532c1.395 1.028 7.311 1.494 7.311 1.494s-2.176-5.506-3.573-6.537a3.152 3.152 0 0 0-5.178 2.962 3.14 3.14 0 0 0 1.455 2.078l-.015.003z" fill="#2C7BE5"/><path d="M171.443 165.557s-4.17-14.128.781-24.526a22.268 22.268 0 0 0 1.81-14 37.465 37.465 0 0 0-1.987-6.571" stroke="#535461" stroke-width="2" stroke-miterlimit="10"/><path d="M175.128 113.89c0 1.732-3.15 6.752-3.15 6.752s-3.15-5.02-3.15-6.751a3.14 3.14 0 0 1 .998-2.071 3.154 3.154 0 0 1 4.287 0c.583.54.94 1.28.998 2.07h.017zm5.194 9.59c-.942 1.454-6.314 3.963-6.314 3.963s.097-5.917 1.04-7.371a3.145 3.145 0 0 1 1.99-1.53 3.157 3.157 0 0 1 3.392 1.311 3.139 3.139 0 0 1-.108 3.627zm-.216 16.391c-1.55.78-7.446.24-7.446.24s3.078-5.06 4.628-5.84a3.155 3.155 0 0 1 4.446 1.279 3.137 3.137 0 0 1-1.628 4.321zm-2.983 12.359c-1.395 1.03-7.311 1.495-7.311 1.495s2.176-5.506 3.574-6.537a3.156 3.156 0 0 1 4.172.821 3.138 3.138 0 0 1-.45 4.219l.015.003zm-9.716-24.45c1.246 1.206 7.045 2.457 7.045 2.457s-1.432-5.746-2.666-6.954a3.15 3.15 0 0 0-3.547-.816 3.15 3.15 0 0 0-1.752 1.8 3.136 3.136 0 0 0 .92 3.513zm-3.293 14.503c1.55.78 7.446.24 7.446.24s-3.079-5.06-4.628-5.84a3.157 3.157 0 0 0-4.02 1.488 3.136 3.136 0 0 0 1.19 4.11l.012.002zm-1.256 14.531c1.394 1.028 7.31 1.494 7.31 1.494s-2.176-5.506-3.573-6.537a3.156 3.156 0 0 0-4.172.821 3.138 3.138 0 0 0 .45 4.219l-.015.003z" fill="#2C7BE5"/><path opacity=".1" d="M175.128 113.89c0 1.732-3.15 6.752-3.15 6.752s-3.15-5.02-3.15-6.751a3.14 3.14 0 0 1 .998-2.071 3.154 3.154 0 0 1 4.287 0c.583.54.94 1.28.998 2.07h.017zm5.194 9.59c-.942 1.454-6.314 3.963-6.314 3.963s.097-5.917 1.04-7.371a3.145 3.145 0 0 1 1.99-1.53 3.157 3.157 0 0 1 3.392 1.311 3.139 3.139 0 0 1-.108 3.627zm-.216 16.391c-1.55.78-7.446.24-7.446.24s3.078-5.06 4.628-5.84a3.155 3.155 0 0 1 4.446 1.279 3.137 3.137 0 0 1-1.628 4.321zm-2.983 12.359c-1.395 1.03-7.311 1.495-7.311 1.495s2.176-5.506 3.574-6.537a3.156 3.156 0 0 1 4.172.821 3.138 3.138 0 0 1-.45 4.219l.015.003zm-9.716-24.45c1.246 1.206 7.045 2.457 7.045 2.457s-1.432-5.746-2.666-6.954a3.15 3.15 0 0 0-3.547-.816 3.15 3.15 0 0 0-1.752 1.8 3.136 3.136 0 0 0 .92 3.513zm-3.293 14.503c1.55.78 7.446.24 7.446.24s-3.079-5.06-4.628-5.84a3.157 3.157 0 0 0-4.02 1.488 3.136 3.136 0 0 0 1.19 4.11l.012.002zm-1.256 14.531c1.394 1.028 7.31 1.494 7.31 1.494s-2.176-5.506-3.573-6.537a3.156 3.156 0 0 0-4.172.821 3.138 3.138 0 0 0 .45 4.219l-.015.003z" fill="#2C7BE5"/><path opacity=".5" d="M191.845 4.369h-1.798a1.263 1.263 0 0 0 1.218-.761 1.255 1.255 0 0 0-1.218-1.75h-14.582a1.261 1.261 0 0 0-1.2 1.255 1.256 1.256 0 0 0 1.2 1.256h1.798a1.261 1.261 0 0 0-1.2 1.255 1.256 1.256 0 0 0 1.2 1.256h-2.517a1.263 1.263 0 0 0-1.218.76 1.255 1.255 0 0 0 .718 1.674c.16.06.33.086.5.077h14.57a1.263 1.263 0 0 0 1.32-1.255 1.255 1.255 0 0 0-1.32-1.256h2.53a1.261 1.261 0 0 0 1.2-1.256 1.256 1.256 0 0 0-1.2-1.255zm-84.255 7.325h-1.369a.962.962 0 0 0 1.012-.956.956.956 0 0 0-1.012-.955H95.133a.96.96 0 0 0-.907.955.956.956 0 0 0 .907.956h1.369a.961.961 0 0 0-1.012.956.955.955 0 0 0 1.012.956h-1.916a.961.961 0 0 0-1.012.955.955.955 0 0 0 1.012.956h11.088a.961.961 0 0 0 1.012-.956.956.956 0 0 0-1.012-.955h1.916a.96.96 0 0 0 .907-.956.956.956 0 0 0-.907-.956z" fill="#DEE3F3"/><path d="M14.518 147.069s5.012 9.814.928 15.183c-4.084 5.368.372 20 .372 20" stroke="#2C7BE5" stroke-miterlimit="10"/><path d="M16.014 144c0 1.892-1.392 3.43-1.392 3.43s-1.392-1.535-1.392-3.43c0-1.894 1.392-3.428 1.392-3.428s1.392 1.537 1.392 3.429z" fill="#2C7BE5"/><path d="M17.116 147.069s-5.012 9.814-.928 15.183c4.084 5.368-.372 20-.372 20" stroke="#2C7BE5" stroke-miterlimit="10"/><path d="M15.633 144c0 1.892 1.392 3.43 1.392 3.43s1.391-1.535 1.391-3.43c0-1.894-1.391-3.428-1.391-3.428s-1.392 1.537-1.392 3.429z" fill="#2C7BE5"/><path opacity=".1" d="M15.633 144c0 1.892 1.392 3.43 1.392 3.43s1.391-1.535 1.391-3.43c0-1.894-1.391-3.428-1.391-3.428s-1.392 1.537-1.392 3.429z" fill="#000"/><path d="M19.163 147.069s5.011 9.814.927 15.183c-4.083 5.368.373 20 .373 20" stroke="#2C7BE5" stroke-miterlimit="10"/><path d="M20.643 144c0 1.892-1.392 3.43-1.392 3.43s-1.392-1.535-1.392-3.43c0-1.894 1.392-3.428 1.392-3.428s1.392 1.537 1.392 3.429zm-.782 7.863c-1.314 1.362-3.384 1.505-3.384 1.505s.063-2.068 1.377-3.428c1.314-1.36 3.385-1.506 3.385-1.506s-.072 2.063-1.378 3.429zm.133 6.772c-1.314 1.362-3.385 1.505-3.385 1.505s.063-2.068 1.378-3.428c1.314-1.36 3.385-1.506 3.385-1.506s-.063 2.063-1.378 3.429zm-7.129 3.722c1.242 1.429 1.2 3.497 1.2 3.497s-2.06-.248-3.302-1.677c-1.243-1.428-1.2-3.497-1.2-3.497s2.059.249 3.302 1.677zm1.145-14.432c1.58 1.046 2.093 3.052 2.093 3.052s-2.05.311-3.63-.735c-1.581-1.045-2.094-3.051-2.094-3.051s2.059-.317 3.631.734z" fill="#2C7BE5"/><path opacity=".1" d="M14.01 147.925c1.58 1.046 2.093 3.052 2.093 3.052s-2.05.311-3.63-.735c-1.581-1.045-2.094-3.051-2.094-3.051s2.059-.317 3.631.734z" fill="#000"/><path d="M21.757 147.069s-5.012 9.814-.928 15.183c4.083 5.368-.373 20-.373 20" stroke="#2C7BE5" stroke-miterlimit="10"/><path d="M20.273 144c0 1.892 1.392 3.43 1.392 3.43s1.392-1.535 1.392-3.43c0-1.894-1.392-3.428-1.392-3.428s-1.392 1.537-1.392 3.429z" fill="#2C7BE5"/><path opacity=".1" d="M20.273 144c0 1.892 1.392 3.43 1.392 3.43s1.392-1.535 1.392-3.43c0-1.894-1.392-3.428-1.392-3.428s-1.392 1.537-1.392 3.429z" fill="#000"/><path d="M20.674 152.009c-1.332 1.348-1.432 3.428-1.432 3.428s2.07-.117 3.402-1.465c1.332-1.349 1.432-3.429 1.432-3.429s-2.07.117-3.402 1.466z" fill="#2C7BE5"/><path opacity=".1" d="M20.674 152.009c-1.332 1.348-1.432 3.428-1.432 3.428s2.07-.117 3.402-1.465c1.332-1.349 1.432-3.429 1.432-3.429s-2.07.117-3.402 1.466z" fill="#000"/><path d="M23.283 161.383c-1.331 1.348-1.431 3.428-1.431 3.428s2.07-.117 3.402-1.465c1.331-1.349 1.432-3.429 1.432-3.429s-2.08.117-3.403 1.466z" fill="#2C7BE5"/><path d="M19.45 159.323s3.015-4.743 7.25-4.857zm-2.355-2.866s-3.016-4.743-7.251-4.857zm-.392 6.771s3.016-4.743 7.251-4.857z" stroke="#2C7BE5" stroke-miterlimit="10"/><path d="M26.555 155.22a.78.78 0 1 0 .002-1.562.78.78 0 0 0-.002 1.562zm-16.636-2.8a.78.78 0 1 0 .001-1.562.78.78 0 0 0-.001 1.562z" fill="#2C7BE5"/><path d="M18.919 164.783s-3.016-4.743-7.251-4.857z" stroke="#2C7BE5" stroke-miterlimit="10"/><path d="M11.743 160.751a.78.78 0 1 0 .001-1.562.78.78 0 0 0-.001 1.562zm12.265-1.56a.78.78 0 1 0 .002-1.562.78.78 0 0 0-.002 1.562z" fill="#2C7BE5"/><path d="M35.594 176.54s-7.268-1.45-9.21-3.385c-1.94-1.935-10.658-5.317-11.629-2.9-.97 2.417-13.084 10.637-4.845 12.088 8.239 1.452 19.384 1.935 21.807.966 2.423-.969 3.877-6.768 3.877-6.768z" fill="#A8A8A8"/><path opacity=".2" d="M9.91 181.443c8.24 1.452 19.385 1.935 21.808.966 1.844-.737 3.127-4.286 3.634-5.92l.243.051s-1.455 5.803-3.877 6.769c-2.423.966-13.569.483-21.807-.966-2.377-.42-3.059-1.403-2.801-2.645.2.8 1.03 1.434 2.8 1.745z" fill="#000"/><path d="M256.258 149.292s2.4 3.143-1.108 7.857-6.4 8.717-5.23 11.666c0 0 5.293-8.78 9.6-8.903 4.307-.123 1.477-5.343-3.262-10.62z" fill="#2C7BE5"/><path opacity=".1" d="M256.26 149.292c.208.303.373.634.489.983 4.204 4.926 6.44 9.523 2.403 9.64-3.763.108-8.277 6.82-9.359 8.517.036.13.079.26.129.386 0 0 5.292-8.78 9.599-8.903 4.307-.123 1.478-5.346-3.262-10.623z" fill="#000"/><path d="M260.72 153.28c0 1.103-.122 2-.286 2-.163 0-.286-.894-.286-2 0-1.105.155-.571.306-.571.152 0 .267-.529.267.571z" fill="#FFD037"/><path d="M262.251 154.597c-.97.529-1.816.858-1.887.712-.072-.146.653-.672 1.624-1.197.97-.526.587-.143.661 0 .075.143.57-.043-.398.485z" fill="#FFD037"/><path d="M243.585 149.292s-2.4 3.143 1.108 7.857 6.4 8.717 5.23 11.666c0 0-5.293-8.78-9.6-8.903-4.307-.123-1.478-5.343 3.262-10.62z" fill="#2C7BE5"/><path opacity=".1" d="M243.585 149.292c-.21.303-.374.634-.49.983-4.204 4.926-6.44 9.523-2.402 9.64 3.762.108 8.276 6.82 9.358 8.517-.036.13-.079.26-.129.386 0 0-5.292-8.78-9.599-8.903-4.307-.123-1.478-5.346 3.262-10.623z" fill="#000"/><path d="M239.121 153.28c0 1.103.123 2 .286 2 .164 0 .287-.894.287-2 0-1.105-.155-.571-.307-.571-.151 0-.266-.529-.266.571z" fill="#FFD037"/><path d="M237.592 154.597c.97.529 1.815.858 1.887.712.072-.146-.653-.672-1.624-1.197-.97-.526-.587-.143-.661 0-.075.143-.573-.043.398.485z" fill="#FFD037"/><path d="M239.887 168.403s6.71-.206 8.731-1.643c2.022-1.437 10.31-3.143 10.822-.857.513 2.286 10.084 11.46 2.509 11.52-7.575.06-17.6-1.177-19.62-2.403-2.018-1.226-2.442-6.617-2.442-6.617z" fill="#A8A8A8"/><path opacity=".2" d="M262.084 176.631c-7.575.06-17.6-1.177-19.62-2.403-1.537-.934-2.15-4.285-2.354-5.831h-.223s.424 5.4 2.443 6.626c2.019 1.225 12.044 2.465 19.619 2.403 2.188-.018 2.941-.795 2.9-1.943-.303.7-1.125 1.134-2.765 1.148z" fill="#000"/><path opacity=".5" d="M50.932 21.32h-1.798a1.263 1.263 0 0 0 1.218-.76 1.254 1.254 0 0 0-.718-1.674c-.16-.06-.33-.086-.5-.077h-14.57a1.261 1.261 0 0 0-1.2 1.255 1.256 1.256 0 0 0 1.2 1.256h1.798a1.261 1.261 0 0 0-1.2 1.256 1.256 1.256 0 0 0 1.2 1.255h-2.518a1.261 1.261 0 0 0-1.2 1.256 1.256 1.256 0 0 0 1.2 1.256h14.571a1.263 1.263 0 0 0 1.218-.761 1.254 1.254 0 0 0-.718-1.673c-.16-.06-.33-.086-.5-.078h2.517a1.261 1.261 0 0 0 1.2-1.255 1.256 1.256 0 0 0-1.2-1.256z" fill="#DEE3F3"/><defs><linearGradient id="paint0_linear" x2="1" gradientUnits="userSpaceOnUse" gradientTransform="scale(118.557 118.286) rotate(-90 .422 .579)"><stop stop-color="gray" stop-opacity=".25"/><stop offset=".54" stop-color="gray" stop-opacity=".12"/><stop offset="1" stop-color="gray" stop-opacity=".1"/></linearGradient><linearGradient id="paint1_linear" x2="1" gradientUnits="userSpaceOnUse" gradientTransform="matrix(0 -.01371 .05754 0 69.595 30.364)"><stop stop-color="gray" stop-opacity=".25"/><stop offset=".54" stop-color="gray" stop-opacity=".12"/><stop offset="1" stop-color="gray" stop-opacity=".1"/></linearGradient><linearGradient id="paint2_linear" x2="1" gradientUnits="userSpaceOnUse" gradientTransform="matrix(0 -31869.5 24388.4 0 6246.79 57727.8)"><stop stop-color="gray" stop-opacity=".25"/><stop offset=".54" stop-color="gray" stop-opacity=".12"/><stop offset="1" stop-color="gray" stop-opacity=".1"/></linearGradient><linearGradient id="paint3_linear" x2="1" gradientUnits="userSpaceOnUse" gradientTransform="matrix(0 -47331.1 24711.4 0 39414.5 70008.1)"><stop stop-color="gray" stop-opacity=".25"/><stop offset=".54" stop-color="gray" stop-opacity=".12"/><stop offset="1" stop-color="gray" stop-opacity=".1"/></linearGradient></defs></svg>