<svg viewBox="0 0 182 129" fill="none" xmlns="http://www.w3.org/2000/svg"><path opacity=".1" d="M22.606 95.31c-.742 1.505.327 3.13-.047 4.683-.465 1.961-3.127 3.487-5.995 4.461-2.869.974-6.072 1.566-8.869 2.615-1.21.452-2.47 1.287-1.84 2.055.217.267.626.453 1.023.628 8.143 3.556 18.21 5.487 28.275 5.425 10.637-.067 21.055-2.288 31.683-2.033 13.71.327 26.968 4.749 40.523 3.474 5.753-.54 11.1-2.083 16.7-3.046 8.241-1.416 16.908-1.559 25.442-2.024 6.408-.35 13.73-1.257 16.793-4.666 2.213-2.464 1.285-5.719-1.834-7.806-3.118-2.086-8.1-2.979-12.704-2.573-2.474.217-4.934.78-7.407.557-1.437-.13-2.767-.52-4.073-.902-10.133-2.974-20.64-5.942-31.895-6.373-18.313-.708-35.272 5.319-53.105 7.925-2.778.406-5.792.718-8.415.038-2.766-.718-4.577-2.412-7.344-3.126-1.307-.34-2.778-.438-4.071-.807-3.552-1.017-1.907-2.414-6.829-1.471-2.582.492-5.182 1.286-6.011 2.966z" fill="#2C7BE5"/><path d="M117.074 45.114s12.173-19.132 13.644-27.302c1.471-8.17 4.25-15.688 4.25-15.688" stroke="#535461" stroke-width="2" stroke-miterlimit="10"/><path d="M137.748 18.465l-7.682.654s4.086 7.026 7.682-.654z" fill="#2C7BE5"/><path d="M124.345 14.217l6.083 4.87s-7.881 3.137-6.083-4.87zm14.384-2.452l-6.917.927s6.1 4.956 6.917-.927zm-11.441-2.451l4.567 3.205s-5.547 2.351-4.567-3.205zm6.263-2.91s5.67-1.502 6.487-1.175c.817.327.327 3.922-1.961 4.085-2.288.164-4.526-2.91-4.526-2.91zm-3.813-4.28s3.596 3.432 3.76 4.249c.163.817-2.943 2.778-4.577 0-1.635-2.778.817-4.249.817-4.249z" fill="#2C7BE5"/><path d="M136.44 4.085a1.634 1.634 0 1 0 0-3.268 1.634 1.634 0 0 0 0 3.268z" fill="#FFD037"/><path d="M133.497 3.268a1.634 1.634 0 1 0 0-3.268 1.634 1.634 0 0 0 0 3.268z" fill="#FFD037"/><path d="M26.65 101.078s-5.201-13.648-1.113-24.307c1.716-4.474 2.02-9.37.709-13.98a37.21 37.21 0 0 0-2.465-6.338" stroke="#535461" stroke-width="2" stroke-miterlimit="10"/><path d="M26.318 49.714c.132 1.712-2.58 6.917-2.58 6.917s-3.487-4.723-3.62-6.435a3.109 3.109 0 1 1 6.202-.482h-.002zm5.862 9.084c-.817 1.51-5.926 4.404-5.926 4.404s-.358-5.859.46-7.368a3.11 3.11 0 0 1 5.468 2.964h-.002zm1.033 16.22c-1.47.889-7.338.817-7.338.817s2.65-5.24 4.117-6.128a3.11 3.11 0 0 1 3.221 5.319v-.008zm-1.98 12.45c-1.297 1.124-7.096 2.038-7.096 2.038s1.726-5.612 3.022-6.736a3.11 3.11 0 0 1 4.074 4.698zm-11.465-23.43c1.32 1.098 7.137 1.89 7.137 1.89s-1.842-5.575-3.164-6.671a3.11 3.11 0 0 0-3.975 4.781h.002zm-2.132 14.589c1.588.654 7.376-.326 7.376-.326s-3.433-4.767-5.015-5.42a3.11 3.11 0 0 0-2.361 5.753v-.007zM17.51 93.09c1.456.91 7.327.919 7.327.919s-2.572-5.278-4.027-6.182a3.11 3.11 0 0 0-3.3 5.27v-.006z" fill="#2C7BE5"/><path d="M26.318 49.714c.132 1.712-2.58 6.917-2.58 6.917s-3.487-4.723-3.62-6.435a3.109 3.109 0 1 1 6.202-.482h-.002zm5.862 9.084c-.817 1.51-5.926 4.404-5.926 4.404s-.358-5.859.46-7.368a3.11 3.11 0 0 1 5.468 2.964h-.002zm1.033 16.22c-1.47.889-7.338.817-7.338.817s2.65-5.24 4.117-6.128a3.11 3.11 0 0 1 3.221 5.319v-.008zm-1.98 12.45c-1.297 1.124-7.096 2.038-7.096 2.038s1.726-5.612 3.022-6.736a3.11 3.11 0 0 1 4.074 4.698zm-11.465-23.43c1.32 1.098 7.137 1.89 7.137 1.89s-1.842-5.575-3.164-6.671a3.11 3.11 0 0 0-3.975 4.781h.002zm-2.132 14.589c1.588.654 7.376-.326 7.376-.326s-3.433-4.767-5.015-5.42a3.11 3.11 0 0 0-2.361 5.753v-.007zM17.51 93.09c1.456.91 7.327.919 7.327.919s-2.572-5.278-4.027-6.182a3.11 3.11 0 0 0-3.3 5.27v-.006z" fill="#2C7BE5"/><path d="M36.906 98.62s-3.945-.475-5.066-1.43c-1.122-.954-5.918-2.405-6.337-1.07-.418 1.335-6.549 6.24-2.087 6.676 4.462.436 10.445.228 11.693-.39 1.247-.617 1.797-3.786 1.797-3.786z" fill="#A8A8A8"/><path opacity=".2" d="M23.385 102.313c4.463.435 10.439.23 11.694-.387.956-.47 1.494-2.418 1.697-3.322l.132.016s-.536 3.167-1.798 3.787c-1.262.619-7.23.817-11.694.387-1.288-.126-1.693-.624-1.608-1.307.148.433.618.733 1.577.826z" fill="#000"/><path opacity=".1" d="M171.122 75.454c-6.407 8.778-4.282 21.309-.588 31.29 1.238 3.343 2.646 6.878 2.003 10.513-.784 4.445-4.471 7.775-8.304 9.589-6.987 3.306-15.241 2.778-21.491-1.387-5.393-3.595-9.19-9.57-14.688-12.993-9.202-5.727-21.148-3.168-31.389 1.205-7.245 3.093-15.182 7.077-22.243 4.22-4.968-2.01-8.314-7.126-10.074-12.595-.85-2.641-1.445-5.507-3.138-7.574-1.007-1.23-2.337-2.085-3.705-2.801-12.485-6.536-28.545-2.451-40.65-9.744-8.17-4.925-13.257-14.483-15.37-24.531C-.629 50.598-.106 39.99.735 29.566c.599-7.41 1.545-15.327 6-21.149C11.447 2.26 19.345-.188 26.407.777c7.062.967 13.392 4.893 18.933 9.567 6.928 5.843 13.302 13.175 21.919 15.388 5.87 1.51 12.104.441 18.206-.031 10.198-.788 20.361.12 30.462 1.144 9.669.98 19.405 2.075 28.562 5.29 6.481 2.274 11.618 6.573 17.719 9.511 3.976 1.916 8.352 2.36 12.095 4.834 4.618 3.048 8.793 8.447 7.438 14.926-1.28 6.159-7.219 9.39-10.619 14.048z" fill="#2C7BE5"/><path d="M110.886 0H4.176A4.173 4.173 0 0 0 0 4.167v62.177a4.171 4.171 0 0 0 4.176 4.167h42.972v15.323h-4.044a.997.997 0 0 0-.997.995v2.065h31.361v-2.068a.997.997 0 0 0-.997-.995h-5.163V70.505h43.578a4.172 4.172 0 0 0 4.176-4.162V4.167A4.17 4.17 0 0 0 110.886 0z" transform="translate(29.875 13.313)" fill="url(#paint0_linear)"/><path d="M97.106 80.917h-19.82v19.122h19.82V80.917z" fill="#474059"/><path opacity=".1" d="M97.106 98.343h-19.82v1.696h19.82v-1.696z" fill="#000"/><path d="M73.313 98.535h28.871a.98.98 0 0 1 .981.981v2.04H72.332v-2.04a.98.98 0 0 1 .98-.98zm66.644-84.569H35.043a4.105 4.105 0 0 0-4.106 4.105v61.256a4.105 4.105 0 0 0 4.106 4.105h104.914a4.105 4.105 0 0 0 4.105-4.105V18.07a4.105 4.105 0 0 0-4.105-4.105z" fill="#474059"/><path d="M141.436 22.08H33.313v56.748h108.124V22.08zm-54.057-1.99a.947.947 0 0 0 .953-.942.947.947 0 0 0-.953-.941.947.947 0 0 0-.953.941c0 .52.426.941.953.941z" fill="#fff"/><path opacity=".1" d="M97.086 83.479H77.328v.373h19.758v-.373z" fill="#000"/><path d="M93.937 35.332a22.55 22.55 0 0 0-2.175 32.674 22.556 22.556 0 0 0 10.265 6.347l6.302-21.659-14.392-17.362zm14.881-5.188a22.464 22.464 0 0 0-14.392 5.188l14.392 17.362 11.918-19.146a22.45 22.45 0 0 0-11.918-3.404z" fill="#D6D6E3"/><path d="M108.818 52.694l-6.302 21.657a22.574 22.574 0 0 0 26.342-11.31 22.56 22.56 0 0 0 2.515-9.95l-22.555-.397zM51.125 41.746h-8.172v4.902h8.172v-4.902z" fill="#8499F0"/><path d="M51.125 50.243h-8.172v4.903h8.172v-4.903z" fill="#FC6681"/><path d="M51.125 58.74h-8.172v4.903h8.172V58.74z" fill="#2C7BE5"/><path d="M70.899 43.217H55.535v1.96H70.9v-1.96zm0 8.497H55.535v1.96H70.9v-1.96zm0 8.497H55.535v1.961H70.9v-1.96zm70.607-38.237H33.309v1.96h108.197v-1.96z" fill="#D6D6E3"/><path d="M34.615 23.444a.49.49 0 1 0 0-.98.49.49 0 0 0 0 .98z" fill="#FC6681"/><path d="M35.924 23.444a.49.49 0 1 0 0-.98.49.49 0 0 0 0 .98z" fill="#FFC74C"/><path d="M37.233 23.444a.49.49 0 1 0 0-.98.49.49 0 0 0 0 .98z" fill="#85D459"/><path d="M149.012 88.407s.78 1.02-.36 2.56c-1.139 1.539-2.079 2.838-1.7 3.799 0 0 1.72-2.86 3.12-2.9 1.401-.038.481-1.74-1.06-3.459z" fill="#2C7BE5"/><path opacity=".1" d="M149.01 88.407c.071.1.126.21.164.327 1.367 1.605 2.094 3.105.782 3.14-1.223.034-2.69 2.22-3.042 2.777.011.043.025.085.04.126 0 0 1.72-2.86 3.12-2.899 1.402-.039.478-1.752-1.063-3.47z" fill="#000"/><path d="M150.465 89.706c0 .36-.041.654-.09.654-.05 0-.09-.29-.09-.654 0-.362.05-.19.1-.19.049 0 .08-.169.08.19z" fill="#FFD037"/><path d="M150.962 90.135c-.315.171-.59.276-.612.232-.023-.044.212-.22.527-.39.316-.172.192-.048.215 0 .022.047.186-.014-.13.158z" fill="#FFD037"/><path d="M144.896 88.407s-.78 1.02.36 2.56c1.139 1.539 2.079 2.838 1.7 3.799 0 0-1.72-2.86-3.12-2.9-1.401-.038-.48-1.74 1.06-3.459z" fill="#2C7BE5"/><path opacity=".1" d="M144.894 88.407c-.07.1-.125.21-.163.327-1.366 1.605-2.094 3.105-.781 3.14 1.222.034 2.69 2.22 3.041 2.777a1.182 1.182 0 0 1-.04.126s-1.72-2.86-3.12-2.899c-1.401-.039-.476-1.752 1.063-3.47z" fill="#000"/><path d="M143.445 89.706c0 .36.04.654.09.654.049 0 .09-.29.09-.654 0-.362-.05-.19-.1-.19-.049 0-.08-.169-.08.19z" fill="#FFD037"/><path d="M142.946 90.135c.315.171.59.276.613.232.023-.044-.213-.22-.528-.39-.316-.172-.191-.048-.214 0-.023.047-.187-.014.129.158z" fill="#FFD037"/><path d="M152.292 94.998s-2.145-.428-2.717-1c-.572-.572-3.146-1.572-3.432-.858-.286.714-3.86 3.145-1.43 3.573 2.43.429 5.72.572 6.435.286.714-.286 1.144-2.001 1.144-2.001z" fill="#A8A8A8"/><path opacity=".2" d="M144.713 96.447c2.43.428 5.72.572 6.434.286.545-.217.924-1.263 1.073-1.75l.072.015s-.429 1.716-1.145 2.001c-.715.286-4.004.143-6.434-.285-.701-.125-.902-.416-.827-.783.06.238.305.425.827.516z" fill="#000"/><path d="M24.516 20.812A24.492 24.492 0 0 0 12.954 0L0 20.812l24.516.431v-.431z" transform="translate(112.414 46.346)" fill="url(#paint1_linear)"/><path d="M135.95 66.344a22.53 22.53 0 0 0-10.637-19.147l-11.918 19.147 22.555.404v-.404z" fill="#2C7BE5"/><path d="M38.94 16.391a.889.889 0 0 0-.018-.181 2.774 2.774 0 0 1-.033-.2 6.971 6.971 0 0 0-.128-.559 4.862 4.862 0 0 0-.946-1.843l-.077-.088a12.103 12.103 0 0 0-.15-.163 4.129 4.129 0 0 0-.284-.263 3.494 3.494 0 0 0-.4-.288.835.835 0 0 0-.352-.118l-.778-.078-1.053-.105-3.801-1.5-.15.054a9.06 9.06 0 0 1-.282-.95.845.845 0 0 0 .3-.222.696.696 0 0 0 .207-.27c.095-.223-.088-.703-.05-.98.06-.44.285-.864.466-1.263.391-.856.676-1.784.63-2.724-.046-.94-.468-1.894-1.249-2.418-.404-.271-.88-.417-1.298-.665-.326-.193-.614-.445-.926-.662a5.244 5.244 0 0 0-5.23-.38c-.79.395-1.463.98-2.209 1.46-.745.48-1.622.838-2.494.7a.58.58 0 0 0-.026.109l-.073-.01c-.15.417.217.827.557 1.111.644.54 1.373 1.077 2.213 1.097.327 0 .667-.062.963.073.064.03.125.07.18.115a4.299 4.299 0 0 0 1.3 4.24l-1.94-.71s-.081.043-.206.123l-2.695-1.822s-5.401-2.003-6.902 1.102c-1.5 3.105 6.504 1.495 6.504 1.495l1.712.956c-.056.359.01.726.188 1.043l4.67 2.933c-.943.296-2.494.768-2.769.768-.4 0-1.5.4-2.201 2-.701 1.6-3.202 9.402-5.402 10.701-2.2 1.3-8.009 10.003-8.009 10.003l.027.068a4.436 4.436 0 0 0-.304.092c-1.452.48-2.43 1.492-3.016 2.312a.98.98 0 0 0 .677 1.546c2.288.294 3.541-.778 4.143-1.588.04-.053.075-.105.11-.154.178.078.38.087.565.026l2.805-2.297s-2.186 2.19-.907 4.188l-.099.139a32.08 32.08 0 0 0-4.697 10.38s-1.201.9-1.307 4.5c-.107 3.6-1.308 9.402-1.308 9.402s-.8 6.901-.3 9.002c0 0 .057.084.163.211a4.115 4.115 0 0 1-.124.144c-.437.479-1.225 1.144-2.141.945-1.401-.301-1.401 2.2.6 2.4 1.287.13 3.82.714 5.46 1.114a1.157 1.157 0 0 0 1.427-1.246c-.098-.896-.277-1.98-.6-2.752a3.685 3.685 0 0 0-.062-.14c.059-.056.117-.113.176-.175 0 0 0-4.401.7-5.602 0 0 1.9-9.102 1.798-11.403-.079-1.797 4.93-8.81 7.11-11.765l-.017-.113c.577-.765.932-1.222.932-1.222l1.701 10.902s.8 2.4 1.798 3.701c0 0 4.302 8.302 4.802 10.903.379 1.972 1.16 3.138 1.516 3.587a3.18 3.18 0 0 1-.13.127c-.455.425-1.128.85-1.886.688-1.401-.3-1.401 2.201.6 2.4 1.287.13 3.82.715 5.46 1.115a1.157 1.157 0 0 0 1.427-1.246c-.113-1.041-.337-2.336-.768-3.105a2.59 2.59 0 0 0-.115-.182c.153-.062.289-.16.397-.284 0 0-2.6-6.301-2.6-8.007 0 0-1.1-6.502-4.802-8.903 0 0 .35-8.13 1.404-12.655l.08-.327a29.34 29.34 0 0 0 2.92-.618l.099-3 .5 2.4 5.603-3.5s-.05-.63-.144-1.598a98.179 98.179 0 0 0-.42-3.618 64.084 64.084 0 0 0-.342-2.212 35.325 35.325 0 0 0-.294-1.49 17.569 17.569 0 0 0-.08-.342l-.04-.164a12.61 12.61 0 0 0-.084-.317 5.82 5.82 0 0 1-.203-1.307 7.037 7.037 0 0 1 0-.528 4.7 4.7 0 0 1 .05-.526 6.03 6.03 0 0 1 .536-1.773 89.953 89.953 0 0 0 1.186-2.567c.98-2.204 1.935-4.662 2.192-6.277a5.63 5.63 0 0 0 .057-.48 3.25 3.25 0 0 0 .01-.43z" transform="translate(129.863 26.28)" fill="url(#paint2_linear)"/><path d="M152.086 36.517l-3.3-2.232s-5.24-1.94-6.701 1.067c-1.461 3.007 6.307 1.456 6.307 1.456l3.3 1.843.394-2.134z" fill="#F7BBC3"/><path d="M161.847 104.54c-1.592-.388-4.047-.957-5.298-1.081-1.94-.194-1.94-2.615-.581-2.329.737.164 1.389-.254 1.83-.666.138-.129.266-.266.386-.412.16-.195.381-.33.627-.384.728-.163 2.243-.399 3.174.103.215.134.39.324.502.55.419.742.636 1.997.746 3.007a1.123 1.123 0 0 1-1.386 1.211zm-24.547.97c-1.592-.388-4.047-.956-5.298-1.08-1.94-.195-1.94-2.615-.581-2.33.889.192 1.654-.45 2.077-.914.05-.057.098-.111.139-.164.16-.195.381-.33.627-.384.728-.163 2.243-.398 3.174.103.273.147.49.47.666.888.313.748.49 1.797.582 2.67a1.122 1.122 0 0 1-1.386 1.21z" fill="#B77983"/><path opacity=".1" d="M138.096 101.629c-2.317 2.387-4.303-.044-4.604-.446.05-.057.098-.111.139-.164.16-.195.381-.33.628-.384.727-.163 2.242-.398 3.174.103.27.15.49.474.663.89zm24.388-1.307c-1.003.686-4.383.516-4.383.516a3.324 3.324 0 0 1-.304-.376c.137-.129.266-.266.386-.412.16-.195.38-.33.627-.384.728-.163 2.243-.398 3.174.103.215.135.388.326.5.553z" fill="#000"/><path d="M162.66 99.869c-.68.872-4.56.68-4.56.68s-1.165-1.164-1.65-3.687c-.485-2.523-4.65-10.576-4.65-10.576-.97-1.261-1.747-3.595-1.747-3.595l-1.65-10.574s-7.964 10.481-7.867 12.715c.096 2.234-1.747 11.06-1.747 11.06-.68 1.163-.68 5.433-.68 5.433-2.524 2.614-4.658-.49-4.658-.49-.49-2.038.29-8.731.29-8.731s1.164-5.626 1.262-9.12c.098-3.494 1.27-4.361 1.27-4.361a31.11 31.11 0 0 1 4.557-10.063c.587-.84.98-1.288.98-1.288l15.71 1.843a9.926 9.926 0 0 0-.676 2.082c-1.022 4.39-1.362 12.277-1.362 12.277 3.596 2.329 4.658 8.635 4.658 8.635-.004 1.648 2.52 7.76 2.52 7.76z" fill="#605D82"/><g opacity=".05" fill="#000"><path opacity=".05" d="M147.533 73.415l-.2-1.293s-7.95 10.476-7.86 12.71c.09 2.234-1.748 11.06-1.748 11.06-.68 1.163-.68 5.433-.68 5.433-.406.46-.931.8-1.518.98.765.201 1.693.054 2.684-.98 0 0 0-4.268.68-5.434 0 0 1.843-8.824 1.747-11.059-.077-1.744 4.782-8.546 6.895-11.417z"/><path opacity=".05" d="M160.24 92.107s-1.068-6.306-4.658-8.634c0 0 .34-7.887 1.361-12.277a9.92 9.92 0 0 1 .677-2.082L141.9 67.27l-.103.124 14.659 1.719a9.92 9.92 0 0 0-.677 2.082c-1.021 4.389-1.361 12.276-1.361 12.276 3.595 2.33 4.658 8.635 4.658 8.635 0 1.649 2.523 7.762 2.523 7.762-.4.515-1.913.654-3.087.69.932.024 3.69.032 4.25-.69-.005 0-2.522-6.112-2.522-7.762z"/></g><path d="M138.891 65.913a3.513 3.513 0 0 1-.46.804c-.583.786-1.797 1.825-4.018 1.54a.955.955 0 0 1-.654-1.5c.57-.794 1.519-1.776 2.926-2.242a5.272 5.272 0 0 1 1.239-.251l.967 1.649z" fill="#F7BBC3"/><path d="M159.386 38.782l-7.782-2.845s-2.232 1.163-1.358 2.814l7.569 4.753 1.57-4.722z" fill="#D9D9EA"/><path opacity=".1" d="M159.386 38.782l-7.782-2.845s-2.232 1.163-1.358 2.814l7.569 4.753 1.57-4.722z" fill="#000"/><path d="M159.649 34.092s-.097 4.56 1.94 6.111c2.036 1.553-5.92 2.425-5.92 2.425s1.262-4.657 0-7.082 3.98-1.454 3.98-1.454z" fill="#F7BBC3"/><path opacity=".1" d="M157.522 69.115a9.927 9.927 0 0 0-.677 2.082c-9.385 1.433-15.916-2.47-15.916-2.47-.036-.056-.07-.113-.101-.164.587-.84.98-1.288.98-1.288l15.714 1.84zm-18.63-3.202a3.514 3.514 0 0 1-.46.804c-.898-.15-1.616-1.867-1.748-2.202a5.272 5.272 0 0 1 1.239-.251l.97 1.649z" fill="#000"/><path d="M160.432 38.167l-3.493 1.262-1.456 1.94s-3.007.97-3.396.97c-.39 0-1.456.387-2.135 1.94-.678 1.552-3.105 9.12-5.24 10.381-2.134 1.262-7.763 9.702-7.763 9.702s.97 2.614 2.135 2.232l2.718-2.232s-2.135 2.134-.873 4.075c0 0 7.956 4.754 18.921 1.843l.097-2.91.49 2.329 5.423-3.398s-.49-6.261-1.363-9.45a5.758 5.758 0 0 1 .374-4.014c1.409-2.942 3.583-7.844 3.318-9.627-.312-2.106-1.504-3.021-1.961-3.299a.818.818 0 0 0-.342-.113l-1.767-.176-3.687-1.455z" fill="#D9D9EA"/><path opacity=".05" d="M154.463 47.916s-1.942 9.027-4.077 10.478c-2.134 1.451-7.86 6.112-8.054 6.888" fill="#000"/><path d="M153.59 47.629s-1.94 9.02-4.075 10.474c-2.134 1.455-7.86 6.112-8.054 6.888" fill="#D9D9EA"/><path opacity=".1" d="M155.434 41.32s6.701-2.233 8.636-1.65l-8.636 1.65z" fill="#000"/><path opacity=".05" d="M164.875 52.838c1.41-2.941 3.583-7.843 3.318-9.626-.312-2.107-1.504-3.022-1.961-3.3a.817.817 0 0 0-.342-.112l-.755-.075c.079.019.154.05.224.091.454.278 1.646 1.191 1.961 3.3.265 1.787-1.909 6.69-3.318 9.626a5.758 5.758 0 0 0-.374 4.015c.876 3.186 1.363 9.45 1.363 9.45l-4.679 2.923.12.569 5.424-3.397s-.49-6.262-1.363-9.45a5.757 5.757 0 0 1 .382-4.014zm-1.632-13.313l.84.085-3.654-1.443-.327.118 3.141 1.24zm-9.653 17.511s3.007-1.649 3.978-1.261c.971.387 4.56-.097 4.56-.097m-2.804-20.374c-.111-.98.34-.817.34-.817s-5.243-.977-3.985 1.448a5.59 5.59 0 0 1 .54 2.134h.048c1.455 0 2.305-1.627 3.057-2.765z" fill="#000"/><path d="M156.259 37.682a4.172 4.172 0 1 0 0-8.344 4.172 4.172 0 0 0 0 8.344z" fill="#F7BBC3"/><path opacity=".1" d="M160.809 34.744c.379-.83.653-1.73.61-2.642-.045-.912-.455-1.837-1.212-2.347-.392-.263-.853-.405-1.258-.645-.317-.188-.597-.432-.9-.643a5.087 5.087 0 0 0-5.079-.369c-.766.384-1.419.956-2.141 1.417-.722.46-1.574.817-2.42.678-.146.404.21.802.54 1.079.625.522 1.332 1.045 2.146 1.063.316 0 .654-.06.934.072.193.106.357.258.477.443a8.67 8.67 0 0 1 .989 1.678c.11.244.219.508.443.654.374.24.861.04 1.307.023.692-.026 1.308.408 1.824.872.517.464.999.997 1.644 1.242.49.183 1.447.177 1.692-.398.093-.218-.085-.683-.05-.948.058-.436.27-.842.454-1.229z" fill="#000"/><path d="M160.91 34.648c.38-.83.654-1.73.61-2.643-.044-.912-.454-1.836-1.21-2.346-.393-.263-.854-.406-1.26-.646-.316-.188-.596-.431-.898-.642a5.087 5.087 0 0 0-5.08-.37c-.766.385-1.419.957-2.141 1.417-.722.461-1.574.818-2.42.679-.146.403.21.802.54 1.078.625.523 1.332 1.046 2.146 1.064.316 0 .654-.06.934.072.193.106.357.258.477.443a8.67 8.67 0 0 1 .995 1.676c.11.244.22.508.443.654.374.24.862.04 1.308.023.691-.026 1.307.408 1.824.872.516.464.998.997 1.644 1.242.49.183 1.446.177 1.692-.398.093-.218-.085-.684-.05-.948.051-.43.27-.842.447-1.227z" fill="#A1616A"/><defs><linearGradient id="paint0_linear" x2="1" gradientUnits="userSpaceOnUse" gradientTransform="matrix(0 -88.8944 88.9115 0 13.075 88.894)"><stop stop-color="gray" stop-opacity=".25"/><stop offset=".54" stop-color="gray" stop-opacity=".12"/><stop offset="1" stop-color="gray" stop-opacity=".1"/></linearGradient><linearGradient id="paint1_linear" x2="1" gradientUnits="userSpaceOnUse" gradientTransform="matrix(0 -2761.61 3187.09 0 18166.4 9923.95)"><stop stop-color="gray" stop-opacity=".25"/><stop offset=".54" stop-color="gray" stop-opacity=".12"/><stop offset="1" stop-color="gray" stop-opacity=".1"/></linearGradient><linearGradient id="paint2_linear" x2="1" gradientUnits="userSpaceOnUse" gradientTransform="matrix(0 -39629.6 19176.9 0 27676.5 56881.2)"><stop stop-color="gray" stop-opacity=".25"/><stop offset=".54" stop-color="gray" stop-opacity=".12"/><stop offset="1" stop-color="gray" stop-opacity=".1"/></linearGradient></defs></svg>