<svg width="1218" height="208" fill="none" xmlns="http://www.w3.org/2000/svg"><path opacity=".1" d="M140.685 223c77.698 0 140.685-14.844 140.685-33.156 0-18.312-62.987-33.157-140.685-33.157C62.987 156.687 0 171.532 0 189.844 0 208.156 62.987 223 140.685 223z" fill="#2C7BE5"/><path d="M34.42 99.45s13.103 13.046 5.707 32.412c-7.396 19.365 12.681 51.548 12.681 51.548s-.216-.03-.614-.102c-26.912-4.736-40.287-35.377-25.32-58.144 5.564-8.464 10.119-18.391 7.545-25.713z" fill="#2C7BE5"/><path d="M34.416 99.45s7.397 15.99 0 29.035c-7.396 13.046-1.268 49.658 18.39 54.92" stroke="#535461" stroke-width="2" stroke-miterlimit="10"/><path d="M11.082 152.224s14.953-2.372 16.307 10.97c1.355 13.343 28.745 15.19 28.745 15.19l-.514.34c-22.598 14.774-44.217 9.406-40.959-10.219 1.21-7.297 1.114-14.63-3.579-16.28z" fill="#2C7BE5"/><path opacity=".2" d="M11.082 152.224s14.953-2.372 16.307 10.97c1.355 13.343 28.745 15.19 28.745 15.19l-.514.34c-22.598 14.774-44.217 9.406-40.959-10.219 1.21-7.297 1.114-14.63-3.579-16.28z" fill="#F5F5F5"/><path d="M11.082 152.224s11.609 2.537 10.652 13.043c-.956 10.505 17.236 23.113 34.414 13.116" stroke="#535461" stroke-width="2" stroke-miterlimit="10"/><path opacity=".1" d="M314.657 99.291c-1.92 9.372-11.783 14.072-17.308 21.064-10.412 13.177-6.357 32.425.25 47.839 2.21 5.162 4.72 10.624 3.783 16.157-1.142 6.769-7.209 11.717-13.58 14.342-11.608 4.779-25.51 3.64-36.183-2.969-9.22-5.71-15.826-14.999-25.204-20.45-15.696-9.122-35.674-5.677-52.72.608-12.056 4.444-25.24 10.228-37.222 5.58-8.43-3.269-14.259-11.226-17.435-19.66-1.53-4.072-2.645-8.48-5.572-11.708-1.74-1.926-4.013-3.283-6.338-4.43-21.249-10.489-48.092-4.87-68.72-16.51-13.936-7.855-22.86-22.673-26.81-38.126C7.648 75.575 8.107 59.385 9.11 43.46c.713-11.309 1.993-23.389 9.251-32.111C26.04 2.122 39.204-1.315 51.128.443c11.924 1.759 22.706 8.01 32.205 15.376 11.885 9.21 22.88 20.673 37.455 24.404 9.925 2.54 20.365 1.15 30.602.669 17.115-.804 34.235.985 51.252 2.944 8.292.955 16.612 1.956 24.832 3.41 1.842.324 3.685.673 5.527 1.048.922.183 1.843.38 2.764.588a174.172 174.172 0 0 1 5.528 1.315 130.25 130.25 0 0 1 9.575 2.849c10.984 3.733 19.79 10.51 30.163 15.246 6.76 3.087 14.132 3.94 20.533 7.87 7.886 4.848 15.113 13.273 13.093 23.13z" fill="#2C7BE5"/><path d="M167.535 177.2s11.36-.898 14.63 2.993c3.27 3.89 14.941 12.811 10.124 14.798-4.818 1.987-30.68-5.946-30.68-5.946l5.926-11.846z" fill="#FFB9B9"/><path d="M120.83 41.764a5.884 5.884 0 0 0-1.498-3.501 5.93 5.93 0 0 0-3.334-1.862c-1.73-.275-3.662.212-5.15-.715-.67-.421-1.152-1.079-1.693-1.651-2.123-2.26-5.31-3.302-8.417-3.393-3.106-.09-6.169.658-9.154 1.514-5.959 1.708-12.255 4.215-15.425 9.52-4.82 8.076-.374 18.961-4.185 27.555-1.658 3.753-4.82 6.818-5.849 10.791-1.382 5.308 1.344 10.693 3.442 15.761a74.919 74.919 0 0 1 4.267 14.088c.843 4.26 1.313 8.687.362 12.933-.417 1.857-1.105 3.748-.735 5.613.553 2.823 3.295 4.604 5.788 6.054l.65.38c3.592 2.09 7.288 4.226 11.403 4.743 2.557.319 5.252-.033 7.463-1.334 2.211-1.302 3.894-3.624 4.082-6.18.21-2.892-1.407-5.6-1.755-8.48a2.568 2.568 0 0 1 .097-1.3c.23-.55.763-.905 1.255-1.246 7.086-4.92 10.887-14.127 9.32-22.585-1.067-5.762-4.384-11.49-2.778-17.129.887-3.115 3.173-5.638 4.455-8.612a14.397 14.397 0 0 0 .476-10.022c-.733-2.272-2.06-4.542-1.603-6.878.804-4.15 6.357-5.473 8.455-9.15 1.556-2.735.635-6.603-1.99-8.342" fill="#B96B6B"/><path opacity=".1" d="M120.83 41.764a5.884 5.884 0 0 0-1.498-3.501 5.93 5.93 0 0 0-3.334-1.862c-1.73-.275-3.662.212-5.15-.715-.67-.421-1.152-1.079-1.693-1.651-2.123-2.26-5.31-3.302-8.417-3.393-3.106-.09-6.169.658-9.154 1.514-5.959 1.708-12.255 4.215-15.425 9.52-4.82 8.076-.374 18.961-4.185 27.555-1.658 3.753-4.82 6.818-5.849 10.791-1.382 5.308 1.344 10.693 3.442 15.761a74.919 74.919 0 0 1 4.267 14.088c.843 4.26 1.313 8.687.362 12.933-.417 1.857-1.105 3.748-.735 5.613.553 2.823 3.295 4.604 5.788 6.054l.65.38c3.592 2.09 7.288 4.226 11.403 4.743 2.557.319 5.252-.033 7.463-1.334 2.211-1.302 3.894-3.624 4.082-6.18.21-2.892-1.407-5.6-1.755-8.48a2.568 2.568 0 0 1 .097-1.3c.23-.55.763-.905 1.255-1.246 7.086-4.92 10.887-14.127 9.32-22.585-1.067-5.762-4.384-11.49-2.778-17.129.887-3.115 3.173-5.638 4.455-8.612a14.397 14.397 0 0 0 .476-10.022c-.733-2.272-2.06-4.542-1.603-6.878.804-4.15 6.357-5.473 8.455-9.15 1.556-2.735.635-6.603-1.99-8.342" fill="#000"/><path d="M132.253 185.991H72.828v-31.643l33.168 12.657 26.257-12.657v31.643z" fill="#777B9B"/><path opacity=".1" d="M132.253 185.991H72.828v-31.643l33.168 12.657 26.257-12.657v31.643z" fill="#000"/><path d="M125.07 189.032s-10.779 2.564-11.884 7.264c-1.106 4.7 6.357 4.273 6.357 4.273s10.503-2.138 11.885-10.684c1.382-8.547-6.357-.853-6.357-.853z" fill="#FFB9B9"/><path opacity=".1" d="M125.07 189.032s-10.779 2.564-11.884 7.264c-1.106 4.7 6.357 4.273 6.357 4.273s10.503-2.138 11.885-10.684c1.382-8.547-6.357-.853-6.357-.853z" fill="#000"/><path d="M96.122 203.357s-10.163.657-10.302 8.865c-.019 1.1 10.586 1.42 23.176-5.319 12.59-6.738 13.447-7.448 13.447-7.448s-4.865-7.804-8.292-8.866c-3.427-1.062-18.03 12.768-18.03 12.768z" fill="#CBCDDA"/><path d="M36.625 171.955s-11.609 9.63 9.95 23.113c21.56 13.483 42.289 11.006 42.289 11.006s22.487-2.65 25.892-13.158c3.406-10.508-16.771-19.31-16.771-19.31s-22.112 0-32.062-6.329-29.298 4.678-29.298 4.678z" fill="#777B9B"/><path d="M99.366 155.446s9.95 5.779 23.493 0c10.42-4.446 33.278-2.702 43.264-1.65 4.683.486 8.693 3.697 9.973 8.207 1.045 3.68.276 8.2-5.976 12.437-13.82 9.356-23.494 12.107-27.087 15.96-3.593 3.852-13.82 5.778-13.82 5.778s-12.99-1.926-12.99-4.678c0-2.751 11.885-16.234 11.885-16.234s-17.413 15.96-35.379-5.503c-17.965-21.463 6.637-14.317 6.637-14.317z" fill="#777B9B"/><path d="M94.387 116.648L59.285 92.71S76.123 81.343 77.57 71.184a8.224 8.224 0 0 0-1.147-5.715c-6.91-11.007 24.323 0 24.323 0a64.729 64.729 0 0 0 1.174 8.53c1.357 6.7 4.22 15.623 10.158 20.086 10.226 7.705-17.69 22.563-17.69 22.563z" fill="#FFB9B9"/><path opacity=".1" d="M101.921 73.988a20.546 20.546 0 0 1-24.35-2.804 8.224 8.224 0 0 0-1.147-5.715c-6.91-11.007 24.323 0 24.323 0a64.735 64.735 0 0 0 1.174 8.519z" fill="#000"/><path d="M91.625 76.203c11.296 0 20.453-9.116 20.453-20.362 0-11.245-9.157-20.362-20.453-20.362s-20.453 9.117-20.453 20.362c0 11.246 9.157 20.362 20.453 20.362z" fill="#FFB9B9"/><path opacity=".1" d="M104.34 82.804s-4.147 24.214-11.057 22.838c-6.91-1.376-28.468-25.59-28.468-25.59s-22.388 7.43-18.795 25.59 7.186 33.57-.277 39.348c-7.462 5.778-12.161 32.744-12.161 32.744s23.77-9.906 36.208-6.054c12.438 3.852 25.152 1.926 28.192-1.65 3.04-3.578 7.463-11.282 7.463-11.282s-6.357-9.356-3.317-14.033c3.04-4.678 6.91-4.953 9.121-18.161 2.211-13.208 19.624-17.885 16.307-25.315-3.316-7.429-9.673-18.435-23.217-18.435z" fill="#000"/><path d="M104.34 81.703s-4.147 24.214-11.057 22.838c-6.91-1.375-28.468-25.59-28.468-25.59s-22.388 7.43-18.795 25.59 7.186 33.57-.277 39.348c-7.462 5.779-12.161 32.744-12.161 32.744s23.77-9.906 36.208-6.053c12.438 3.852 25.152 1.926 28.192-1.651 3.04-3.577 7.463-11.282 7.463-11.282s-6.357-9.355-3.317-14.033c3.04-4.678 6.91-4.953 9.121-18.16 2.211-13.208 19.624-17.886 16.307-25.315-3.316-7.43-9.673-18.436-23.217-18.436z" fill="#CBCDDA"/><path d="M120.925 181.036s11.055-2.752 14.925.55c3.87 3.302 16.86 10.181 12.438 12.933-4.423 2.751-31.233-.826-31.233-.826l3.87-12.657z" fill="#FFB9B9"/><path opacity=".05" d="M90.518 104.541a2.963 2.963 0 0 0 1.899-.275c-7.679-2.95-27.604-25.314-27.604-25.314s-.785.261-2.04.803c3.81 4.213 21.59 23.562 27.745 24.786zm34.277-4.401c7.623-2.92-14.096 12.106-16.307 25.314-2.211 13.207-6.08 13.483-9.121 18.16-3.04 4.678 3.317 14.033 3.317 14.033s-4.423 7.705-7.463 11.282c-1.741 2.05-6.658 3.552-12.877 3.742 7.501.237 13.648-1.4 15.641-3.742 3.04-3.577 7.463-11.282 7.463-11.282s-6.357-9.355-3.317-14.033c3.04-4.678 6.91-4.953 9.121-18.16 2.211-13.208 11.747-24.627 13.543-25.315zm-91 75.346c-.141.734-.213 1.15-.213 1.15s15.456-6.442 27.966-6.915c-9.655-.399-22.131 3.69-27.753 5.765z" fill="#000"/><path d="M125.623 98.763s2.488.275 4.975 13.208c2.488 12.932 12.162 25.314 12.162 25.314a59.858 59.858 0 0 1 8.844 16.785c3.317 9.906 18.104 22.976 23.356 23.526 0 0-10.089 10.043-8.983 12.795 1.105 2.752-1.106 0-1.106 0s-13.82-5.228-16.86-13.758c-3.04-8.53-16.307-22.288-16.307-22.288s-17.69-34.12-18.519-39.623c-.829-5.503 12.438-15.959 12.438-15.959z" fill="#CBCDDA"/><path opacity=".1" d="M49.477 145.127s21.282 2.476 25.98 9.08c4.7 6.604 26.466-3.835 26.466-3.835" fill="#000"/><path opacity=".1" d="M70.343 107.568s9.121 33.294 12.438 37.422c3.316 4.127 29.021 37.972 41.183 35.77 0 0-3.594 15.41-6.081 15.96 0 0-25.152-24.765-33.72-24.49 0 0-15.755-12.932-17.413-19.26-1.659-6.33-14.926-26.966-14.926-26.966s-6.633-14.584-3.87-20.912c2.765-6.329 17.414-3.577 22.389 2.476z" fill="#000"/><path d="M70.617 107.018s9.12 33.294 12.437 37.422c3.317 4.127 29.022 37.972 41.183 35.77 0 0-3.593 15.41-6.08 15.96 0 0-25.152-24.765-33.72-24.49 0 0-15.755-12.932-17.414-19.26-1.658-6.33-14.925-26.966-14.925-26.966s-6.634-14.584-3.87-20.912c2.764-6.329 17.413-3.577 22.388 2.476z" fill="#CBCDDA"/><path opacity=".1" d="M106.459 36.536a5.884 5.884 0 0 0-1.498-3.502 5.93 5.93 0 0 0-3.334-1.861c-1.73-.275-3.662.212-5.15-.716-.67-.42-1.152-1.078-1.694-1.65-2.122-2.26-5.309-3.303-8.416-3.393-3.106-.091-6.169.657-9.154 1.513-5.959 1.709-12.255 4.215-15.425 9.52-4.82 8.076-.374 18.962-4.185 27.555-1.659 3.753-4.82 6.818-5.849 10.792-1.382 5.308 1.344 10.692 3.441 15.76a74.919 74.919 0 0 1 4.268 14.089c.843 4.26 1.313 8.687.362 12.932-.417 1.858-1.106 3.748-.735 5.614.553 2.822 3.294 4.603 5.788 6.053l.65.38c3.592 2.091 7.288 4.226 11.403 4.743 2.557.32 5.252-.033 7.463-1.334 2.211-1.302 3.894-3.624 4.082-6.18.21-2.892-1.407-5.6-1.755-8.48a2.568 2.568 0 0 1 .097-1.3c.23-.55.763-.904 1.255-1.246 7.086-4.92 10.887-14.126 9.32-22.585-1.067-5.761-4.384-11.49-2.778-17.128.887-3.115 3.173-5.638 4.455-8.613a14.397 14.397 0 0 0 .476-10.021c-.733-2.273-2.06-4.543-1.603-6.879.804-4.15 6.357-5.473 8.455-9.15 1.556-2.734.635-6.603-1.99-8.342" fill="#000"/><path d="M105.904 36.26a5.884 5.884 0 0 0-1.498-3.5 5.93 5.93 0 0 0-3.334-1.862c-1.73-.275-3.662.212-5.149-.716-.672-.42-1.152-1.078-1.694-1.65-2.123-2.26-5.31-3.302-8.416-3.393-3.107-.091-6.17.657-9.155 1.513-5.959 1.709-12.255 4.216-15.425 9.52-4.82 8.077-.373 18.962-4.185 27.555-1.658 3.753-4.82 6.819-5.848 10.792-1.382 5.308 1.343 10.692 3.44 15.76a74.919 74.919 0 0 1 4.268 14.089c.843 4.26 1.313 8.687.362 12.932-.417 1.858-1.105 3.748-.735 5.614.553 2.822 3.295 4.603 5.788 6.053l.65.38c3.592 2.091 7.288 4.226 11.403 4.743 2.557.32 5.252-.033 7.463-1.334 2.211-1.302 3.894-3.624 4.082-6.18.21-2.892-1.406-5.6-1.755-8.48a2.568 2.568 0 0 1 .097-1.3c.23-.55.763-.904 1.255-1.246 7.087-4.92 10.887-14.126 9.32-22.585-1.067-5.761-4.384-11.49-2.778-17.128.887-3.115 3.173-5.638 4.456-8.613a14.397 14.397 0 0 0 .475-10.021c-.732-2.273-2.059-4.543-1.603-6.879.804-4.15 6.357-5.473 8.455-9.149 1.556-2.735.636-6.604-1.99-8.343" fill="#B96B6B"/><path d="M124.71 211.108a3.21 3.21 0 0 0 1.058-1.59c.138-.633-.133-1.39-.741-1.621-.68-.259-1.407.209-1.957.685-.55.476-1.183 1.015-1.904.914a2.882 2.882 0 0 0 .895-2.7 1.126 1.126 0 0 0-.249-.55c-.378-.402-1.06-.228-1.514.088-1.437 1.007-1.838 2.95-1.847 4.7-.143-.63-.022-1.288-.027-1.926-.006-.639-.183-1.376-.73-1.712a2.22 2.22 0 0 0-1.105-.261c-.647-.025-1.366.04-1.808.511-.553.584-.406 1.566.072 2.202.478.635 1.202 1.045 1.871 1.491a4.14 4.14 0 0 1 1.338 1.269c.04.071.074.147.1.225h4.043c.91-.46 1.751-1.04 2.504-1.725z" fill="#2C7BE5"/><path opacity=".1" d="M249.585 62.582H161.69v6.054h87.894v-6.054zm0 26.141H161.69v6.053h87.894v-6.053zm0 27.24H161.69v6.053h87.894v-6.053z" fill="#2C7BE5"/><path opacity=".1" d="M174.962 46.898h-5.528v15.684h5.528V46.898z" fill="#2C7BE5"/><path opacity=".1" d="M174.962 49.375h-5.528v1.1h5.528v-1.1zm0 8.53h-5.528v1.1h5.528v-1.1zm8.285-11.007h-5.528v15.684h5.528V46.898z" fill="#2C7BE5"/><path opacity=".1" d="M183.247 49.375h-5.528v1.1h5.528v-1.1zm0 8.53h-5.528v1.1h5.528v-1.1zm8.293-11.007h-5.528v15.684h5.528V46.898z" fill="#2C7BE5"/><path opacity=".1" d="M191.54 49.375h-5.528v1.1h5.528v-1.1zm0 8.53h-5.528v1.1h5.528v-1.1zm8.293-11.007h-5.528v15.684h5.528V46.898z" fill="#2C7BE5"/><path opacity=".1" d="M199.833 49.375h-5.528v1.1h5.528v-1.1zm0 8.53h-5.528v1.1h5.528v-1.1zm8.293-11.007h-5.528v15.684h5.528V46.898z" fill="#2C7BE5"/><path opacity=".1" d="M208.126 49.375h-5.528v1.1h5.528v-1.1zm0 8.53h-5.528v1.1h5.528v-1.1zm8.293-11.007h-5.528v15.684h5.528V46.898z" fill="#2C7BE5"/><path opacity=".1" d="M216.419 49.375h-5.528v1.1h5.528v-1.1zm0 8.53h-5.528v1.1h5.528v-1.1zm8.289-11.007h-5.528v15.684h5.528V46.898z" fill="#2C7BE5"/><path opacity=".1" d="M224.708 49.375h-5.528v1.1h5.528v-1.1zm0 8.53h-5.528v1.1h5.528v-1.1zm-3.271 41.961l-4.941 2.467 7.062 14.02 4.941-2.466-7.062-14.02z" fill="#2C7BE5"/><path opacity=".1" d="M222.555 102.078l-4.942 2.467.496.984 4.941-2.467-.495-.984zm3.835 7.626l-4.941 2.467.496.984 4.941-2.467-.495-.984zm-51.428-36.39h-5.528v15.684h5.528V73.314z" fill="#2C7BE5"/><path opacity=".1" d="M174.962 75.79h-5.528v1.1h5.528v-1.1zm0 8.53h-5.528v1.1h5.528v-1.1zm8.285-11.006h-5.528v15.684h5.528V73.314z" fill="#2C7BE5"/><path opacity=".1" d="M183.247 75.79h-5.528v1.1h5.528v-1.1zm0 8.53h-5.528v1.1h5.528v-1.1zm8.293-11.006h-5.528v15.684h5.528V73.314z" fill="#2C7BE5"/><path opacity=".1" d="M191.54 75.79h-5.528v1.1h5.528v-1.1zm0 8.53h-5.528v1.1h5.528v-1.1zm34.55-11.006h-5.528v15.684h5.528V73.314z" fill="#2C7BE5"/><path opacity=".1" d="M226.09 75.79h-5.528v1.1h5.528v-1.1zm0 8.53h-5.528v1.1h5.528v-1.1zm8.293-11.006h-5.528v15.684h5.528V73.314z" fill="#2C7BE5"/><path opacity=".1" d="M234.383 75.79h-5.528v1.1h5.528v-1.1zm0 8.53h-5.528v1.1h5.528v-1.1zm8.293-11.006h-5.528v15.684h5.528V73.314z" fill="#2C7BE5"/><path opacity=".1" d="M242.676 75.79h-5.528v1.1h5.528v-1.1zm0 8.53h-5.528v1.1h5.528v-1.1zm-67.714 15.959h-5.528v15.684h5.528v-15.684z" fill="#2C7BE5"/><path opacity=".1" d="M174.962 102.755h-5.528v1.1h5.528v-1.1zm0 8.531h-5.528v1.1h5.528v-1.1zm8.285-11.007h-5.528v15.684h5.528v-15.684z" fill="#2C7BE5"/><path opacity=".1" d="M183.247 102.755h-5.528v1.1h5.528v-1.1zm0 8.531h-5.528v1.1h5.528v-1.1zm8.293-11.007h-5.528v15.684h5.528v-15.684z" fill="#2C7BE5"/><path opacity=".1" d="M191.54 102.755h-5.528v1.1h5.528v-1.1zm0 8.531h-5.528v1.1h5.528v-1.1zm8.293-11.007h-5.528v15.684h5.528v-15.684z" fill="#2C7BE5"/><path opacity=".1" d="M199.833 102.755h-5.528v1.1h5.528v-1.1zm0 8.531h-5.528v1.1h5.528v-1.1zm8.293-11.007h-5.528v15.684h5.528v-15.684z" fill="#2C7BE5"/><path opacity=".1" d="M208.126 102.755h-5.528v1.1h5.528v-1.1zm0 8.531h-5.528v1.1h5.528v-1.1zm8.293-11.007h-5.528v15.684h5.528v-15.684z" fill="#2C7BE5"/><path opacity=".1" d="M216.419 102.755h-5.528v1.1h5.528v-1.1zm0 8.531h-5.528v1.1h5.528v-1.1zM233 48.293V62.58h-5.527V47.245c1.85.325 3.693.674 5.528 1.048z" fill="#2C7BE5"/><path opacity=".1" d="M233 49.375h-5.527v1.1h5.528v-1.1zm0 8.53h-5.527v1.1h5.528v-1.1zm8.294-7.702v12.382h-5.528V48.882c.719.157 1.434.322 2.15.49 1.132.264 2.258.541 3.378.831z" fill="#2C7BE5"/><path opacity=".1" d="M241.294 50.203v.276h-5.528v-1.101h2.15c1.132.26 2.258.536 3.378.825zm0 7.702h-5.528v1.1h5.528v-1.1zm-200.75-3.123c5.699 0 10.318-4.6 10.318-10.272 0-5.673-4.62-10.272-10.318-10.272-5.698 0-10.317 4.6-10.317 10.272 0 5.673 4.62 10.272 10.317 10.272z" fill="#2C7BE5"/><path opacity=".1" d="M40.545 53.227c4.836 0 8.756-3.903 8.756-8.717s-3.92-8.717-8.756-8.717-8.756 3.903-8.756 8.717 3.92 8.717 8.756 8.717z" fill="#2C7BE5"/><path opacity=".1" d="M40.547 45.132a.623.623 0 0 0 .624-.622.623.623 0 0 0-.624-.622.623.623 0 0 0-.625.622c0 .344.28.622.625.622z" fill="#2C7BE5"/><path opacity=".1" d="M44.3 37.975l-3.444 5.999m3.598 2.561l-3.345-1.752" stroke="#2C7BE5" stroke-miterlimit="10"/><path d="M160.087 196.874h-28.864c-.993 0-1.797.8-1.797 1.789v.987c0 .988.804 1.789 1.797 1.789h28.863c.993 0 1.797-.8 1.797-1.789v-.987c0-.988-.804-1.789-1.796-1.789z" fill="#535461"/><path opacity=".7" d="M72.866 0H7.8C3.492 0 0 3.477 0 7.765v39.997c0 4.288 3.492 7.765 7.8 7.765h65.066c4.308 0 7.8-3.477 7.8-7.765V7.765c0-4.288-3.492-7.765-7.8-7.765z" transform="translate(149.184 145.972)" fill="url(#paint0_linear)"/><path d="M219.618 146.996h-61.579c-4.097 0-7.418 3.306-7.418 7.385v39.73c0 4.08 3.321 7.386 7.418 7.386h61.579c4.097 0 7.418-3.307 7.418-7.386v-39.73c0-4.079-3.321-7.385-7.418-7.385z" fill="#3E3F49"/><path d="M220.673 146.996h-61.579c-4.097 0-7.418 3.306-7.418 7.385v39.73c0 4.08 3.321 7.386 7.418 7.386h61.579c4.097 0 7.418-3.307 7.418-7.386v-39.73c0-4.079-3.321-7.385-7.418-7.385z" fill="#535461"/><path d="M193.456 176.327c1.363 0 2.468-1.1 2.468-2.457a2.463 2.463 0 0 0-2.468-2.457 2.463 2.463 0 0 0-2.468 2.457 2.463 2.463 0 0 0 2.468 2.457z" fill="#E0E0E0"/><path d="M61.513 198.208s-4.389-1.48-6.5 2.369a6.997 6.997 0 0 0 .093 6.76c1.382 2.496 4.246 5.738 9.674 5.449 4.594-.245 6.122-3.734 6.537-6.981a7.14 7.14 0 0 0-.458-3.594 7.173 7.173 0 0 0-2.164-2.913 7.234 7.234 0 0 0-6.944-1.17l-.238.08z" fill="#2C7BE5"/><path opacity=".1" d="M56.033 207.685a6.998 6.998 0 0 1-.094-6.76c2.112-3.853 6.501-2.37 6.501-2.37l.224-.08a7.169 7.169 0 0 1 5.158.116 7.163 7.163 0 0 0-6.081-.578l-.224.08s-4.39-1.48-6.5 2.369a6.997 6.997 0 0 0 .093 6.76c.915 1.652 2.466 3.608 4.975 4.678a10.848 10.848 0 0 1-4.052-4.215z" fill="#fff"/><path opacity=".2" d="M59.25 200.061s1.628 1.274 5.578 0H59.25z" fill="#000"/><path d="M58.898 190.804s2.79 7.52 2.557 9.487l2.211-.23s-3.72-6.604-2.789-9.257h-1.979z" fill="#2C7BE5"/><path opacity=".2" d="M58.898 190.804s2.79 7.52 2.557 9.487l2.211-.23s-3.72-6.604-2.789-9.257h-1.979z" fill="#000"/><path d="M70.284 191.434s-4.39-2.235-6.357-.388c-1.968 1.846-2.267 6.565-2.267 6.565s7.162.98 8.624-6.177z" fill="#2C7BE5"/><path opacity=".1" d="M70.284 191.434s-4.39-2.235-6.357-.388c-1.968 1.846-2.267 6.565-2.267 6.565s7.162.98 8.624-6.177z" fill="#fff"/><path d="M61.664 197.611s1.153-5.478 8.62-6.177z" stroke="#2C7BE5" stroke-miterlimit="10"/><g opacity=".1" fill="#2C7BE5"><path opacity=".1" d="M202.704 83.294s-1.675-.567-2.487.905a2.673 2.673 0 0 0 .036 2.58c.53.953 1.622 2.202 3.69 2.081 1.755-.094 2.338-1.425 2.487-2.666a2.74 2.74 0 0 0-1.008-2.477 2.77 2.77 0 0 0-2.646-.456l-.072.033z"/><path opacity=".1" d="M200.618 86.914a2.674 2.674 0 0 1-.036-2.58c.807-1.47 2.488-.906 2.488-.906l.086-.03a2.74 2.74 0 0 1 1.97.044 2.736 2.736 0 0 0-2.324-.22l-.086.03s-1.675-.567-2.487.905a2.673 2.673 0 0 0 .036 2.581 4.02 4.02 0 0 0 1.896 1.786 4.135 4.135 0 0 1-1.543-1.61z"/><path opacity=".2" d="M201.836 84s.622.488 2.131 0h-2.131z"/><path opacity=".1" d="M201.703 80.465s1.064 2.872.976 3.624l.843-.088s-1.421-2.518-1.064-3.536h-.755z"/><path opacity=".2" d="M201.703 80.465s1.064 2.872.976 3.624l.843-.088s-1.421-2.518-1.064-3.536h-.755z"/><path opacity=".1" d="M206.054 80.707s-1.678-.853-2.427-.149c-.749.705-.865 2.507-.865 2.507s2.734.369 3.292-2.358z"/><path opacity=".1" d="M206.054 80.707s-1.678-.853-2.427-.149c-.749.705-.865 2.507-.865 2.507s2.734.369 3.292-2.358z"/><path opacity=".1" d="M202.758 83.065s.44-2.091 3.292-2.36l-3.292 2.36z"/></g><g opacity=".1" fill="#2C7BE5"><path opacity=".1" d="M238.087 110.535s-1.675-.567-2.487.905a2.673 2.673 0 0 0 .036 2.58c.53.953 1.622 2.202 3.69 2.081 1.755-.093 2.338-1.425 2.487-2.666a2.74 2.74 0 0 0-1.008-2.477 2.77 2.77 0 0 0-2.646-.456l-.072.033z"/><path opacity=".1" d="M236.001 114.155a2.674 2.674 0 0 1-.036-2.581c.807-1.47 2.488-.905 2.488-.905l.086-.03a2.74 2.74 0 0 1 1.97.043 2.736 2.736 0 0 0-2.324-.22l-.086.03s-1.675-.566-2.487.906a2.673 2.673 0 0 0 .036 2.58 4.02 4.02 0 0 0 1.896 1.787 4.135 4.135 0 0 1-1.543-1.61z"/><path opacity=".2" d="M237.219 111.241s.622.487 2.131 0h-2.131z"/><path opacity=".1" d="M237.086 107.706s1.064 2.873.976 3.624l.843-.088s-1.421-2.518-1.064-3.536h-.755z"/><path opacity=".2" d="M237.086 107.706s1.064 2.873.976 3.624l.843-.088s-1.421-2.518-1.064-3.536h-.755z"/><path opacity=".1" d="M241.437 107.948s-1.678-.853-2.427-.148c-.749.704-.865 2.506-.865 2.506s2.734.37 3.292-2.358z"/><path opacity=".1" d="M241.437 107.948s-1.678-.853-2.427-.148c-.749.704-.865 2.506-.865 2.506s2.734.37 3.292-2.358z"/><path opacity=".1" d="M238.141 110.306s.44-2.091 3.292-2.361l-3.292 2.36z"/></g><path opacity=".1" d="M970.081 118.131c8.449 10.81 5.167 26.604-.202 39.25-1.798 4.235-3.832 8.715-3.072 13.255.926 5.552 5.841 9.618 11.024 11.756 9.426 3.922 20.711 2.987 29.37-2.434 7.485-4.687 12.846-12.307 20.459-16.78 12.745-7.481 28.958-4.656 42.792.498 9.787 3.647 20.488 8.392 30.214 4.579 6.843-2.672 11.575-9.21 14.153-16.13 1.245-3.342 2.148-6.947 4.514-9.618 1.412-1.574 3.255-2.694 5.146-3.634 17.259-8.606 39.032-4.008 55.781-13.541 11.325-6.42 18.58-18.58 21.766-31.258s2.84-25.981 2.028-39.028c-.579-9.28-1.617-19.184-7.509-26.347-6.232-7.575-16.93-10.393-26.598-8.953-9.667 1.44-18.432 6.572-26.14 12.616-9.637 7.553-18.572 16.961-30.403 20.023-8.057 2.084-16.532.943-24.843.55-13.892-.66-27.787.802-41.603 2.405-13.226 1.539-26.552 3.233-39.146 7.561-8.917 3.065-16.065 8.625-24.484 12.51-5.489 2.533-11.474 3.233-16.667 6.458-6.402 3.973-12.268 10.885-10.621 18.97 1.55 7.7 9.556 11.556 14.041 17.292z" fill="#2C7BE5"/><path opacity=".1" d="M1218 144.714s-48.591-12.825-111.521 19.771c-62.93 32.597-131.701-25.65-130.373-34.466 1.327-8.817-45.671 0-45.671 0v78.82H1218v-64.125z" fill="#2C7BE5"/><path d="M1184.183 27.58c-7.294 0-13.207-5.95-13.207-13.29 0-7.34 5.913-13.29 13.207-13.29 7.294 0 13.207 5.95 13.207 13.29 0 7.34-5.913 13.29-13.207 13.29z" fill="#FFDF9C"/><path d="M30.618 55.342l2.368 6.784-1.821 11.404s-2.754 9.084-2.478 13.508c.276 4.425 0 10.477 0 10.477s-6.606 12.13-1.102 17.1c1.28 1.151 2.35.921 3.24-.113.896.495 1.817.941 2.761 1.336l-4.62 18.057-4.405 8.817s-9.365 8.015-12.937 24.826c0 0-3.57 11.204-5.841 14.549a4.56 4.56 0 0 1-.337.451 18.908 18.908 0 0 1-.975-1.766L.326 191.799s8.258 4.686 14.039 6.615c5.78 1.929 12.386-.267 14.314-2.757 1.928-2.49-3.852-5.237-7.984-6.893-2.002-.802-3.096-2.707-3.696-4.457a25.738 25.738 0 0 1-.114-1.801c-.088-3.129.39-7.353 2.984-10.559 4.679-5.79 11.837-20.124 11.837-20.124s7.17-7.719 8.81-10.752l9.913-16.651c5.499 6.271 11.008 21.06 11.008 21.06l2.201 13.509s7.17 19.298 9.36 21.227c.061.054.122.115.183.179l.056.062c.044.048.089.099.133.152l.053.067c.058.072.114.15.173.23l.04.061a6 6 0 0 1 .132.201l.061.098.117.198.053.094c.053.094.106.191.157.291l.056.107.108.219.062.128.111.241.045.101c.05.111.098.223.144.337l.053.131.098.243.053.136.122.318.03.08.127.35.045.131.096.267.04.118.127.387.016.054.109.344.034.115.104.34.024.08.114.387.021.078.088.307.032.112.08.291.023.083.088.332.042.16.04.16.05.198.014.053c.064.254.122.495.175.714l.066.267.03.131v.035a10.314 10.314 0 0 1-1.15-.89c.16 1.834.16 3.68 0 5.514-.266 2.758 2.477 6.616 2.477 6.616s24.777-6.065 26.152-10.201-4.405-3.583-6.057-3.033c-1.651.551-9.91-1.103-11.011-3.032a5.33 5.33 0 0 0-.74-.986 1.56 1.56 0 0 0-1.913-.318l-.06-.07-.072-.088-.048-.061-.088-.115a4.804 4.804 0 0 1-.183-.267l-.067-.102a16.97 16.97 0 0 1-.334-.569l-.021-.04c-1.755-3.225-3.646-9.808-4.081-11.374v-.035l-.035-.128v-.083l-.018-.064v-.032l-6.33-20.677c1.927-7.444 0-11.027 0-11.027l-3.58-16.817-2.02-7.614c.063-.065.092-.105.092-.105-1.646-4.633-2.936-14.46-3.74-22.053l-.15-1.446 6.094 2.825s8.258 12.68 13.489 6.615c5.23-6.065-10.462-11.302-10.462-11.302l-9.888-6.602-.021-.291-1.102-8.283s-3.027-9.923-1.652-16.541c1.171-5.635-2.655-7.671-3.807-8.152a3.66 3.66 0 0 0-.56-.166c-1.512-.358-3.187-1.905-4.623-3.561a18.156 18.156 0 0 0-4.32-3.615 4.246 4.246 0 0 0 1.8-2.672c.228-1.272-.205-2.536-.592-3.784a33.88 33.88 0 0 1 1.949-4.007h.045c.115-.196.226-.382.334-.559a11.925 11.925 0 0 0 7.53-3.934 12.066 12.066 0 0 0 3.035-7.971 11.95 11.95 0 0 0-1.484-5.785c1.235-.43 2.416-.975 1.97-2.25-.302-.863-1.107-1.424-1.733-2.086-1.66-1.756-2.165-4.39-3.898-6.07A5.926 5.926 0 0 0 54.034.951C52.271-.053 50.017-.181 47.98.192c-2.52.466-4.87 1.583-7.33 2.301-2.165.63-4.43.957-6.504 1.846-3.539 1.515-6.263 4.596-7.896 8.085-1.445 3.084-2.125 6.501-3.694 9.518-1.569 3.016-4.48 5.733-7.878 5.61-.879-.029-1.79-.243-2.613.065a3.194 3.194 0 0 0-1.518 1.394c-1.86 3.06-.667 7.18-2.151 10.44-1.105 2.425-3.484 3.959-5.433 5.773C1.014 47.038-.661 49.732.26 52.235c.473 1.282 1.556 2.218 2.82 2.781a7.142 7.142 0 0 0 2.058.762c1.858.377 3.76.15 5.642.016 5.09-.36 10.658-.168 14.7-3.29 1.665-1.284 2.947-3.058 4.28-4.731.014 2.547.302 5.085.858 7.57zm7.33 17.338c.415.687.834 1.37 1.27 2.044 4.047 6.252-1.442 14.805-1.442 14.805a14.933 14.933 0 0 0-3.186 3.641c.072-2.631.377-5.637 1.258-7.777 1.37-3.332 1.918-9.464 2.1-12.721v.008z" transform="matrix(-1 0 0 1 1125.35 8.208)" fill="url(#paint1_linear)"/><path d="M1091.545 68.894l2.151 13.469s2.69 8.886 2.419 13.193c-.27 4.307 0 10.234 0 10.234s6.452 11.846 1.075 16.693c-5.377 4.847-6.99-15.347-6.99-15.347s.796-8.617-1.076-13.193c-1.872-4.577-2.151-14.54-2.151-14.54l4.572-10.509z" fill="#FFCDD3"/><path opacity=".05" d="M1091.545 68.894l2.151 13.469s2.69 8.886 2.419 13.193c-.27 4.307 0 10.234 0 10.234s6.452 11.846 1.075 16.693c-5.377 4.847-6.99-15.347-6.99-15.347s.796-8.617-1.076-13.193c-1.872-4.577-2.151-14.54-2.151-14.54l4.572-10.509z" fill="#000"/><path d="M1060.031 115.194l-3.717 14.02-3.494 16.423s-1.883 3.5 0 10.77l-6.185 20.194s-3.494 12.924-5.645 13.194c-2.15.27 2.151 10.233 2.151 10.233l5.916-3.5s1.614-8.077 3.765-9.964c2.151-1.886 9.142-20.733 9.142-20.733l2.151-13.194s6.72-18.04 12.636-22.35c5.916-4.31 7.799-11.31 7.799-11.31l-24.519-3.783z" fill="#FFCDD3"/><path opacity=".05" d="M1084.55 118.984s-1.883 7-7.798 11.31c-5.916 4.31-12.637 22.35-12.637 22.35l-2.15 13.193s-6.992 18.847-9.143 20.734c-1.577 1.384-2.867 6.105-3.452 8.517-.21.877-.323 1.446-.323 1.446l-5.916 3.5s-4.302-9.963-2.151-10.233c.334-.04.698-.388 1.08-.943 2.072-3.022 4.565-12.25 4.565-12.25l6.184-20.194c-1.883-7.27 0-10.77 0-10.77l3.494-16.424 3.718-14.017 24.529 3.78z" fill="#000"/><path d="M1118.97 188.991l-2.15 5.117-9.68-1.07a22.4 22.4 0 0 0 .495-4.226c.085-3.056-.383-7.182-2.921-10.313-4.564-5.67-11.548-19.665-11.548-19.665s-6.991-7.54-8.603-10.5l-13.46-22.61.42-2.027-3.63-3.367h22.578l5.377 21 4.302 8.617s9.142 7.81 12.636 24.234c0 0 3.486 10.955 5.709 14.209.138.215.297.417.475.601z" fill="#FFCDD3"/><path opacity=".1" d="M1049.39 195.083c-.21.876-.324 1.445-.324 1.445l-5.916 3.5s-4.301-9.963-2.15-10.233c.334-.04.698-.387 1.08-.943a1.524 1.524 0 0 1 .688 1.678c-.085.402-.228.79-.425 1.149-.797 1.336 2.69 3.5 2.69 3.5 1.179 1.52 3.09.721 4.357-.096z" fill="#000"/><path d="M1042.494 191.073c.369-1.553-1.57-2.595-2.656-1.43a5.248 5.248 0 0 0-.722.962c-1.075 1.884-9.142 3.5-10.754 2.963-1.611-.537-7.26-1.068-5.916 2.963 1.344 4.032 25.539 9.964 25.539 9.964s2.692-3.773 2.427-6.464a30.965 30.965 0 0 1 0-5.386s-3.766 3.5-5.646 1.069c0 0-3.494-2.154-2.69-3.5.194-.358.335-.742.418-1.141z" fill="#DCE6F2"/><path opacity=".1" d="M1118.97 188.991l-2.15 5.117-9.68-1.069a22.42 22.42 0 0 0 .495-4.227 1.333 1.333 0 0 1 .999-.723 1.32 1.32 0 0 1 1.16.413 27.14 27.14 0 0 1 1.378 1.577c1.075 1.336 4.57.534 4.57.534.905.302 1.98-1.007 2.75-2.215.14.213.3.412.478.593z" fill="#000"/><path d="M1110.064 189.031a1.326 1.326 0 0 0-1.29-.386 1.326 1.326 0 0 0-.962.945c-.488 1.916-1.561 4.387-3.9 5.325-4.034 1.603-9.679 4.307-7.799 6.73 1.88 2.424 8.337 4.582 13.985 2.693 5.648-1.889 13.712-6.463 13.712-6.463l-4.033-10.77s-2.151 4.577-3.765 4.04c0 0-3.495.801-4.57-.535a29.167 29.167 0 0 0-1.378-1.579z" fill="#DCE6F2"/><path d="M1073.525 37.665s6.452 8.887 4.84 15.08c-1.611 6.194 12.905-4.04 12.905-4.04s-7.528-6.73-6.184-17.77l-11.561 6.73z" fill="#FFCDD3"/><path d="M1094.765 121.944c-10.754 6.463-23.66 3.77-23.66 3.77l.265-1.884-.56.054c-10.28.91-12.616-2.207-12.616-2.207 1.61-4.526 2.868-14.124 3.654-21.54.114-1.07.215-2.087.308-3.044a333.884 333.884 0 0 0 .608-6.92l1.08-8.08s2.959-9.693 1.615-16.156c-1.144-5.504 2.586-7.481 3.717-7.96.178-.068.361-.123.548-.163 1.473-.35 3.117-1.87 4.513-3.473a18.126 18.126 0 0 1 7.541-5.154c1.352-.492 2.502-1.015 2.502-1.015 1.882-2.154 6.99-.802 6.99-.802 6.185 4.04 2.959 17.234 2.959 17.234l-2.57 7.355c-1.434 4.096-3.474 7.93-5.842 11.572-3.954 6.108 1.41 14.46 1.41 14.46 8.345 6.72 7.538 23.953 7.538 23.953z" fill="#FF8AA1"/><path opacity=".05" d="M1071.78 109.423l-.964 14.46c-10.278.911-12.615-2.207-12.615-2.207 1.61-4.526 2.868-14.123 3.654-21.54.114-1.069.215-2.087.308-3.043l9.617 12.33z" fill="#000"/><path opacity=".1" d="M1088.847 71.593s-4.84 9.154-6.452 13.193c-1.612 4.04-1.614 2.694-2.419 4.04-.805 1.347-9.41 7.27-9.41 7.27l-8.715 4.04c.37-3.473.635-6.482.783-8.256l8.2-5.477s5.645-3.5 5.916-8.077c.27-4.577 3.765-12.924 3.765-12.924s6.991-7.54 9.95-4.04c2.957 3.5-1.618 10.23-1.618 10.23z" fill="#000"/><path d="M1080.516 64.053s-3.494 8.347-3.765 12.924c-.271 4.576-5.916 8.076-5.916 8.076L1053.09 96.9s-15.327 5.117-10.218 11.04c5.109 5.924 13.178-6.45 13.178-6.45l14.52-6.73s8.602-5.923 9.41-7.27c.807-1.346.796 0 2.418-4.04 1.623-4.04 6.453-13.193 6.453-13.193s4.57-6.73 1.614-10.233c-2.955-3.503-9.95 4.029-9.95 4.029z" fill="#FFCDD3"/><path opacity=".1" d="M1078.368 67.558s5.377-4.04 6.452-5.386c.475-.593 1.21-.508 1.885-.222a8.45 8.45 0 0 0 3.983.66c1.176-.101 2.318-.034 2.185.639-.265 1.336.797-7 .797-7l-4.57-1.603-5.916 3.23-4.816 9.682z" fill="#000"/><path d="M1078.368 67.024s5.377-4.04 6.452-5.387c.475-.593 1.21-.507 1.885-.221a8.45 8.45 0 0 0 3.983.66c1.176-.102 2.318-.035 2.185.638-.265 1.336.797-7 .797-7l-4.57-1.603-5.916 3.23-4.816 9.683z" fill="#FF8AA1"/><path opacity=".1" d="M1065.705 67.559a6.602 6.602 0 0 0 6.075-.404m11.565-35.549c-.202-1.603 1.79 1.734 2.015-.133l-11.561 6.73s.661.911 1.503 2.346c.44.05.884.077 1.328.077 3.475 0 4.577-6.604 6.715-9.02z" fill="#000"/><path d="M1076.344 40.09c-6.46 0-11.697-5.245-11.697-11.714 0-6.47 5.237-11.713 11.697-11.713 6.46 0 11.696 5.244 11.696 11.713 0 6.47-5.237 11.713-11.696 11.713z" fill="#FFCDD3"/><path opacity=".1" d="M1071.11 28.578c.087.735.071 1.513.419 2.165.488.913 1.542 1.336 2.424 1.87 3.574 2.204 4.633 7.163 3.494 11.208-.403 1.432-1.038 2.883-.775 4.347.454 2.515 3.314 3.818 5.855 4.043 2.541.224 5.204-.19 7.58.74 3.984 1.56 5.752 6.25 9.145 8.87 3.949 3.05 9.387 2.86 14.357 3.207 1.838.13 3.718.352 5.51-.016 1.792-.369 3.587-1.46 4.227-3.19.9-2.443-.738-5.093-2.655-6.867-1.917-1.774-4.227-3.27-5.31-5.64-1.45-3.185-.266-7.214-2.1-10.196a3.122 3.122 0 0 0-1.483-1.363c-.796-.302-1.694-.093-2.551-.064-3.322.115-6.152-2.538-7.7-5.485-1.549-2.947-2.199-6.282-3.609-9.296-1.593-3.409-4.248-6.412-7.7-7.898-2.026-.865-4.249-1.186-6.352-1.803-2.403-.7-4.7-1.793-7.169-2.247-2.47-.454-5.252-.155-7.052 1.587-1.694 1.64-2.188 4.214-3.808 5.929-.613.65-1.4 1.197-1.694 2.038-.698 1.994 2.69 2.162 3.818 2.96a7.417 7.417 0 0 1 2.098 2.22c.538.878.89 1.86 1.03 2.882z" fill="#000"/><path d="M1071.647 28.312c.088.734.072 1.512.42 2.164.488.914 1.543 1.336 2.424 1.87 3.574 2.204 4.634 7.163 3.494 11.209-.403 1.432-1.038 2.882-.775 4.347.454 2.514 3.314 3.818 5.855 4.042 2.54.224 5.204-.19 7.58.74 3.984 1.56 5.752 6.25 9.145 8.87 3.949 3.05 9.387 2.86 14.357 3.207 1.838.13 3.718.353 5.51-.016 1.792-.369 3.582-1.462 4.22-3.182.9-2.442-.739-5.093-2.656-6.867-1.917-1.774-4.227-3.27-5.31-5.64-1.45-3.185-.266-7.214-2.1-10.196a3.122 3.122 0 0 0-1.482-1.363c-.797-.302-1.695-.093-2.552-.064-3.322.115-6.152-2.538-7.7-5.485-1.548-2.947-2.199-6.281-3.609-9.295-1.593-3.41-4.248-6.413-7.7-7.898-2.026-.866-4.249-1.187-6.352-1.804-2.403-.7-4.7-1.793-7.169-2.247-2.47-.454-5.252-.155-7.052 1.587-1.694 1.64-2.188 4.214-3.808 5.93-.613.648-1.4 1.196-1.694 2.038-.698 1.993 2.69 2.161 3.818 2.96a7.417 7.417 0 0 1 2.1 2.215c.54.876.893 1.856 1.036 2.878zm136.659 180.659s8.763-15.764-2.124-28.322c-10.887-12.557-23.632-5.61-23.632-5.61s-15.931 7.48-12.214 25.382c0 0 2.124 9.084 8.497 8.55h29.473z" fill="#2C7BE5"/><path opacity=".2" d="M1208.306 208.971s8.763-15.764-2.124-28.322c-10.887-12.557-23.632-5.61-23.632-5.61s-15.931 7.48-12.214 25.382c0 0 2.124 9.084 8.497 8.55h29.473z" fill="#fff"/><path d="M1194.54 208.993l-9.604-29.412m-8.757 4.542s4.944-2.34 9.906-1.037c0 0 2.573-6.444 8.415-7.513m-20.717 18.703s8.407-6.113 14.559-4.259c0 0 6.949-8.299 11.728-7.764m-24.428 22.977s7.185-5.231 16.072-4.881c0 0 6.763-8.206 13.136-8.74m-14.138 17.383a18.777 18.777 0 0 1 3.433-1.237s5.54-7.246 16.625-4.887" stroke="#535461" stroke-width=".267" stroke-miterlimit="10"/><path d="M1124.342 208.763s14.604-23.962 10.706-45.58c-1.638-9.084-.475-18.435 3.622-26.694a71.703 71.703 0 0 1 6.88-11.12" stroke="#535461" stroke-width=".534" stroke-miterlimit="10"/><path d="M1143.169 111.733c-.858 3.19 2.39 14.003 2.39 14.003s8.231-7.69 9.08-10.88a6.02 6.02 0 0 0-.518-4.61 5.975 5.975 0 0 0-1.533-1.795 5.933 5.933 0 0 0-4.452-1.21c-.784.106-1.54.37-2.222.774a5.96 5.96 0 0 0-1.75 1.58 6.001 6.001 0 0 0-1.006 2.14l.01-.002zm-14.234 15.089c1.004 3.148 9.578 10.442 9.578 10.442s2.75-10.955 1.747-14.1a5.974 5.974 0 0 0-2.958-3.418 5.914 5.914 0 0 0-4.491-.353 5.957 5.957 0 0 0-3.448 2.917 6.018 6.018 0 0 0-.428 4.512zm-7.7 30.312c2.446 2.207 13.505 4.15 13.505 4.15s-3.12-10.853-5.576-13.06a5.942 5.942 0 0 0-4.323-1.604 5.918 5.918 0 0 0-4.164 1.984 5.994 5.994 0 0 0-1.507 4.38 6.014 6.014 0 0 0 2.055 4.15h.01zm-.68 24.246c2.04 2.588 12.615 6.385 12.615 6.385s-1.253-11.222-3.293-13.819a5.922 5.922 0 0 0-8.305-.91 6.012 6.012 0 0 0-1.018 8.343zm29.845-40.22c-2.87 1.603-14.073 1.026-14.073 1.026s5.438-9.886 8.308-11.489a5.923 5.923 0 0 1 8.167 2.28 6.012 6.012 0 0 1-.585 6.682 5.956 5.956 0 0 1-1.807 1.501h-.01zm-1.165 28.353c-3.216.668-13.744-3.26-13.744-3.26s8.12-7.793 11.344-8.461a5.918 5.918 0 0 1 4.379.942 5.987 5.987 0 0 1 2.485 3.748 6.016 6.016 0 0 1-.818 4.43 5.949 5.949 0 0 1-3.657 2.601h.011zm-4.885 27.403c-3.058 1.205-14.093-.876-14.093-.876s6.702-9.063 9.76-10.268a5.914 5.914 0 0 1 4.49.164 5.97 5.97 0 0 1 3.094 3.275 6.02 6.02 0 0 1-.064 4.52 5.967 5.967 0 0 1-3.186 3.185z" fill="#2C7BE5"/><path d="M1143.169 111.733c-.858 3.19 2.39 14.003 2.39 14.003s8.231-7.69 9.08-10.88a6.02 6.02 0 0 0-.518-4.61 5.975 5.975 0 0 0-1.533-1.795 5.933 5.933 0 0 0-4.452-1.21c-.784.106-1.54.37-2.222.774a5.96 5.96 0 0 0-1.75 1.58 6.001 6.001 0 0 0-1.006 2.14l.01-.002zm-14.234 15.089c1.004 3.148 9.578 10.442 9.578 10.442s2.75-10.955 1.747-14.1a5.974 5.974 0 0 0-2.958-3.418 5.914 5.914 0 0 0-4.491-.353 5.957 5.957 0 0 0-3.448 2.917 6.018 6.018 0 0 0-.428 4.512zm-7.7 30.312c2.446 2.207 13.505 4.15 13.505 4.15s-3.12-10.853-5.576-13.06a5.942 5.942 0 0 0-4.323-1.604 5.918 5.918 0 0 0-4.164 1.984 5.994 5.994 0 0 0-1.507 4.38 6.014 6.014 0 0 0 2.055 4.15h.01zm-.68 24.246c2.04 2.588 12.615 6.385 12.615 6.385s-1.253-11.222-3.293-13.819a5.922 5.922 0 0 0-8.305-.91 6.012 6.012 0 0 0-1.018 8.343zm29.845-40.22c-2.87 1.603-14.073 1.026-14.073 1.026s5.438-9.886 8.308-11.489a5.923 5.923 0 0 1 8.167 2.28 6.012 6.012 0 0 1-.585 6.682 5.956 5.956 0 0 1-1.807 1.501h-.01zm-1.165 28.353c-3.216.668-13.744-3.26-13.744-3.26s8.12-7.793 11.344-8.461a5.918 5.918 0 0 1 4.379.942 5.987 5.987 0 0 1 2.485 3.748 6.016 6.016 0 0 1-.818 4.43 5.949 5.949 0 0 1-3.657 2.601h.011zm-4.885 27.403c-3.058 1.205-14.093-.876-14.093-.876s6.702-9.063 9.76-10.268a5.914 5.914 0 0 1 4.49.164 5.97 5.97 0 0 1 3.094 3.275 6.02 6.02 0 0 1-.064 4.52 5.967 5.967 0 0 1-3.186 3.185z" fill="#FC6681"/><path d="M1200.73 208.993s-19.776-31.282-22.166-44.641c-2.39-13.36-6.904-25.65-6.904-25.65" stroke="#535461" stroke-width=".534" stroke-miterlimit="10"/><path d="M1167.15 165.42l12.48 1.069s-6.638 11.489-12.48-1.069z" fill="#2C7BE5"/><path d="M1188.927 158.473l-9.883 7.965s12.804 5.127 9.883-7.965zm-23.375-4.008l11.248 1.512s-9.92 8.107-11.248-1.512zm18.589-4.007l-7.419 5.24s9.012 3.844 7.42-5.24zm-10.171-4.758s-9.211-2.456-10.539-1.922c-1.327.534-.53 6.413 3.187 6.68 3.717.267 7.352-4.759 7.352-4.759zm6.19-6.998s-5.842 5.61-6.107 6.947c-.266 1.336 4.779 4.542 7.434 0 2.656-4.542-1.327-6.947-1.327-6.947z" fill="#2C7BE5"/><path d="M1169.275 141.908a2.664 2.664 0 0 1-2.656-2.672 2.664 2.664 0 0 1 2.656-2.672 2.664 2.664 0 0 1 2.655 2.672 2.664 2.664 0 0 1-2.655 2.672z" fill="#FFD037"/><path d="M1174.055 140.572a2.664 2.664 0 0 1-2.656-2.672 2.664 2.664 0 0 1 2.656-2.672 2.664 2.664 0 0 1 2.655 2.672 2.664 2.664 0 0 1-2.655 2.672z" fill="#FFD037"/><path d="M1218 198.15v-49.43s-23.897-6.145-28.411 23.513C1185.075 201.89 1218 198.15 1218 198.15z" fill="#2C7BE5"/><path d="M1194.758 164.35s5.027-4.541 10.09-3.472c0 0 3.187-7.214 5.842-8.016m-14.068 20.306s3.452-5.167 12.48-5.389c0 0 5.31-9.84 8.898-10.508m-21.375 27.92s7.467-10.195 16.611-10.708c0 0 2.773-3.765 4.764-4.008" stroke="#535461" stroke-width=".267" stroke-miterlimit="10"/><path d="M1204.445 197.044s3.332-11.41 13.555-14.837l-14.471-23.467" stroke="#535461" stroke-width=".267" stroke-miterlimit="10"/><path d="M1113.517 208.97s-8.762-14.427 13.011-35.802 20.446-25.383 18.587-28.589c0 0 17.525 2.137 13.807 28.589-3.717 26.451-19.648 35.803-19.648 35.803h-25.757z" fill="#2C7BE5"/><path d="M1125.857 208.97s6.505-18.97 16.33-30.458c9.824-11.49 7.965-30.46 2.92-33.933" stroke="#535461" stroke-width=".534" stroke-miterlimit="10"/><path d="M1026.4 105.683s-14.73 29.1-2.726 45.02c12.004 15.922-1.092 59.297-1.092 59.297" stroke="#FC6681" stroke-width=".534" stroke-miterlimit="10"/><path d="M1022.026 96.623c0 5.61 4.092 10.153 4.092 10.153s4.092-4.542 4.092-10.153c0-5.611-4.092-10.153-4.092-10.153s-4.092 4.545-4.092 10.153z" fill="#FC6681"/><path d="M1018.763 105.683s14.732 29.1 2.727 45.02c-12.004 15.922 1.092 59.297 1.092 59.297" stroke="#FFD037" stroke-width=".534" stroke-miterlimit="10"/><path d="M1023.12 96.623c0 5.61-4.092 10.153-4.092 10.153s-4.092-4.542-4.092-10.153c0-5.611 4.092-10.153 4.092-10.153s4.092 4.545 4.092 10.153z" fill="#FFD037"/><path d="M1012.754 105.683s-14.731 29.1-2.73 45.02c12.003 15.922-1.09 59.297-1.09 59.297" stroke="#FC6681" stroke-width=".534" stroke-miterlimit="10"/><path d="M1008.386 96.623c0 5.61 4.092 10.153 4.092 10.153s4.092-4.542 4.092-10.153c0-5.611-4.092-10.153-4.092-10.153s-4.092 4.545-4.092 10.153zm2.297 23.303c3.866 4.042 9.947 4.465 9.947 4.465s-.183-6.146-4.05-10.175c-3.865-4.029-9.946-4.443-9.946-4.443s.183 6.121 4.05 10.153zm-.38 20.084c3.866 4.043 9.947 4.465 9.947 4.465s-.183-6.145-4.05-10.174c-3.865-4.03-9.946-4.465-9.946-4.465s.186 6.121 4.05 10.174zm20.959 11.047c-3.654 4.235-3.526 10.37-3.526 10.37s6.054-.736 9.707-4.97c3.654-4.235 3.526-10.37 3.526-10.37s-6.054.735-9.707 4.97zm-3.396-42.812c-4.647 3.1-6.152 9.044-6.152 9.044s6.027.92 10.674-2.177c4.646-3.097 6.152-9.044 6.152-9.044s-6.027-.92-10.674 2.177z" fill="#FC6681"/><path d="M1005.113 105.683s14.732 29.1 2.727 45.02c-12.004 15.922 1.092 59.297 1.092 59.297" stroke="#FFD037" stroke-width=".534" stroke-miterlimit="10"/><path d="M1009.48 96.623c0 5.61-4.092 10.153-4.092 10.153s-4.092-4.542-4.092-10.153c0-5.611 4.092-10.153 4.092-10.153s4.092 4.545 4.092 10.153zm-1.171 23.747c3.913 4.008 4.171 10.124 4.171 10.124s-6.086-.35-10-4.344c-3.914-3.995-4.171-10.124-4.171-10.124s6.086.347 10 4.344z" fill="#FFD037"/><path d="M970.07 38.077c3.914 4.008 4.172 10.123 4.172 10.123s-6.086-.35-10-4.344c-3.914-3.994-4.171-10.124-4.171-10.124s6.086.348 10 4.345z" fill="#2C7BE5"/><path d="M1202.939 98.995c3.913 4.008 4.171 10.124 4.171 10.124s-6.086-.35-10-4.345c-3.914-3.994-4.171-10.123-4.171-10.123s6.086.347 10 4.344z" fill="#FC6681"/><path d="M984.942 112.087c3.913 4.008 4.171 10.124 4.171 10.124s-6.086-.35-10-4.344c-3.914-3.995-4.171-10.124-4.171-10.124s6.086.347 10 4.344zm191.741-4.392c5.157-2.137 10.887-.053 10.887-.053s-2.623 5.538-7.78 7.67c-5.156 2.133-10.887.054-10.887.054s2.624-5.539 7.78-7.671z" fill="#2C7BE5"/><path d="M1111.858 99.685c2.979-4.74 8.855-6.383 8.855-6.383s1.044 6.044-1.938 10.786c-2.982 4.743-8.856 6.383-8.856 6.383s-1.04-6.041 1.939-10.786zm-111.229 48.48c3.913 4.008 4.171 10.124 4.171 10.124s-6.086-.35-10-4.344c-3.914-3.995-4.171-10.124-4.171-10.124s6.086.347 10 4.344z" fill="#FFD037"/><path d="M1011.91 142.054s-8.869-14.064-21.314-14.366z" stroke="#FFD037" stroke-width=".534" stroke-miterlimit="10"/><path d="M1018.806 133.553s8.869-14.064 21.314-14.366z" stroke="#FC6681" stroke-width=".534" stroke-miterlimit="10"/><path d="M1019.98 153.637s-8.869-14.064-21.314-14.366z" stroke="#FFD037" stroke-width=".534" stroke-miterlimit="10"/><path d="M991.01 129.895a2.31 2.31 0 0 1-2.302-2.317 2.31 2.31 0 0 1 2.302-2.316 2.31 2.31 0 0 1 2.302 2.316 2.31 2.31 0 0 1-2.302 2.317z" fill="#FFD037"/><path d="M1039.928 121.596a2.31 2.31 0 0 1-2.302-2.317 2.31 2.31 0 0 1 2.302-2.316 2.31 2.31 0 0 1 2.302 2.316 2.31 2.31 0 0 1-2.302 2.317z" fill="#FC6681"/><path d="M1013.456 158.27s8.869-14.064 21.314-14.366z" stroke="#FC6681" stroke-width=".534" stroke-miterlimit="10"/><path d="M1034.558 146.303a2.31 2.31 0 0 1-2.302-2.317 2.31 2.31 0 0 1 2.302-2.316 2.31 2.31 0 0 1 2.302 2.316 2.31 2.31 0 0 1-2.302 2.317z" fill="#FC6681"/><path d="M998.498 141.67a2.31 2.31 0 0 1-2.302-2.317 2.31 2.31 0 0 1 2.302-2.316 2.31 2.31 0 0 1 2.302 2.316 2.31 2.31 0 0 1-2.302 2.317z" fill="#FFD037"/><path d="M1083.111 151.526s8.763-9.885 11.949 2.405 5.045 13.894 11.418 10.687c6.372-3.206 13.01 12.024-2.656 22.978-15.666 10.955-6.903 21.776-6.903 21.776h-56.026s-7.435-21.776 8.762-29.257c16.197-7.481 15.666-13.092 15.135-20.573-.531-7.481 18.321-8.016 18.321-8.016z" fill="#2C7BE5"/><path d="M1090.54 147.768s-36.377 48.245-23.897 61.605z" stroke="#535461" stroke-width=".534" stroke-miterlimit="10"/><path d="M1099.95 165.394s-8.608 7.371-22.681 3.63c-14.073-3.74-10.603-13.337-10.603-13.337m-25.632 33.029s18.728-9.14 28.146-5.732c24.514 8.876 42.75-15.026 42.75-15.026" stroke="#535461" stroke-width=".534" stroke-miterlimit="10"/><path d="M1095.447 208.97s-11.418-8.55 2.92-38.474c0 0 19.119-23.78 0-46.223 0 0 41.688 1.069 40.892 40.078-.797 39.009-20.844 44.62-20.844 44.62h-22.968z" fill="#2C7BE5"/><path d="M1106.12 208.97s2.876-20.573 10.576-33.13a27.033 27.033 0 0 0 3.234-8.206c2.573-11.39-1.097-23.3-9.41-31.453l-12.148-11.908" stroke="#535461" stroke-width=".534" stroke-miterlimit="10"/><path opacity=".1" d="M1095.447 208.97s-11.418-8.55 2.92-38.474c0 0 19.119-23.78 0-46.223 0 0 41.688 1.069 40.892 40.078-.797 39.009-20.844 44.62-20.844 44.62h-22.968z" fill="#000"/><path d="M954.596 84.33s6.107 49.963 0 80.69c-6.107 30.726 30.865 43.952 30.865 43.952H931.23s-7.435-99.527 23.366-124.642z" fill="#2C7BE5"/><path d="M954.594 84.33s-15.44 43.035-13.162 64.925c2.278 21.89 5.462 60.117 5.462 60.117" stroke="#535461" stroke-width=".534" stroke-miterlimit="10"/><path d="M993.116 208.736s39.07-8.79-10.642-60.221c0 0-21.428 20.437-13.568 45.84 3.16 10.215 13.329 16.52 23.631 14.501l.58-.12z" fill="#2C7BE5"/><path opacity=".4" d="M993.12 208.736c.857-.193 38.235-9.659-10.643-60.221 0 0-21.428 20.437-13.568 45.84 3.16 10.215 13.329 16.52 23.631 14.501l.58-.12z" fill="#fff"/><path d="M992.602 209.027s-20.637-31.285-10.13-60.512z" stroke="#535461" stroke-width=".267" stroke-miterlimit="10"/><path d="M1154.826 208.736s39.07-8.79-10.642-60.221c0 0-21.428 20.437-13.568 45.84 3.16 10.215 13.329 16.52 23.631 14.501l.58-.12z" fill="#2C7BE5"/><path opacity=".4" d="M1154.82 208.736c.857-.193 38.235-9.659-10.643-60.221 0 0-21.428 20.437-13.568 45.84 3.16 10.215 13.329 16.52 23.631 14.501l.58-.12z" fill="#fff"/><path d="M1154.31 209.027s-20.637-31.285-10.13-60.512z" stroke="#535461" stroke-width=".267" stroke-miterlimit="10"/><path d="M962.404 74.443s19.944 20.069 8.686 49.846c-11.258 29.778 19.301 79.303 19.301 79.303s-.327-.048-.935-.155c-40.96-7.275-61.315-54.417-38.535-89.437 8.464-13.02 15.416-28.295 11.483-39.557z" fill="#2C7BE5"/><path opacity=".1" d="M962.404 74.443s19.944 20.069 8.686 49.846c-11.258 29.778 19.301 79.303 19.301 79.303s-.327-.048-.935-.155c-40.96-7.275-61.315-54.417-38.535-89.437 8.464-13.02 15.416-28.295 11.483-39.557z" fill="#000"/><path d="M962.404 74.443s11.259 24.6 0 44.668c-11.258 20.069-1.93 76.388 27.987 84.481" stroke="#535461" stroke-width=".267" stroke-miterlimit="10"/><path d="M926.88 155.612s22.758-3.647 24.832 16.875c2.073 20.523 43.761 23.368 43.761 23.368s-.266.187-.78.535c-34.42 22.737-67.325 14.484-62.365-15.708 1.843-11.235 1.692-22.508-5.448-25.07z" fill="#2C7BE5"/><path opacity=".2" d="M926.88 155.612s22.758-3.647 24.832 16.875c2.073 20.523 43.761 23.368 43.761 23.368s-.266.187-.78.535c-34.42 22.737-67.325 14.484-62.365-15.708 1.843-11.235 1.692-22.508-5.448-25.07z" fill="#F5F5F5"/><path d="M926.884 155.612s17.665 3.9 16.216 20.063c-1.45 16.162 26.231 35.535 52.38 20.18" stroke="#535461" stroke-width=".267" stroke-miterlimit="10"/><path d="M943.047 209.465s9.683-33.085-1.817-57.444c-4.827-10.22-6.43-21.693-4.2-32.784a88.315 88.315 0 0 1 4.612-15.387" stroke="#535461" stroke-width=".534" stroke-miterlimit="10"/><path d="M934.489 88.466c0 4.056 7.296 15.814 7.296 15.814s7.297-11.756 7.297-15.814a7.37 7.37 0 0 0-2.139-5.196 7.279 7.279 0 0 0-5.163-2.152 7.279 7.279 0 0 0-5.163 2.152 7.37 7.37 0 0 0-2.139 5.196h.01zm-12.056 22.459c2.19 3.404 14.665 9.285 14.665 9.285s-.226-13.862-2.416-17.266a7.323 7.323 0 0 0-1.978-2.09 7.274 7.274 0 0 0-5.492-1.216 7.27 7.27 0 0 0-2.667 1.062 7.318 7.318 0 0 0-2.054 2.014 7.365 7.365 0 0 0-1.144 5.54 7.366 7.366 0 0 0 1.086 2.671zm.527 38.391c3.597 1.825 17.317.564 17.317.564s-7.148-11.85-10.746-13.674a7.255 7.255 0 0 0-5.546-.385 7.31 7.31 0 0 0-4.205 3.659 7.384 7.384 0 0 0-.424 5.577 7.33 7.33 0 0 0 3.603 4.26zm6.904 28.943c3.239 2.405 16.972 3.5 16.972 3.5s-5.045-12.894-8.295-15.307a7.277 7.277 0 0 0-5.42-1.358 7.268 7.268 0 0 0-2.679.969 7.313 7.313 0 0 0-2.106 1.927 7.363 7.363 0 0 0-1.35 5.453 7.37 7.37 0 0 0 .963 2.696 7.326 7.326 0 0 0 1.915 2.12zm22.548-57.264c-2.892 2.824-16.357 5.753-16.357 5.753s3.298-13.461 6.19-16.285a7.272 7.272 0 0 1 5.168-2.006 7.275 7.275 0 0 1 5.08 2.225 7.367 7.367 0 0 1 2.062 5.173 7.365 7.365 0 0 1-2.143 5.14zm7.642 33.959c-3.598 1.825-17.317.564-17.317.564s7.148-11.85 10.759-13.682a7.255 7.255 0 0 1 5.523-.352 7.31 7.31 0 0 1 4.18 3.65 7.384 7.384 0 0 1 .431 5.553 7.33 7.33 0 0 1-3.565 4.26l-.01.007zm2.923 34.035c-3.24 2.404-16.973 3.5-16.973 3.5s5.045-12.895 8.295-15.307a7.278 7.278 0 0 1 5.454-1.436 7.25 7.25 0 0 1 2.712.962 7.313 7.313 0 0 1 2.132 1.94 7.363 7.363 0 0 1 1.341 5.51 7.371 7.371 0 0 1-.999 2.714 7.325 7.325 0 0 1-1.962 2.114v.003z" fill="#2C7BE5"/><path d="M934.489 88.466c0 4.056 7.296 15.814 7.296 15.814s7.297-11.756 7.297-15.814a7.37 7.37 0 0 0-2.139-5.196 7.279 7.279 0 0 0-5.163-2.152 7.279 7.279 0 0 0-5.163 2.152 7.37 7.37 0 0 0-2.139 5.196h.01zm-12.056 22.459c2.19 3.404 14.665 9.285 14.665 9.285s-.226-13.862-2.416-17.266a7.323 7.323 0 0 0-1.978-2.09 7.274 7.274 0 0 0-5.492-1.216 7.27 7.27 0 0 0-2.667 1.062 7.318 7.318 0 0 0-2.054 2.014 7.365 7.365 0 0 0-1.144 5.54 7.366 7.366 0 0 0 1.086 2.671zm.527 38.391c3.597 1.825 17.317.564 17.317.564s-7.148-11.85-10.746-13.674a7.255 7.255 0 0 0-5.546-.385 7.31 7.31 0 0 0-4.205 3.659 7.384 7.384 0 0 0-.424 5.577 7.33 7.33 0 0 0 3.603 4.26zm6.904 28.943c3.239 2.405 16.972 3.5 16.972 3.5s-5.045-12.894-8.295-15.307a7.277 7.277 0 0 0-5.42-1.358 7.268 7.268 0 0 0-2.679.969 7.313 7.313 0 0 0-2.106 1.927 7.363 7.363 0 0 0-1.35 5.453 7.37 7.37 0 0 0 .963 2.696 7.326 7.326 0 0 0 1.915 2.12zm22.548-57.264c-2.892 2.824-16.357 5.753-16.357 5.753s3.298-13.461 6.19-16.285a7.272 7.272 0 0 1 5.168-2.006 7.275 7.275 0 0 1 5.08 2.225 7.367 7.367 0 0 1 2.062 5.173 7.365 7.365 0 0 1-2.143 5.14zm7.642 33.959c-3.598 1.825-17.317.564-17.317.564s7.148-11.85 10.759-13.682a7.255 7.255 0 0 1 5.523-.352 7.31 7.31 0 0 1 4.18 3.65 7.384 7.384 0 0 1 .431 5.553 7.33 7.33 0 0 1-3.565 4.26l-.01.007zm2.923 34.035c-3.24 2.404-16.973 3.5-16.973 3.5s5.045-12.895 8.295-15.307a7.278 7.278 0 0 1 5.454-1.436 7.25 7.25 0 0 1 2.712.962 7.313 7.313 0 0 1 2.132 1.94 7.363 7.363 0 0 1 1.341 5.51 7.371 7.371 0 0 1-.999 2.714 7.325 7.325 0 0 1-1.962 2.114v.003z" fill="#FC6681"/><path d="M943.218 203.823c-1.52-1.422-2.945-3.097-3.383-5.138-.438-2.042.427-4.49 2.363-5.235 2.172-.836 4.493.68 6.25 2.207 1.758 1.529 3.776 3.276 6.078 2.94a9.316 9.316 0 0 1-2.572-3.978 9.367 9.367 0 0 1-.29-4.735 3.65 3.65 0 0 1 .797-1.77c1.205-1.295 3.39-.74 4.832.281 4.591 3.25 5.87 9.523 5.895 15.168.462-2.036.071-4.16.085-6.25.013-2.088.576-4.4 2.334-5.514 1.04-.665 2.323-.801 3.555-.841 2.063-.078 4.36.13 5.77 1.65 1.75 1.887 1.296 5.053-.226 7.13-1.521 2.075-3.84 3.376-5.971 4.809-1.625 1.092-3.269 2.37-4.267 4.096a4.062 4.062 0 0 0-.316.732h-12.934a36.04 36.04 0 0 1-8-5.552zm212.904 1.841c-1.152-.88-2.235-1.919-2.567-3.182a2.705 2.705 0 0 1 .253-1.982 2.677 2.677 0 0 1 1.542-1.26c1.649-.518 3.41.42 4.742 1.369 1.333.948 2.865 2.028 4.612 1.827-1.81-1.314-2.671-3.452-2.172-5.394.085-.419.296-.801.603-1.096.913-.801 2.573-.457 3.667.174 3.484 2.012 4.455 5.894 4.474 9.391.35-1.26.056-2.575.064-3.868.008-1.294.44-2.728 1.768-3.423.797-.412 1.763-.492 2.698-.521 1.566-.048 3.308.083 4.378 1.02 1.328 1.168.986 3.13-.172 4.414-1.158 1.286-2.921 2.093-4.533 2.98-1.232.676-2.48 1.466-3.24 2.535a2.304 2.304 0 0 0-.238.454h-9.825a28.177 28.177 0 0 1-6.054-3.438zm-164.36 0c-1.152-.88-2.235-1.919-2.567-3.182a2.705 2.705 0 0 1 .253-1.982 2.677 2.677 0 0 1 1.542-1.26c1.649-.518 3.41.42 4.742 1.369 1.333.948 2.865 2.028 4.612 1.827-1.81-1.314-2.671-3.452-2.172-5.394.085-.419.296-.801.603-1.096.913-.801 2.573-.457 3.667.174 3.484 2.012 4.455 5.894 4.474 9.391.35-1.26.056-2.575.064-3.868.008-1.294.44-2.728 1.768-3.423.797-.412 1.763-.492 2.698-.521 1.566-.048 3.308.083 4.378 1.02 1.328 1.168.986 3.13-.172 4.414-1.158 1.286-2.921 2.093-4.533 2.98-1.232.676-2.48 1.466-3.24 2.535a2.304 2.304 0 0 0-.238.454h-9.825a28.177 28.177 0 0 1-6.054-3.438z" fill="#2C7BE5"/><path d="M1093.232 119.755c2.058 1.841 4.113 4.714 3.12 8.721-1.962 7.888-11.85 8.337-14.665 16.08-.842 2.319-.76 4.707-.326 6.698.847 3.893 2.878 6.68 4.405 9.947 1.527 3.268 2.562 7.505 1.277 12.12-1.237 4.44-4.379 8.18-7.549 10.433-3.17 2.253-6.455 3.33-9.7 4.764a62.685 62.685 0 0 0-11.269 6.543c-1.558 1.125-3.125 2.36-4.479 4.043-1.543 1.918-2.714 4.304-3.855 6.642-.566 1.16-.415 3.474-1.7 3.474-32.822-.113-9.824-.129-25.936-.051-2.865.013-6.965.032-12.836.051-6.248.021-5.122-11.324-4.299-18.703 1.168-10.453 9.899-19.067 14.248-29.246 3.118-7.294 3.85-15.166 6.458-22.644 3.757-10.776 11.221-19.898 19.028-25.335 7.806-5.437 15.931-7.57 23.663-8.282 3.271-.305 6.567-.358 9.312 1.036 2.921 1.483 3.595 5.216 5.842 7.516 2.591 2.685 6.465 3.693 9.261 6.194z" fill="#2C7BE5"/><path opacity=".2" d="M1093.232 119.755c2.058 1.841 4.113 4.714 3.12 8.721-1.962 7.888-11.85 8.337-14.665 16.08-.842 2.319-.76 4.707-.326 6.698.847 3.893 2.878 6.68 4.405 9.947 1.527 3.268 2.562 7.505 1.277 12.12-1.237 4.44-4.379 8.18-7.549 10.433-3.17 2.253-6.455 3.33-9.7 4.764a62.685 62.685 0 0 0-11.269 6.543c-1.558 1.125-3.125 2.36-4.479 4.043-1.543 1.918-2.714 4.304-3.855 6.642-.566 1.16-.415 3.474-1.7 3.474-32.822-.113-9.824-.129-25.936-.051-2.865.013-6.965.032-12.836.051-6.248.021-5.122-11.324-4.299-18.703 1.168-10.453 9.899-19.067 14.248-29.246 3.118-7.294 3.85-15.166 6.458-22.644 3.757-10.776 11.221-19.898 19.028-25.335 7.806-5.437 15.931-7.57 23.663-8.282 3.271-.305 6.567-.358 9.312 1.036 2.921 1.483 3.595 5.216 5.842 7.516 2.591 2.685 6.465 3.693 9.261 6.194z" fill="#fff"/><path d="M1080.3 107.978s-34.96 50.957-57.736 101.218z" stroke="#535461" stroke-width=".534" stroke-miterlimit="10"/><path d="M1096.17 128.944s-31.202.377-45.816 26.986zm-9.93 46.621s-38.687-15.678-46.65-.433zm-41.011-62.457s7.966 16.354 2.889 46.715zm-39.695 77.686s5.842 10.597 27.036-2.324z" stroke="#535461" stroke-width=".534" stroke-miterlimit="10"/><path d="M972.022 160.827s-5.871 7.727 2.713 19.39c8.585 11.662 15.666 21.51 12.796 28.78 0 0-12.947-21.663-23.486-21.965-10.538-.301-3.614-13.177 7.977-26.205z" fill="#2C7BE5"/><path opacity=".1" d="M972.027 160.827a9.593 9.593 0 0 0-1.2 2.423c-10.282 12.157-15.76 23.513-5.877 23.78 9.206.267 20.25 16.832 22.894 21.014-.087.322-.191.64-.313.951 0 0-12.947-21.663-23.486-21.965-10.539-.302-3.609-13.175 7.982-26.203z" fill="#000"/><path d="M961.11 170.673c0 2.72.304 4.924.678 4.924.374 0 .677-2.204.677-4.924s-.38-1.44-.751-1.44c-.372 0-.603-1.28-.603 1.44z" fill="#FFD037"/><path d="M957.364 173.919c2.373 1.301 4.442 2.09 4.62 1.758.178-.331-1.593-1.654-3.983-2.955-2.39-1.301-1.437-.355-1.617-.024-.18.331-1.392-.08.98 1.221z" fill="#FFD037"/><path d="M1003.034 160.827s5.871 7.727-2.71 19.39c-8.582 11.662-15.667 21.51-12.796 28.78 0 0 12.947-21.663 23.485-21.965 10.54-.301 3.612-13.177-7.979-26.205z" fill="#2C7BE5"/><path opacity=".1" d="M1003.032 160.827a9.593 9.593 0 0 1 1.2 2.423c10.282 12.157 15.76 23.513 5.877 23.78-9.206.267-20.25 16.832-22.894 21.014.087.322.191.64.313.951 0 0 12.947-21.663 23.486-21.965 10.539-.302 3.609-13.175-7.982-26.203z" fill="#000"/><path d="M1013.95 170.673c0 2.72-.303 4.924-.677 4.924-.374 0-.677-2.204-.677-4.924s.38-1.44.751-1.44c.372 0 .603-1.28.603 1.44z" fill="#FFD037"/><path d="M1017.691 173.919c-2.374 1.301-4.442 2.09-4.62 1.758-.178-.331 1.593-1.654 3.983-2.955 2.39-1.301 1.437-.355 1.617-.024.18.331 1.391-.08-.98 1.221z" fill="#FFD037"/><path d="M1163.99 180.31s-3.544 4.662 1.636 11.705 9.45 12.986 7.725 17.367c0 0-7.815-13.076-14.177-13.257-6.362-.182-2.18-7.944 4.817-15.815z" fill="#FC6681"/><path opacity=".1" d="M1163.99 180.31a5.788 5.788 0 0 0-.73 1.47c-6.205 7.336-9.514 14.184-3.547 14.355 5.557.16 12.214 10.153 13.807 12.684a5.439 5.439 0 0 1-.189.574s-7.814-13.076-14.176-13.258c-6.362-.181-2.161-7.954 4.835-15.825z" fill="#000"/><path d="M1157.402 186.26c0 1.64.183 2.971.41 2.971.225 0 .408-1.336.408-2.971s-.228-.868-.454-.868-.364-.773-.364.868z" fill="#FFD037"/><path d="M1155.145 188.22c1.43.785 2.682 1.26 2.788 1.068.106-.192-.967-1-2.39-1.785-1.423-.785-.868-.213-.974-.013-.107.2-.866-.056.576.73z" fill="#FFD037"/><path d="M1182.706 180.31s3.545 4.662-1.635 11.705-9.45 12.986-7.724 17.367c0 0 7.814-13.076 14.176-13.257 6.362-.182 2.18-7.944-4.817-15.815z" fill="#FC6681"/><path opacity=".1" d="M1182.713 180.31c.312.452.557.947.73 1.47 6.205 7.336 9.514 14.184 3.547 14.355-5.557.16-12.214 10.153-13.807 12.684.052.195.115.386.189.574 0 0 7.814-13.076 14.176-13.258 6.362-.181 2.161-7.954-4.835-15.825z" fill="#000"/><path d="M1189.3 186.26c0 1.64-.183 2.971-.409 2.971-.226 0-.409-1.336-.409-2.971s.229-.868.454-.868c.226 0 .364-.773.364.868z" fill="#FFD037"/><path d="M1191.56 188.22c-1.43.785-2.681 1.26-2.788 1.068-.106-.192.967-1 2.39-1.785 1.423-.785.868-.213.975-.013.106.2.863-.056-.577.73z" fill="#FFD037"/><defs><linearGradient id="paint0_linear" x2="1" gradientUnits="userSpaceOnUse" gradientTransform="matrix(0 -55.5243 55.7738 0 12.447 55.524)"><stop stop-color="gray" stop-opacity=".25"/><stop offset=".54" stop-color="gray" stop-opacity=".12"/><stop offset="1" stop-color="gray" stop-opacity=".1"/></linearGradient><linearGradient id="paint1_linear" x2="1" gradientUnits="userSpaceOnUse" gradientTransform="scale(199.402 -200.648) rotate(90 .88 -.12)"><stop stop-color="gray" stop-opacity=".25"/><stop offset=".54" stop-color="gray" stop-opacity=".12"/><stop offset="1" stop-color="gray" stop-opacity=".1"/></linearGradient></defs></svg>